<?xml version="1.0" encoding="utf-8"?>
<!-- Generator: Adobe Illustrator 19.0.0, SVG Export Plug-In . SVG Version: 6.00 Build 0)  -->
<!DOCTYPE svg PUBLIC "-//W3C//DTD SVG 1.1//EN" "http://www.w3.org/Graphics/SVG/1.1/DTD/svg11.dtd">
<svg version="1.1" id="Calque_1" xmlns:sketch="http://www.bohemiancoding.com/sketch/ns"
	 xmlns="http://www.w3.org/2000/svg" xmlns:xlink="http://www.w3.org/1999/xlink" x="0px" y="0px" viewBox="-275 396.9 44 48"
	 style="enable-background:new -275 396.9 44 48;" xml:space="preserve">
<style type="text/css">
	.st0{fill:#FF7977;}
</style>
<title>Airbnb</title>
<desc>Created with Sketch.</desc>
<g>
	<path class="st0" d="M-231.9,429.8c-0.3-0.7-0.5-1.2-1-2.4c0,0,0,0,0-0.1c-0.1-0.2-0.1-0.2-0.1-0.3c-3.3-7.3-6.8-14.6-10.4-21.8
		c-0.1-0.2-0.2-0.3-0.3-0.6c0,0,0,0,0,0c-0.6-1.2-0.9-1.7-1.2-2.4c-0.7-1.2-1.3-2.1-2.1-2.9c-1.4-1.4-3.3-2.2-5.3-2.3l-0.9,0
		c-2.1,0.1-4.1,1-5.5,2.4c-0.8,0.7-1.4,1.6-2,2.8c-0.4,0.7-0.7,1.2-1.2,2.3c0,0.1,0,0.1-0.1,0.1c-0.1,0.3-0.2,0.4-0.3,0.5
		c-2.4,4.8-4.8,9.6-7.1,14.6c-1.7,3.6-2.9,6.2-4,8.8c-0.7,1.6-1.1,2.8-1.3,4.1c-0.4,2.5,0.2,5.1,1.5,7.2c1.1,1.9,2.8,3.4,4.8,4.2
		c1.5,0.7,3.2,1,4.9,0.9c2.1-0.1,4.2-0.9,6.2-2.1c1.6-1,3-2.2,4.6-3.9c1.4,1.5,2.8,2.7,4.2,3.6c1.9,1.3,4,2.1,6.1,2.3
		c2.4,0.3,4.9-0.4,7-1.7c1.8-1.2,3.2-3,4-5c0.5-1.3,0.8-2.7,0.7-4.1C-231,432.6-231.3,431.2-231.9,429.8z M-253.6,430.6
		c0-0.1,0-0.1-0.1-0.1c0,0,0,0,0-0.1c-0.9-1.3-1.6-2.5-2.1-3.7c-0.5-1.2-0.8-2.2-1-3.3c-0.1-1,0-1.8,0.2-2.5
		c0.2-0.7,0.7-1.3,1.3-1.7c1.5-1,3.6-0.9,4.9,0.3c0.6,0.5,1,1.4,1.1,2.3c0.1,1.2-0.1,2.4-0.6,3.9c-0.7,1.9-1.7,3.7-3.2,5.7
		C-253.2,431.3-253.4,431-253.6,430.6z M-236,435.9L-236,435.9c-0.4,1.5-1.4,2.8-2.8,3.5c-1.2,0.7-2.6,0.9-3.9,0.7
		c-1.6-0.3-3.2-1.1-4.8-2.4c-0.8-0.7-1.6-1.4-2.5-2.4c1.6-2.1,2.7-3.9,3.7-5.8c1.1-2.3,1.8-4.5,1.8-6.7c0-1.6-0.3-3.2-1-4.5
		c-0.9-1.9-2.6-3.3-4.6-4c-1.8-0.7-3.8-0.7-5.6-0.2c-1.8,0.5-3.4,1.6-4.4,3.1c-0.9,1.3-1.5,2.8-1.6,4.5c-0.2,2.1,0.3,4.2,1.2,6.5
		c1,2.4,2.4,4.7,4.3,7.2c-0.7,0.7-1.3,1.4-2.1,2.1c-1.6,1.4-3.2,2.3-4.7,2.6c-1.4,0.3-2.9,0.1-4.1-0.5c-1.5-0.7-2.6-2.1-3-3.7
		c-0.3-1.2-0.3-2.4,0.1-3.6c0.2-0.7,0.5-1.3,1-2.5c0-0.1,0-0.1,0-0.1c0.1-0.2,0.2-0.4,0.2-0.5c3.2-7.2,6.6-14.3,10.3-21.5
		c0.1-0.2,0.1-0.3,0.3-0.5c0,0,0,0,0,0c0.6-1.3,0.9-1.9,1.3-2.6c0.5-0.9,1-1.5,1.5-1.9c0.6-0.5,1.5-0.8,2.3-0.8
		c0.9,0,1.7,0.3,2.3,0.9c0.6,0.5,1,1.1,1.6,2.3c0.9,1.6,1.6,3.1,3,5.8c0.1,0.2,0.1,0.2,0.2,0.5c0,0,0,0,0,0.1c3,6.1,6,12.3,8.7,18.5
		c0,0.1,0.1,0.2,0.1,0.3c0,0.1,0,0.1,0.1,0.1c0.5,1.2,0.7,1.7,0.9,2.4C-235.6,433.7-235.6,434.9-236,435.9z"/>
	<polygon class="st0" points="-231,434 -231,434 -231,434 	"/>
</g>
</svg>
