<?xml version="1.0" encoding="UTF-8" standalone="no"?>
<svg width="42px" height="48px" viewBox="0 0 42 48" version="1.1" xmlns="http://www.w3.org/2000/svg" xmlns:xlink="http://www.w3.org/1999/xlink" xmlns:sketch="http://www.bohemiancoding.com/sketch/ns">
    <!-- Generator: Sketch 3.4.4 (17249) - http://www.bohemiancoding.com/sketch -->
    <title>Android</title>
    <desc>Created with Sketch.</desc>
    <defs></defs>
    <g id="Icons" stroke="none" stroke-width="1" fill="none" fill-rule="evenodd" sketch:type="MSPage">
        <g id="Color" sketch:type="MSArtboardGroup" transform="translate(-304.000000, -600.000000)" fill="#95CF00">
            <g id="Line-5" sketch:type="MSLayerGroup" transform="translate(204.000000, 600.000000)">
                <path d="M126.727009,9.60090475 C125.935377,9.60090475 125.294532,8.97719462 125.294532,8.20672916 C125.294532,7.43626371 125.935377,6.81537579 126.727009,6.81537579 C127.518641,6.81537579 128.159486,7.43626371 128.159486,8.20672916 C128.159486,8.97719462 127.518641,9.60090475 126.727009,9.60090475 L126.727009,9.60090475 Z M115.272991,9.60090475 C114.481359,9.60090475 113.840514,8.97719462 113.840514,8.20672916 C113.840514,7.43626371 114.481359,6.81537579 115.272991,6.81537579 C116.064623,6.81537579 116.705468,7.43626371 116.705468,8.20672916 C116.705468,8.97719462 116.064623,9.60090475 115.272991,9.60090475 L115.272991,9.60090475 Z M127.573737,4.01855796 L128.107291,3.23398142 L128.640845,2.46069374 L129.829743,0.722207583 C129.97763,0.507719031 129.916736,0.219852816 129.696355,0.0787419268 C129.478873,-0.0651911805 129.180199,-0.00592460691 129.038111,0.208563945 L127.222867,2.85298201 L126.677713,3.64884743 C124.952361,2.99691512 123.029826,2.63284903 121,2.63284903 C118.973074,2.63284903 117.047639,2.99691512 115.322287,3.64884743 L114.780033,2.85298201 L114.243579,2.07122769 L112.967688,0.208563945 C112.819801,-0.00592460691 112.524027,-0.0623689627 112.303645,0.0787419268 C112.086164,0.219852816 112.025269,0.507719031 112.170257,0.722207583 L113.359155,2.46069374 L113.892709,3.23398142 L114.429163,4.01855796 C110.37821,5.85582174 107.637945,9.33561628 107.637945,13.3177656 L134.362055,13.3177656 C134.362055,9.33561628 131.62179,5.85582174 127.573737,4.01855796 Z M107.843828,15.1747849 L107.637945,15.1747849 L107.637945,35.6132861 C107.637945,37.2360613 108.992129,38.5568593 110.662386,38.5568593 L112.842999,38.5568593 C112.767606,38.8023922 112.727009,39.059214 112.727009,39.3301469 L112.727009,45.214471 C112.727009,46.7525797 114.011599,48 115.591964,48 C117.172328,48 118.456918,46.7525797 118.456918,45.214471 L118.456918,39.3301469 C118.456918,39.059214 118.413422,38.8023922 118.340928,38.5568593 L123.659072,38.5568593 C123.586578,38.8023922 123.545982,39.059214 123.545982,39.3301469 L123.545982,45.214471 C123.545982,46.7525797 124.827672,48 126.408036,48 C127.991301,48 129.275891,46.7525797 129.275891,45.214471 L129.275891,39.3301469 C129.275891,39.059214 129.232394,38.8023922 129.157001,38.5568593 L131.340514,38.5568593 C133.010771,38.5568593 134.362055,37.2360613 134.362055,35.6132861 L134.362055,15.1747849 L107.843828,15.1747849 Z M102.864954,15.1747849 C101.28169,15.1747849 100,16.4222051 100,17.9603138 L100,29.884184 C100,31.4222927 101.28169,32.669713 102.864954,32.669713 C104.445319,32.669713 105.727009,31.4222927 105.727009,29.884184 L105.727009,17.9603138 C105.727009,16.4222051 104.445319,15.1747849 102.864954,15.1747849 Z M139.137945,15.1747849 C137.554681,15.1747849 136.272991,16.4222051 136.272991,17.9603138 L136.272991,29.884184 C136.272991,31.4222927 137.554681,32.669713 139.137945,32.669713 C140.71831,32.669713 142,31.4222927 142,29.884184 L142,17.9603138 C142,16.4222051 140.71831,15.1747849 139.137945,15.1747849 Z" id="Android" sketch:type="MSShapeGroup"></path>
            </g>
        </g>
    </g>
</svg>