<?xml version="1.0" encoding="UTF-8" standalone="no"?>
<svg width="41px" height="48px" viewBox="0 0 41 48" version="1.1" xmlns="http://www.w3.org/2000/svg" xmlns:xlink="http://www.w3.org/1999/xlink" xmlns:sketch="http://www.bohemiancoding.com/sketch/ns">
    <!-- Generator: Sketch 3.4.4 (17249) - http://www.bohemiancoding.com/sketch -->
    <title>Apple</title>
    <desc>Created with Sketch.</desc>
    <defs></defs>
    <g id="Icons" stroke="none" stroke-width="1" fill="none" fill-rule="evenodd" sketch:type="MSPage">
        <g id="Color" sketch:type="MSArtboardGroup" transform="translate(-204.000000, -600.000000)" fill="#0B0B0A">
            <g id="Line-5" sketch:type="MSLayerGroup" transform="translate(204.000000, 600.000000)">
                <path d="M27.1747352,7.792499 C28.7401771,5.77169882 29.9268831,2.91548405 29.497649,0 C26.9390773,0.177807837 23.948466,1.81476887 22.2034752,3.94846291 C20.6127843,5.88177034 19.3054439,8.75774154 19.816036,11.5490423 C22.6130711,11.6365351 25.4998807,9.96006119 27.1747352,7.792499 L27.1747352,7.792499 Z M41,35.217241 C39.8806249,37.7121954 39.3419782,38.8270223 37.8999761,41.0369197 C35.8884674,44.1217446 33.052156,47.9629583 29.5341199,47.9911818 C26.4116524,48.02505 25.6064879,45.9449805 21.3674507,45.9703816 C17.1284135,45.9929604 16.2446963,48.0306946 13.116618,47.9996488 C9.60138728,47.968603 6.91376479,44.5027614 4.90225609,41.4179365 C-0.725479534,32.79849 -1.31742979,22.6803774 2.15291366,17.2981624 C4.62171095,13.4767051 8.51567757,11.2414066 12.1739863,11.2414066 C15.8968204,11.2414066 18.2393723,13.2960749 21.3225635,13.2960749 C24.3131747,13.2960749 26.1339127,11.2357619 30.4402807,11.2357619 C33.7002153,11.2357619 37.1537261,13.0223073 39.6113015,16.1043098 C31.5540449,20.5466833 32.8585799,32.1211268 41,35.217241 L41,35.217241 Z" id="Apple" sketch:type="MSShapeGroup"></path>
            </g>
        </g>
    </g>
</svg>