<?xml version="1.0" encoding="utf-8"?>
<!-- Generator: Adobe Illustrator 19.0.0, SVG Export Plug-In . SVG Version: 6.00 Build 0)  -->
<!DOCTYPE svg PUBLIC "-//W3C//DTD SVG 1.1 Tiny//EN" "http://www.w3.org/Graphics/SVG/1.1/DTD/svg11-tiny.dtd">
<svg version="1.1" baseProfile="tiny" id="Calque_1" xmlns:sketch="http://www.bohemiancoding.com/sketch/ns"
	 xmlns="http://www.w3.org/2000/svg" xmlns:xlink="http://www.w3.org/1999/xlink" x="0px" y="0px" viewBox="-278 395.9 39 51"
	 xml:space="preserve">
<title>Bankin</title>
<desc>Created with Sketch.</desc>
<g id="Icons" sketch:type="MSPage">
	<g id="Color" transform="translate(-605.000000, -899.000000)" sketch:type="MSArtboardGroup">
		<g id="Line-7" transform="translate(200.000000, 800.000000)" sketch:type="MSLayerGroup">
			<path id="Bankin" sketch:type="MSShapeGroup" fill="#52B3F2" d="M165.5,530.8c0.2-2.7-0.4-4.3-0.6-5.1c-1.6-5.1-5.7-7.8-5.7-7.8
				s4.4-3.1,4.9-9.9c0.4-6.9-7.2-12.5-16.7-12.5c-11.7,0-18.8,5-19.5,5.3c-0.1,0.1-0.4,0.2-0.3,0.4l1.9,5.9c0.1,0.4,0.1,0.7,0.6,0.5
				c0,0,4.6-1.9,5.6-1.9c0,0-5.3,36.9-5.2,36.9c-0.1,1.1,0,1.4,1.5,1.8c0.6,0.2,26.7,5.9,32.6-9.3
				C164.5,535.4,165.3,533.3,165.5,530.8z M146.2,504.3c0-0.1,0.1-0.2,0.2-0.2c0,0,0.1,0,0.2,0c0.1,0,0.3-0.1,0.5-0.1
				c1.2-0.2,2.5-0.2,3.7,0.1c0.9,0.2,4.7,1.1,3.5,6c-1.2,4.9-7.5,5.1-8.4,5c-0.2,0-0.5,0-0.6,0c-0.1,0-0.1,0-0.2,0c0,0-0.1,0-0.1,0
				c-0.1,0-0.3-0.1-0.2-0.3L146.2,504.3L146.2,504.3z M156.3,530.9c-1.6,7.4-11.6,6.6-12.9,6.5c-0.3,0-0.6,0-0.9-0.1
				c-0.1,0-0.2,0-0.3,0c0,0-0.1,0-0.1,0c-0.2,0-0.4-0.2-0.3-0.4l2-14.7c0-0.1,0.1-0.3,0.3-0.3c0,0,0.1,0,0.3-0.1
				c0.2,0,0.4-0.1,0.7-0.1c1.7-0.3,3.5-0.3,5.2,0.1C151.5,522.2,158,523.5,156.3,530.9L156.3,530.9z"/>
		</g>
	</g>
</g>
</svg>
