<?xml version="1.0" encoding="UTF-8" standalone="no"?>
<svg width="48px" height="30px" viewBox="0 0 48 30" version="1.1" xmlns="http://www.w3.org/2000/svg" xmlns:xlink="http://www.w3.org/1999/xlink" xmlns:sketch="http://www.bohemiancoding.com/sketch/ns">
    <!-- Generator: Sketch 3.4.4 (17249) - http://www.bohemiancoding.com/sketch -->
    <title>Behance</title>
    <desc>Created with Sketch.</desc>
    <defs></defs>
    <g id="Icons" stroke="none" stroke-width="1" fill="none" fill-rule="evenodd" sketch:type="MSPage">
        <g id="Color" sketch:type="MSArtboardGroup" transform="translate(-700.000000, -209.000000)" fill="#1769FF">
            <g id="Line-1" sketch:type="MSLayerGroup" transform="translate(200.000000, 200.000000)">
                <path d="M530.671768,14.0060325 L543.382997,14.0060325 L543.382997,10.3642691 L530.671768,10.3642691 L530.671768,14.0060325 L530.671768,14.0060325 Z M533.683065,21.9522042 C532.873091,22.7763341 532.362271,23.8928074 532.153427,25.3016241 L542.039626,25.3016241 C541.935204,23.7981439 541.421562,22.662181 540.51281,21.8798144 C539.59277,21.1030162 538.461064,20.7160093 537.106404,20.7160093 C535.638855,20.7160093 534.493039,21.1280742 533.683065,21.9522042 L533.683065,21.9522042 L533.683065,21.9522042 Z M542.26258,17.063109 C543.79504,17.736891 545.056567,18.8060325 546.049985,20.2649652 C546.955914,21.5512761 547.537289,23.0436195 547.802576,24.7392111 C547.957798,25.7303944 548.019886,27.1670534 547.994487,29.0352668 L532.012317,29.0352668 C532.108272,31.2041763 532.864624,32.7271462 534.309595,33.5986079 C535.18448,34.1415313 536.237164,34.4143852 537.473291,34.4143852 C538.77433,34.4143852 539.838302,34.0830626 540.653921,33.4232019 C541.102652,33.0640371 541.497761,32.5684455 541.836426,31.9336427 L547.69251,31.9336427 C547.537289,33.2143852 546.826092,34.5201856 545.567387,35.8454756 C543.603129,37.9475638 540.851476,39 537.315248,39 C534.394261,39 531.817584,38.1146172 529.590862,36.3382831 C527.35285,34.5647332 526.240899,31.67471 526.240899,27.6765661 C526.240899,23.9262181 527.248428,21.050116 529.260663,19.0482599 C531.278543,17.0519722 533.889086,16.0468677 537.103582,16.0468677 C539.014217,16.0468677 540.732943,16.3865429 542.26258,17.063109 L542.26258,17.063109 L542.26258,17.063109 Z M505.912528,25.3795824 L505.912528,33.1837587 L513.114805,33.1837587 C514.401733,33.1837587 515.406439,33.0111369 516.120458,32.6686775 C517.421496,32.0283063 518.070604,30.8143852 518.070604,29.0157773 C518.070604,27.4900232 517.444074,26.4459397 516.182546,25.875174 C515.476994,25.5577726 514.486399,25.3907193 513.216405,25.3795824 L505.912528,25.3795824 L505.912528,25.3795824 Z M505.912528,14.0812065 L505.912528,20.537819 L513.126094,20.537819 C514.410199,20.537819 515.457239,20.2955916 516.264391,19.8111369 C517.065898,19.3266821 517.469474,18.4691415 517.469474,17.2440835 C517.469474,15.8770302 516.938899,14.9777262 515.877748,14.537819 C514.957708,14.2343387 513.789313,14.0812065 512.369742,14.0812065 L505.912528,14.0812065 L505.912528,14.0812065 Z M522.021697,12.1183295 C522.927626,13.362877 523.382002,14.849652 523.382002,16.5842227 C523.382002,18.3689095 522.927626,19.8083527 522.010408,20.8941995 C521.496766,21.5011601 520.743236,22.0580046 519.746996,22.5591647 C521.259701,23.1048724 522.399873,23.9651972 523.17598,25.1429234 C523.943621,26.3178654 524.330264,27.7489559 524.330264,29.4306265 C524.330264,31.1651972 523.889999,32.7215777 523.006648,34.0969838 C522.447851,35.0074246 521.747943,35.7758701 520.906924,36.399536 C519.961484,37.1150812 518.846712,37.6023202 517.556962,37.8696056 C516.267213,38.1341067 514.873042,38.262181 513.365982,38.262181 L500,38.262181 L500,9 L514.334,9 C517.952072,9.05290023 520.511815,10.0914153 522.021697,12.1183295 L522.021697,12.1183295 L522.021697,12.1183295 Z" id="Behance" sketch:type="MSShapeGroup"></path>
            </g>
        </g>
    </g>
</svg>