<?xml version="1.0" encoding="UTF-8" standalone="no"?>
<svg width="48px" height="34px" viewBox="0 0 48 34" version="1.1" xmlns="http://www.w3.org/2000/svg" xmlns:xlink="http://www.w3.org/1999/xlink" xmlns:sketch="http://www.bohemiancoding.com/sketch/ns">
    <!-- Generator: Sketch 3.4.4 (17249) - http://www.bohemiancoding.com/sketch -->
    <title>Blackberry</title>
    <desc>Created with Sketch.</desc>
    <defs></defs>
    <g id="Icons" stroke="none" stroke-width="1" fill="none" fill-rule="evenodd" sketch:type="MSPage">
        <g id="Color" sketch:type="MSArtboardGroup" transform="translate(-500.000000, -607.000000)" fill="#0B0B0A">
            <g id="Line-5" sketch:type="MSLayerGroup" transform="translate(204.000000, 600.000000)">
                <path d="M311.466667,10.6305879 C311.466667,9.02826141 310.49078,7 306.389283,7 L300.073759,7 L298.278329,15.3513663 L304.862411,15.3513663 C310.002837,15.3513663 311.466667,12.904776 311.466667,10.6305879 L311.466667,10.6305879 Z M328.479117,10.6305879 C328.479117,9.02826141 327.505753,7 323.405516,7 L317.088731,7 L315.294563,15.3500987 L321.874862,15.3500987 C327.017809,15.3513663 328.479117,12.904776 328.479117,10.6305879 Z M309.188337,23.1994703 C309.188337,21.5971438 308.212451,19.5638118 304.110954,19.5638118 L297.795429,19.5638118 L296,27.9202488 L302.58156,27.9202488 C307.723247,27.9202488 309.188337,25.4673201 309.188337,23.1994703 Z M326.200788,23.1994703 C326.200788,21.5971438 325.223641,19.5638118 321.125926,19.5638118 L314.810402,19.5638118 L313.012451,27.9202488 L319.596533,27.9202488 C324.73948,27.9202488 326.200788,25.4673201 326.200788,23.1994703 L326.200788,23.1994703 Z M344,18.1021959 C344,16.4986017 343.022853,14.4665373 338.925138,14.4665373 L332.609614,14.4665373 L330.811663,22.8217066 L337.393223,22.8217066 C342.53617,22.8217066 344,20.3751163 344,18.1021959 L344,18.1021959 Z M341.546414,31.1882849 C341.546414,29.5846908 340.571789,27.557697 336.471552,27.557697 L330.156028,27.557697 L328.360599,35.9090634 L334.942159,35.9090634 C340.083846,35.9090634 341.546414,33.4561347 341.546414,31.1882849 Z M323.756028,36.2868271 C323.756028,34.6768946 322.782664,32.6448302 318.684949,32.6448302 L312.365642,32.6448302 L310.570213,40.9999995 L317.151773,40.9999995 C322.29472,41.0012672 323.756028,38.5546768 323.756028,36.2868271 L323.756028,36.2868271 Z" id="Blackberry" sketch:type="MSShapeGroup"></path>
            </g>
        </g>
    </g>
</svg>