<?xml version="1.0" encoding="UTF-8" standalone="no"?>
<svg width="48px" height="48px" viewBox="0 0 48 48" version="1.1" xmlns="http://www.w3.org/2000/svg" xmlns:xlink="http://www.w3.org/1999/xlink" xmlns:sketch="http://www.bohemiancoding.com/sketch/ns">
    <!-- Generator: Sketch 3.4.4 (17249) - http://www.bohemiancoding.com/sketch -->
    <title>Blogger</title>
    <desc>Created with Sketch.</desc>
    <defs></defs>
    <g id="Icons" stroke="none" stroke-width="1" fill="none" fill-rule="evenodd" sketch:type="MSPage">
        <g id="Color" sketch:type="MSArtboardGroup" transform="translate(-700.000000, -400.000000)" fill="#FF6500">
            <g id="Line-3" sketch:type="MSLayerGroup" transform="translate(200.000000, 400.000000)">
                <path d="M532.547017,35.523 L515.4033,35.523 C513.793865,35.523 512.490057,34.2075 512.490057,32.637 C512.490057,31.0485 513.793865,29.7495 515.4033,29.7495 L532.547017,29.7495 C534.139891,29.7495 535.443699,31.0485 535.443699,32.637 C535.443699,34.2075 534.139891,35.523 532.547017,35.523 M515.4033,12.3975 L523.838906,12.3975 C525.448341,12.3975 526.752149,13.6965 526.752149,15.2835 C526.752149,16.872 525.448341,18.186 523.838906,18.186 L515.4033,18.186 C513.793865,18.186 512.490057,16.872 512.490057,15.2835 C512.490057,13.6965 513.793865,12.3975 515.4033,12.3975 M546.775986,18.5715 C545.76275,18.138 541.416222,18.6195 540.20877,17.529 C539.356628,16.743 539.302428,15.321 538.969701,13.4235 C538.412647,10.2465 538.180792,9.5265 537.601154,8.2755 C535.493382,3.8175 530.44075,0 525.850323,0 L515.210589,0 C506.839721,0 500,6.8325 500,15.171 L500,32.8605 C500,41.184 506.839721,48 515.210589,48 L532.69155,48 C541.062418,48 547.855467,41.184 547.903645,32.8605 L548,20.6085 C548,20.6085 548,19.0935 546.775986,18.5715" id="Blogger" sketch:type="MSShapeGroup"></path>
            </g>
        </g>
    </g>
</svg>