<?xml version="1.0" encoding="UTF-8" standalone="no"?>
<svg width="44px" height="45px" viewBox="0 0 44 45" version="1.1" xmlns="http://www.w3.org/2000/svg" xmlns:xlink="http://www.w3.org/1999/xlink" xmlns:sketch="http://www.bohemiancoding.com/sketch/ns">
    <!-- Generator: Sketch 3.4.4 (17249) - http://www.bohemiancoding.com/sketch -->
    <title>Buffer</title>
    <desc>Created with Sketch.</desc>
    <defs></defs>
    <g id="Icons" stroke="none" stroke-width="1" fill="none" fill-rule="evenodd" sketch:type="MSPage">
        <g id="Color" sketch:type="MSArtboardGroup" transform="translate(-403.000000, -502.000000)" fill="#333333">
            <g id="Line-4" sketch:type="MSLayerGroup" transform="translate(200.000000, 500.000000)">
                <path d="M246.541913,23.892424 L242.324111,21.9349056 C241.712671,21.6508405 241.006401,21.6494342 240.393546,21.9292806 L225.959604,28.5274674 C225.350995,28.8059076 224.650387,28.8059076 224.041778,28.5274674 L209.60642,21.9292806 C208.993565,21.6494342 208.287295,21.6508405 207.675855,21.9349056 L203.458053,23.892424 C202.845198,24.1764892 202.848028,25.0427473 203.462299,25.3239999 L224.041778,34.7319006 C224.650387,35.0103407 225.350995,35.0103407 225.959604,34.7319006 L246.537667,25.3239999 C247.151938,25.0427473 247.154768,24.1764892 246.541913,23.892424 L246.541913,23.892424 Z M246.541913,35.9516933 L242.324111,33.9941749 C241.712671,33.7101098 241.006401,33.7087035 240.393546,33.9885499 L225.959604,40.5867368 C225.350995,40.8651769 224.650387,40.8651769 224.041778,40.5867368 L209.60642,33.9885499 C208.993565,33.7087035 208.287295,33.7101098 207.675855,33.9941749 L203.458053,35.9516933 C202.845198,36.2357585 202.848028,37.1020166 203.462299,37.3832692 L224.041778,46.7911699 C224.650387,47.06961 225.350995,47.06961 225.959604,46.7911699 L246.537667,37.3832692 C247.151938,37.1020166 247.154768,36.2357585 246.541913,35.9516933 L246.541913,35.9516933 Z M223.879576,2.24679919 L203.458619,11.7264193 C202.845764,12.0104845 202.848595,12.8767426 203.462865,13.1579952 L224.040928,22.5658959 C224.649537,22.844336 225.350146,22.844336 225.958755,22.5658959 L246.538233,13.1579952 C247.152504,12.8767426 247.153919,12.0104845 246.542479,11.7264193 L226.121522,2.24679919 C225.411006,1.9177336 224.590092,1.9177336 223.879576,2.24679919 L223.879576,2.24679919 Z" id="Buffer" sketch:type="MSShapeGroup"></path>
            </g>
        </g>
    </g>
</svg>