<?xml version="1.0" encoding="UTF-8" standalone="no"?>
<svg width="48px" height="48px" viewBox="0 0 48 48" version="1.1" xmlns="http://www.w3.org/2000/svg" xmlns:xlink="http://www.w3.org/1999/xlink" xmlns:sketch="http://www.bohemiancoding.com/sketch/ns">
    <!-- Generator: Sketch 3.4.4 (17249) - http://www.bohemiancoding.com/sketch -->
    <title>Codepen</title>
    <desc>Created with Sketch.</desc>
    <defs></defs>
    <g id="Icons" stroke="none" stroke-width="1" fill="none" fill-rule="evenodd" sketch:type="MSPage">
        <g id="Color" sketch:type="MSArtboardGroup" transform="translate(-800.000000, -200.000000)" fill="#0B0B0A">
            <g id="Line-1" sketch:type="MSLayerGroup" transform="translate(200.000000, 200.000000)">
                <path d="M647.982,16.419 C647.9775,16.3875 647.97,16.359 647.9655,16.329 C647.955,16.2705 647.9445,16.212 647.9295,16.1565 C647.9205,16.122 647.907,16.089 647.8965,16.056 C647.88,16.005 647.8635,15.9555 647.844,15.906 C647.8305,15.8715 647.814,15.837 647.7975,15.8055 C647.7765,15.7575 647.754,15.7125 647.727,15.669 C647.709,15.636 647.688,15.6045 647.6685,15.573 C647.6415,15.5295 647.613,15.4875 647.5815,15.447 C647.559,15.417 647.535,15.387 647.511,15.3585 C647.478,15.3195 647.4435,15.282 647.4075,15.246 C647.3805,15.219 647.355,15.1905 647.3265,15.1665 C647.2875,15.132 647.2485,15.099 647.2095,15.0675 C647.178,15.0435 647.148,15.0195 647.1165,14.997 C647.1045,14.9895 647.094,14.979 647.082,14.9715 L625.1445,0.3465 C624.4515,-0.1155 623.55,-0.1155 622.8555,0.3465 L600.9195,14.9715 C600.9075,14.979 600.897,14.9895 600.885,14.997 C600.852,15.0195 600.822,15.0435 600.792,15.0675 C600.7515,15.099 600.7125,15.132 600.675,15.1665 C600.6465,15.1905 600.6195,15.219 600.5925,15.246 C600.5565,15.282 600.522,15.3195 600.4905,15.3585 C600.465,15.387 600.441,15.417 600.4185,15.447 C600.3885,15.4875 600.36,15.5295 600.333,15.573 C600.312,15.6045 600.2925,15.636 600.273,15.669 C600.2475,15.7125 600.225,15.7575 600.2025,15.8055 C600.1875,15.837 600.171,15.8715 600.1575,15.906 C600.1365,15.9555 600.12,16.005 600.1035,16.056 C600.093,16.089 600.081,16.122 600.072,16.1565 C600.057,16.212 600.0465,16.2705 600.036,16.329 C600.03,16.359 600.0225,16.3875 600.0195,16.419 C600.0075,16.506 600,16.596 600,16.6875 L600,31.3125 C600,31.4025 600.0075,31.4925 600.0195,31.5825 C600.0225,31.611 600.03,31.641 600.036,31.671 C600.0465,31.7295 600.057,31.7865 600.072,31.8435 C600.081,31.878 600.093,31.911 600.1035,31.944 C600.12,31.9935 600.1365,32.0445 600.1575,32.0955 C600.171,32.1285 600.1875,32.1615 600.2025,32.1945 C600.225,32.241 600.2475,32.286 600.273,32.3325 C600.2925,32.364 600.312,32.3955 600.333,32.427 C600.36,32.4705 600.3885,32.511 600.4185,32.5515 C600.441,32.583 600.465,32.613 600.4905,32.6415 C600.522,32.679 600.5565,32.718 600.5925,32.7525 C600.6195,32.781 600.6465,32.808 600.675,32.8335 C600.7125,32.868 600.7515,32.901 600.792,32.9325 C600.822,32.9565 600.852,32.9805 600.885,33.003 C600.897,33.0105 600.9075,33.021 600.9195,33.0285 L622.8555,47.6535 C623.202,47.8845 623.601,48 624,48 C624.399,48 624.798,47.8845 625.1445,47.6535 L647.082,33.0285 C647.094,33.021 647.1045,33.0105 647.1165,33.003 C647.148,32.9805 647.178,32.9565 647.2095,32.9325 C647.2485,32.901 647.2875,32.868 647.3265,32.8335 C647.355,32.808 647.3805,32.781 647.4075,32.7525 C647.4435,32.718 647.478,32.679 647.511,32.6415 C647.535,32.613 647.559,32.583 647.5815,32.5515 C647.613,32.511 647.6415,32.4705 647.6685,32.427 C647.688,32.3955 647.709,32.364 647.727,32.3325 C647.754,32.286 647.7765,32.241 647.7975,32.1945 C647.814,32.1615 647.8305,32.1285 647.844,32.0955 C647.8635,32.0445 647.88,31.9935 647.8965,31.944 C647.907,31.911 647.9205,31.878 647.9295,31.8435 C647.9445,31.7865 647.955,31.7295 647.9655,31.671 C647.97,31.641 647.9775,31.611 647.982,31.5825 C647.994,31.4925 648,31.4025 648,31.3125 L648,16.6875 C648,16.596 647.994,16.506 647.982,16.419 L647.982,16.419 L647.982,16.419 Z M626.0625,5.9175 L642.2235,16.6905 L635.0055,21.519 L626.0625,15.537 L626.0625,5.9175 L626.0625,5.9175 Z M621.9375,5.9175 L621.9375,15.537 L612.996,21.519 L605.7765,16.6905 L621.9375,5.9175 L621.9375,5.9175 Z M604.125,20.5485 L609.2865,24 L604.125,27.4515 L604.125,20.5485 L604.125,20.5485 Z M621.9375,42.0825 L605.7765,31.3095 L612.996,26.4825 L621.9375,32.463 L621.9375,42.0825 L621.9375,42.0825 Z M624,28.8795 L616.7055,24 L624,19.1205 L631.296,24 L624,28.8795 L624,28.8795 Z M626.0625,42.0825 L626.0625,32.463 L635.0055,26.4825 L642.2235,31.3095 L626.0625,42.0825 L626.0625,42.0825 Z M643.875,27.4515 L638.715,24 L643.875,20.5485 L643.875,27.4515 L643.875,27.4515 Z" id="Codepen" sketch:type="MSShapeGroup"></path>
            </g>
        </g>
    </g>
</svg>