<?xml version="1.0" encoding="UTF-8" standalone="no"?>
<svg width="46px" height="46px" viewBox="0 0 46 46" version="1.1" xmlns="http://www.w3.org/2000/svg" xmlns:xlink="http://www.w3.org/1999/xlink" xmlns:sketch="http://www.bohemiancoding.com/sketch/ns">
    <!-- Generator: Sketch 3.4.4 (17249) - http://www.bohemiancoding.com/sketch -->
    <title>Dribbble</title>
    <desc>Created with Sketch.</desc>
    <defs></defs>
    <g id="Icons" stroke="none" stroke-width="1" fill="none" fill-rule="evenodd" sketch:type="MSPage">
        <g id="Color" sketch:type="MSArtboardGroup" transform="translate(-601.000000, -201.000000)" fill="#EC4989">
            <g id="Line-1" sketch:type="MSLayerGroup" transform="translate(200.000000, 200.000000)">
                <path d="M434.977303,40.2902581 C434.777151,39.1057087 433.730405,33.3398201 431.152761,26.2622729 C437.495443,25.2481039 442.988828,26.9870657 443.394543,27.1195837 C442.520903,32.5933917 439.386076,37.312658 434.977303,40.2902581 L434.977303,40.2902581 L434.977303,40.2902581 Z M424.001352,43.6437768 C419.246369,43.6437768 414.886282,41.9534952 411.486388,39.1408666 C411.746046,39.3518137 411.927265,39.4843318 411.927265,39.4843318 C411.927265,39.4843318 415.692303,31.2736198 427.341742,27.2142395 C427.385018,27.1980128 427.430999,27.187195 427.474275,27.1736728 C430.238549,34.3539891 431.377256,40.3686872 431.669371,42.0860133 C429.313518,43.08666 426.719645,43.6437768 424.001352,43.6437768 L424.001352,43.6437768 L424.001352,43.6437768 Z M404.356618,23.9986478 C404.356618,23.7904051 404.367437,23.5848668 404.372846,23.3793286 C404.721762,23.3874419 414.426471,23.6065024 424.539601,20.5802222 C425.102193,21.6809336 425.640442,22.8032806 426.13271,23.9202187 C425.873052,23.9905344 425.616099,24.0689635 425.359146,24.1555059 C414.759158,27.5793403 409.382078,37.1152331 409.382078,37.1152331 C409.382078,37.1152331 409.390192,37.1233465 409.390192,37.1260509 C406.260775,33.645423 404.356618,29.0451526 404.356618,23.9986478 L404.356618,23.9986478 L404.356618,23.9986478 Z M415.619274,6.23852078 C415.881637,6.58739491 419.514141,11.5121994 422.914035,17.553942 C413.482507,20.0609677 405.295173,19.9609031 404.778562,19.9527897 C406.052508,13.8677759 410.139413,8.82397554 415.619274,6.23852078 L415.619274,6.23852078 L415.619274,6.23852078 Z M419.295055,4.9295667 C419.295055,4.93227115 419.29235,4.9349756 419.29235,4.9349756 C419.29235,4.9349756 419.268007,4.9403845 419.232845,4.9457934 C419.254483,4.9403845 419.273417,4.93768005 419.295055,4.9295667 L419.295055,4.9295667 L419.295055,4.9295667 Z M436.973423,9.26209654 C436.924737,9.3351167 434.128006,13.5946264 426.711531,16.3720971 C423.354913,10.2032453 419.665608,5.30278088 419.370788,4.91334 C420.855706,4.55364807 422.405539,4.35892763 424.001352,4.35892763 C428.972717,4.35892763 433.514024,6.21418073 436.973423,9.26209654 L436.973423,9.26209654 L436.973423,9.26209654 Z M443.637973,23.8039273 C443.353972,23.741725 436.705651,22.3110706 429.957253,23.1602681 C429.816605,22.8249162 429.678662,22.4868599 429.532604,22.1488036 C429.124184,21.1860192 428.683307,20.2340526 428.226201,19.2983127 C435.983477,16.131401 439.131828,11.5798107 439.169695,11.5257217 C441.923149,14.8711271 443.591992,19.144159 443.637973,23.8039273 L443.637973,23.8039273 L443.637973,23.8039273 Z M446.53478,19.3713328 C446.231846,17.8947028 445.777445,16.4370039 445.19051,15.0469163 C444.617099,13.6838732 443.900335,12.3695103 443.069971,11.1416897 C442.250426,9.92468693 441.303757,8.77799988 440.265126,7.73949086 C439.22379,6.69827738 438.079673,5.75442413 436.859822,4.93227115 C435.631857,4.09930037 434.31734,3.38802987 432.954137,2.80927744 C431.563885,2.22511611 430.10872,1.77076842 428.631916,1.4705744 C427.117246,1.15956258 425.559299,1 424.001352,1 C422.440701,1 420.882754,1.15956258 419.368084,1.4705744 C417.89128,1.77076842 416.436115,2.22511611 415.045863,2.80927744 C413.68266,3.38802987 412.368143,4.09930037 411.137473,4.93227115 C409.920327,5.75442413 408.77621,6.69827738 407.734874,7.73949086 C406.696243,8.77799988 405.752278,9.92468693 404.930029,11.1416897 C404.099665,12.3695103 403.382901,13.6838732 402.80949,15.0469163 C402.219851,16.4370039 401.768154,17.8947028 401.46522,19.3713328 C401.156877,20.8831207 401,22.4408842 401,23.9986478 C401,25.5618202 401.156877,27.1195837 401.46522,28.6340761 C401.768154,30.1107061 402.219851,31.5657005 402.80949,32.9530837 C403.382901,34.3161268 404.099665,35.6358986 404.930029,36.8637192 C405.752278,38.080722 406.696243,39.2220001 407.734874,40.265918 C408.77621,41.3044271 409.920327,42.2455759 411.137473,43.0704333 C412.368143,43.9006996 413.68266,44.6146746 415.045863,45.1907226 C416.436115,45.7802928 417.89128,46.2292316 419.368084,46.5294256 C420.882754,46.8431419 422.440701,47 424.001352,47 C425.559299,47 427.117246,46.8431419 428.631916,46.5294256 C430.10872,46.2292316 431.563885,45.7802928 432.954137,45.1907226 C434.31734,44.6146746 435.631857,43.9006996 436.859822,43.0704333 C438.079673,42.2455759 439.22379,41.3044271 440.265126,40.265918 C441.303757,39.2220001 442.250426,38.080722 443.069971,36.8637192 C443.900335,35.6358986 444.617099,34.3161268 445.19051,32.9530837 C445.777445,31.5657005 446.231846,30.1107061 446.53478,28.6340761 C446.843123,27.1195837 447,25.5618202 447,23.9986478 C447,22.4408842 446.843123,20.8831207 446.53478,19.3713328 L446.53478,19.3713328 L446.53478,19.3713328 Z" id="Dribbble" sketch:type="MSShapeGroup"></path>
            </g>
        </g>
    </g>
</svg>