<?xml version="1.0" encoding="UTF-8" standalone="no"?>
<svg width="40px" height="48px" viewBox="0 0 40 48" version="1.1" xmlns="http://www.w3.org/2000/svg" xmlns:xlink="http://www.w3.org/1999/xlink" xmlns:sketch="http://www.bohemiancoding.com/sketch/ns">
    <!-- Generator: Sketch 3.4.4 (17249) - http://www.bohemiancoding.com/sketch -->
    <title>Evernote</title>
    <desc>Created with Sketch.</desc>
    <defs></defs>
    <g id="Icons" stroke="none" stroke-width="1" fill="none" fill-rule="evenodd" sketch:type="MSPage">
        <g id="Color" sketch:type="MSArtboardGroup" transform="translate(-605.000000, -700.000000)" fill="#20C05C">
            <g id="Line-6" sketch:type="MSLayerGroup" transform="translate(203.000000, 700.000000)">
                <path d="M431.792989,22.7042314 C431.147558,22.6817316 430.526032,22.7222312 429.946339,22.8152304 C430.109191,21.4937425 430.653026,19.8707573 432.578862,19.9382567 C434.710876,20.013256 435.009687,22.0352375 435.017157,23.406225 C434.117737,23.0027287 433.004667,22.747731 431.792989,22.7042314 M440.909706,8.35086268 C440.552627,6.4353802 439.41864,5.49188883 438.392225,5.12139222 C437.286625,4.7193959 435.042556,4.3038997 432.223277,3.96940276 C429.955303,3.7024052 427.289911,3.72340501 425.679321,3.77290456 C425.486588,2.44391671 424.55878,1.23042781 423.518919,0.810431656 C420.751931,-0.308558108 416.474455,-0.0385605776 415.377819,0.270436596 C414.505292,0.514934359 413.538639,1.01742976 413.00078,1.7899227 C412.640713,2.30591798 412.40764,2.96891191 412.406146,3.89290346 C412.406146,4.41639867 412.421087,5.64788741 412.433039,6.74287739 C412.446486,7.84086735 412.461426,8.82335836 412.461426,8.83085829 C412.461426,9.80734936 411.671072,10.6038421 410.692467,10.6053421 L406.205823,10.6053421 C405.248134,10.6053421 404.516048,10.7673406 403.958766,11.0208383 C403.398496,11.2773359 403.002571,11.6208328 402.700773,12.0273291 C402.101657,12.8358217 401.997073,13.8318125 402.000061,14.8488032 C402.000061,14.8488032 402.009026,15.6812956 402.209229,17.2892809 C402.375069,18.5342695 403.719717,27.23269 404.997133,29.8771658 C405.491665,30.9061564 405.821851,31.3351524 406.79448,31.7881483 C408.962352,32.7211398 413.915141,33.7576303 416.235406,34.0546276 C418.552684,34.3516248 420.006398,34.9771191 420.87295,33.1531358 C420.875938,33.1486358 421.04626,32.69864 421.280826,32.040146 C422.033829,29.7511669 422.138413,27.7201855 422.138413,26.2516989 C422.138413,26.1017003 422.356545,26.0957004 422.356545,26.2516989 C422.356545,27.2881895 422.15933,30.9601559 424.921836,31.9456469 C426.012495,32.3341433 428.274492,32.6791401 430.572347,32.9506377 C432.650576,33.1906355 434.159571,34.011128 434.159571,39.364579 C434.159571,42.6210492 433.478282,43.0680451 429.916458,43.0680451 C427.028451,43.0680451 425.927334,43.1430444 425.927334,40.8405655 C425.927334,38.9790825 427.762032,39.1740807 429.120127,39.1740807 C429.728207,39.1740807 429.287461,38.7210849 429.287461,37.5720954 C429.287461,36.4291058 429.998631,35.7691119 429.326306,35.752612 C424.626013,35.6221132 421.860519,35.7466121 421.860519,41.6475581 C421.860519,47.0055091 423.902891,48 430.572347,48 C435.80303,48 437.646692,47.8275016 439.8056,41.1015631 C440.232899,39.7725753 441.266785,35.7211123 441.891299,28.9156746 C442.287224,24.6137139 441.51928,11.6283327 440.909706,8.35086268 M405.995161,9.29735402 L405.998149,9.29735402 L410.484793,9.29735402 C410.74177,9.29735402 410.949444,9.08585596 410.949444,8.83085829 C410.949444,8.82935831 410.895658,4.96839362 410.895658,3.89440345 L410.895658,3.88090357 C410.895658,2.99891164 411.079427,2.23091866 411.400648,1.58592456 L411.554536,1.2979272 C411.536607,1.29942718 411.520172,1.3084271 411.502244,1.32492695 L402.78444,10.0053475 C402.768005,10.0188474 402.756053,10.0383472 402.75157,10.0563471 C402.932351,9.9663479 403.17887,9.84484902 403.213233,9.82984915 C403.972212,9.48485231 404.89255,9.29735402 405.995161,9.29735402" id="Evernote" sketch:type="MSShapeGroup"></path>
            </g>
        </g>
    </g>
</svg>