<?xml version="1.0" encoding="UTF-8" standalone="no"?>
<svg width="56px" height="48px" viewBox="0 0 56 48" version="1.1" xmlns="http://www.w3.org/2000/svg" xmlns:xlink="http://www.w3.org/1999/xlink" xmlns:sketch="http://www.bohemiancoding.com/sketch/ns">
    <!-- Generator: Sketch 3.4.4 (17249) - http://www.bohemiancoding.com/sketch -->
    <title>Feedly</title>
    <desc>Created with Sketch.</desc>
    <defs></defs>
    <g id="Icons" stroke="none" stroke-width="1" fill="none" fill-rule="evenodd" sketch:type="MSPage">
        <g id="Color" sketch:type="MSArtboardGroup" transform="translate(-696.000000, -700.000000)" fill="#83C423">
            <g id="Line-6" sketch:type="MSLayerGroup" transform="translate(203.000000, 700.000000)">
                <path d="M524.410375,28.0304549 C521.766919,30.6453508 519.11489,33.2568507 516.486862,35.8887264 C515.749711,36.7852621 514.450269,36.5016987 513.438829,36.4184975 C512.46339,35.7970352 511.705668,34.8784257 510.922231,34.0413194 C510.399368,33.550602 510.887945,32.9087639 511.290806,32.5403013 C513.937692,29.9288014 516.581149,27.3173015 519.21432,24.6922177 C519.694325,24.228668 520.128044,23.6955009 520.709193,23.3440182 C521.292056,23.0961125 521.717204,23.6836151 522.104636,24.013024 C522.984074,24.9469154 523.986942,25.7687398 524.789237,26.7688526 C525.142383,27.2154225 524.732665,27.7146298 524.410375,28.0304549 M524.688093,40.3866869 C523.947513,41.2119073 523.174362,42.0218458 522.30521,42.7112274 C521.506344,42.9014017 520.657764,42.8572541 519.850327,42.7417911 C519.073747,42.3529527 518.54917,41.6058396 517.913163,41.0302229 C517.460587,40.593841 516.752579,39.938419 517.335442,39.3084668 C518.319453,38.2251528 519.372036,37.1910804 520.460619,36.2062495 C520.865195,35.8683506 521.470344,36.036451 521.797776,36.4032156 C522.728643,37.2946574 523.644082,38.201381 524.542377,39.1284805 C524.895524,39.4392116 525.08924,40.0284122 524.688093,40.3866869 M510.080507,29.538265 C509.314213,30.4415927 507.96677,30.2038749 506.929616,30.0442643 C506.015892,29.319225 505.179312,28.4787228 504.442161,27.5804891 C504.015299,27.0829797 504.562162,26.5650945 504.89988,26.2136117 C509.542216,21.635846 514.167408,17.0377044 518.801172,12.4531467 C519.423465,11.8520603 519.987471,11.1847524 520.686907,10.6702632 C521.288628,10.3714179 521.753204,11.016652 522.154351,11.3596448 C523.00636,12.2595765 523.971514,13.0576291 524.753236,14.0203863 C525.156098,14.4975199 524.713807,15.0510627 524.360661,15.3923576 C519.59661,20.1025661 514.82913,24.8127746 510.080507,29.538265 M545.316314,21.6001883 C539.040247,15.3821697 532.762465,9.16754705 526.491541,2.94783046 C525.574388,2.05469071 524.712093,1.03590011 523.501794,0.524806832 C522.300067,-0.0406219489 520.906338,-0.122125197 519.615467,0.15125028 C518.48574,0.407645913 517.465729,1.02061825 516.649721,1.82885879 C509.593645,8.81946026 502.535855,15.8117597 495.476351,22.8006632 C494.66377,23.6038098 494.029478,24.6073185 493.770618,25.7228942 C493.191183,27.7316097 493.918048,29.9831369 495.40435,31.4298195 C500.37926,36.359068 505.359314,41.2832226 510.33251,46.2158671 C511.443379,47.3382347 513.010253,47.9919587 514.599413,47.9732808 C518.669171,47.9970526 522.737215,47.9698849 526.805258,47.9868647 C528.636135,48.1023276 530.487584,47.4536976 531.783598,46.1547396 C536.292217,41.7026247 540.787123,37.23353 545.294028,32.7780191 C546.02775,32.0410939 546.823188,31.3500143 547.42148,30.4942302 C548.518634,28.9286886 548.700351,26.8180941 548.059201,25.0437005 C547.558624,23.6190917 546.355183,22.6359587 545.316314,21.6001883" id="Feedly" sketch:type="MSShapeGroup"></path>
            </g>
        </g>
    </g>
</svg>