<?xml version="1.0" encoding="UTF-8" standalone="no"?>
<svg width="34px" height="48px" viewBox="0 0 34 48" version="1.1" xmlns="http://www.w3.org/2000/svg" xmlns:xlink="http://www.w3.org/1999/xlink" xmlns:sketch="http://www.bohemiancoding.com/sketch/ns">
    <!-- Generator: Sketch 3.4.4 (17249) - http://www.bohemiancoding.com/sketch -->
    <title>Foursquare</title>
    <desc>Created with Sketch.</desc>
    <defs></defs>
    <g id="Icons" stroke="none" stroke-width="1" fill="none" fill-rule="evenodd" sketch:type="MSPage">
        <g id="Color" sketch:type="MSArtboardGroup" transform="translate(-707.000000, -800.000000)" fill="#FA4778">
            <g id="Line-7" sketch:type="MSLayerGroup" transform="translate(200.000000, 800.000000)">
                <path d="M535.328312,6.93131593 L534.191268,12.4829036 C534.061353,13.0742217 533.509049,13.5998146 532.82683,13.5998146 L522.9509,13.5998146 C521.846334,13.5998146 520.936722,14.5195917 520.936722,15.6365026 L520.936722,16.8519387 C520.936722,17.9688496 521.846334,18.8886267 522.9509,18.8886267 L531.299999,18.8886267 C532.079696,18.8886267 532.729394,19.6441534 532.566959,20.4654053 C532.404524,21.3195407 531.527433,25.6556923 531.429914,26.1155599 C531.364957,26.6083111 530.845173,27.2324709 530.065477,27.2324709 L523.243291,27.2324709 C521.813855,27.2653126 521.521505,27.2981543 520.676851,28.3493401 C519.832198,29.4005258 512.360272,38.8612809 512.360272,38.8612809 C512.295314,38.9598061 512.230357,38.9269643 512.230357,38.8284392 L512.230357,6.66849864 C512.230357,5.91301366 512.847576,5.28881214 513.594794,5.28881214 L534.093873,5.28881214 C534.80857,5.28881214 535.523267,6.01153885 535.328312,6.93131593 M536.822706,3.55271368e-15 L511.515618,3.55271368e-15 C508.039567,3.55271368e-15 507,2.6608478 507,4.33619332 L507,45.0041032 C507,47.0079077 508.007089,47.5992258 508.559351,47.8291179 C509.111655,48.0590518 510.573528,48.2233439 511.613095,47.1721164 C511.613095,47.1721164 523.63316,33.013909 523.828073,32.7839751 C524.022987,32.5539996 524.120423,32.5539996 524.250379,32.5539996 L531.852221,32.5539996 C535.10092,32.5539996 535.71814,30.2873777 536.075489,28.9076912 C536.36788,27.7579385 539.713974,11.3331093 540.753541,6.14286404 C541.533279,2.13525493 540.52619,3.55271368e-15 536.822706,3.55271368e-15" id="Foursquare" sketch:type="MSShapeGroup"></path>
            </g>
        </g>
    </g>
</svg>