<?xml version="1.0" encoding="UTF-8" standalone="no"?>
<svg width="48px" height="47px" viewBox="0 0 48 47" version="1.1" xmlns="http://www.w3.org/2000/svg" xmlns:xlink="http://www.w3.org/1999/xlink" xmlns:sketch="http://www.bohemiancoding.com/sketch/ns">
    <!-- Generator: Sketch 3.4.4 (17249) - http://www.bohemiancoding.com/sketch -->
    <title>Github</title>
    <desc>Created with Sketch.</desc>
    <defs></defs>
    <g id="Icons" stroke="none" stroke-width="1" fill="none" fill-rule="evenodd" sketch:type="MSPage">
        <g id="Color" sketch:type="MSArtboardGroup" transform="translate(-700.000000, -600.000000)" fill="#3E75C3">
            <g id="Line-5" sketch:type="MSLayerGroup" transform="translate(204.000000, 600.000000)">
                <path d="M519.9985,0 C506.746,0 496,10.7870921 496,24.096644 C496,34.7406712 502.876,43.7718301 512.4145,46.9584121 C513.6145,47.1797862 514.0525,46.4358488 514.0525,45.7973276 C514.0525,45.2250681 514.0315,43.7100863 514.0195,41.6996482 C507.343,43.1558981 505.9345,38.4693938 505.9345,38.4693938 C504.844,35.6864054 503.2705,34.9454799 503.2705,34.9454799 C501.091,33.4500754 503.4355,33.4801943 503.4355,33.4801943 C505.843,33.6503662 507.1105,35.9634994 507.1105,35.9634994 C509.2525,39.6455377 512.728,38.5823398 514.096,37.9649018 C514.3135,36.4077535 514.9345,35.3460615 515.62,34.7436831 C510.2905,34.1352808 504.688,32.0691228 504.688,22.8361671 C504.688,20.2052792 505.6225,18.0547881 507.1585,16.3696344 C506.911,15.7597262 506.0875,13.3110578 507.3925,9.99345849 C507.3925,9.99345849 509.4085,9.34590166 513.9925,12.4632101 C515.908,11.9285993 517.96,11.6620468 520.0015,11.6515052 C522.04,11.6620468 524.0935,11.9285993 526.0105,12.4632101 C530.5915,9.34590166 532.603,9.99345849 532.603,9.99345849 C533.9125,13.3110578 533.089,15.7597262 532.8415,16.3696344 C534.3805,18.0547881 535.309,20.2052792 535.309,22.8361671 C535.309,32.0917119 529.6975,34.1292571 524.3515,34.7256117 C525.2125,35.4695491 525.9805,36.9393525 525.9805,39.1877301 C525.9805,42.4089489 525.9505,45.0067059 525.9505,45.7973276 C525.9505,46.4418726 526.3825,47.1918338 527.6005,46.9554002 C537.13,43.7627944 544,34.7376593 544,24.096644 C544,10.7870921 533.254,0 519.9985,0" id="Github" sketch:type="MSShapeGroup"></path>
            </g>
        </g>
    </g>
</svg>