<?xml version="1.0" encoding="UTF-8" standalone="no"?>
<svg width="41px" height="48px" viewBox="0 0 41 48" version="1.1" xmlns="http://www.w3.org/2000/svg" xmlns:xlink="http://www.w3.org/1999/xlink" xmlns:sketch="http://www.bohemiancoding.com/sketch/ns">
    <!-- Generator: Sketch 3.4.4 (17249) - http://www.bohemiancoding.com/sketch -->
    <title>Hanghout</title>
    <desc>Created with Sketch.</desc>
    <defs></defs>
    <g id="Icons" stroke="none" stroke-width="1" fill="none" fill-rule="evenodd" sketch:type="MSPage">
        <g id="Color" sketch:type="MSArtboardGroup" transform="translate(-504.000000, -900.000000)" fill="#7EB949">
            <g id="Line-8" sketch:type="MSLayerGroup" transform="translate(205.000000, 900.000000)">
                <path d="M339.68161,16.9321089 C338.956147,12.9602347 337.224179,9.4909743 334.488303,6.53032658 C333.333485,5.28044341 332.039444,4.19435962 330.611376,3.27233603 C327.951085,1.55505081 325.05313,0.502874531 321.910496,0.130152692 C321.527375,0.0845079607 321.138799,0.0905069826 320.761132,0 L318.049673,0 C318.020322,0.0685975113 317.957464,0.0435581155 317.907593,0.0482530022 C317.209403,0.11006901 316.51459,0.189882084 315.825491,0.321078085 C310.789849,1.27883497 306.654476,3.76164756 303.45366,7.77212411 C300.820903,11.070282 299.371016,14.853839 299.057766,19.0724556 C298.906076,21.1170787 299.05309,23.1426615 299.499329,25.1413791 C299.830762,26.6280932 300.325832,28.0644677 300.991294,29.4374613 C301.049737,29.5543118 301.1074,29.6711623 301.166881,29.7880128 C302.26014,31.9497473 303.66639,33.8762158 305.428748,35.5400315 C306.356551,36.4158887 307.348251,37.2082813 308.42177,37.8929522 C311.711158,39.98948 315.301849,41.0888659 319.202673,41.1379014 C319.442156,41.1412922 319.507352,41.2004999 319.505793,41.446199 C319.494884,43.5427267 319.499559,45.6395153 319.500079,47.7363039 C319.500339,47.8176819 319.506572,47.8987991 319.511248,48 C319.578781,47.9723523 319.621119,47.9567027 319.661899,47.9374015 C323.583243,46.0873553 327.183804,43.7495626 330.393711,40.8191708 C331.032419,40.2362224 331.643595,39.6253654 332.231394,38.9892083 C332.483086,38.7171657 332.732699,38.4404282 332.984909,38.1686464 C333.374524,37.7502798 333.711671,37.2828778 334.078948,36.8423409 C334.503109,36.3342499 334.883892,35.7940771 335.259481,35.2505135 C336.08988,34.0491442 336.831447,32.7958702 337.454831,31.4719122 C337.770159,30.80263 338.070423,30.1281313 338.33614,29.4377221 C338.344971,29.4246808 338.356919,29.4132044 338.362634,29.3991197 C339.086798,27.5086453 339.550959,25.5524425 339.797975,23.5453785 C339.88421,22.846362 339.940055,22.1429115 339.97538,21.4399826 C340.050705,19.9264033 339.953301,18.4214313 339.68161,16.9321089 L339.68161,16.9321089 Z M312.208307,29.7554094 C311.930901,29.7960985 311.75012,29.641428 311.646742,29.3902516 C311.647781,28.6153345 311.64856,27.8414606 311.649599,27.0668043 C311.663106,26.8388415 311.571676,26.5944466 311.753496,26.3933489 C311.843627,26.293713 311.945706,26.2253763 312.08363,26.1909471 C312.487531,26.0887029 312.896886,26.0070641 313.264682,25.7866652 C313.942093,25.3805575 314.363656,24.7944792 314.550671,24.0305168 C314.579763,23.9102755 314.607555,23.7892518 314.635348,23.6684888 C313.008835,23.6653589 311.382843,23.6624898 309.75633,23.6604032 C309.61555,23.6601424 309.476847,23.6551867 309.339702,23.6171059 C308.925152,23.5018204 308.607746,23.1220562 308.607226,22.6924741 C308.604109,20.2229636 308.609044,17.7531924 308.610863,15.283682 C308.576836,14.8890507 308.611122,14.519198 308.941516,14.2372439 C309.120998,14.0846601 309.318143,13.9923273 309.55399,13.9923273 C311.945446,13.9918057 314.336903,13.9936315 316.728359,13.9910232 C317.361353,13.9899799 317.717461,14.1883981 317.717461,15.283682 C317.717461,15.4659041 317.737981,21.0075314 317.717461,23.6984839 C317.704214,25.4843667 317.011739,26.9862088 315.709905,28.2040102 C315.641853,28.2673912 315.576138,28.3333804 315.509643,28.3980655 C314.83535,28.9171113 314.105471,29.3268706 313.277929,29.5517035 C312.925977,29.6476879 312.567012,29.7027224 312.208307,29.7554094 Z M326.417042,29.4056404 C326.399899,29.4155518 326.382496,29.4254632 326.365353,29.4351138 C325.90249,29.5665707 325.435472,29.6755964 324.958064,29.745498 C324.593904,29.7992284 324.318576,29.5926534 324.31416,29.2248872 C324.310524,28.9671901 324.308706,28.7089714 324.306628,28.4510134 C324.311043,27.9890887 324.315459,27.527164 324.319875,27.0655002 C324.317797,26.9635168 324.31416,26.8623159 324.31442,26.7608542 C324.31494,26.4061294 324.450785,26.2564147 324.890011,26.1557355 C325.446901,26.0276694 325.970803,25.8471771 326.404314,25.443156 C326.92458,24.9580177 327.18718,24.3523773 327.306662,23.6679672 C325.804307,23.6648373 324.302472,23.662229 322.799597,23.6593599 C322.636219,23.6590991 322.472581,23.6614465 322.308942,23.6585774 C321.695429,23.6484052 321.275424,23.2224746 321.275424,22.6030104 C321.276203,20.1640167 321.27958,17.7252839 321.281138,15.2860295 C321.281138,15.262555 321.278541,15.2390806 321.276982,15.2156062 C321.229709,14.7591588 321.36036,14.3851329 321.764261,14.131609 C321.921146,14.0324947 322.091797,13.9918057 322.272319,13.9918057 C324.64793,13.9905015 327.023282,13.9925882 329.399154,13.9897191 C330.031888,13.9889366 330.391892,14.5498603 330.391892,15.2860294 C330.391892,15.6248456 330.39423,21.0145737 330.391893,23.710482 C330.389815,26.118698 328.88694,28.3722437 326.67185,29.2973972 C326.616005,29.3213933 326.562758,29.3524317 326.508212,29.3800793 C326.547693,29.4291148 326.594966,29.4426778 326.644057,29.4445036 C326.594966,29.4429387 326.547433,29.4291148 326.508212,29.3800793 C326.508212,29.3800793 326.447951,29.3967723 326.417042,29.4056404 Z" id="Hanghout" sketch:type="MSShapeGroup"></path>
            </g>
        </g>
    </g>
</svg>