<?xml version="1.0" encoding="UTF-8" standalone="no"?>
<svg width="48px" height="48px" viewBox="0 0 48 48" version="1.1" xmlns="http://www.w3.org/2000/svg" xmlns:xlink="http://www.w3.org/1999/xlink" xmlns:sketch="http://www.bohemiancoding.com/sketch/ns">
    <!-- Generator: Sketch 3.4.4 (17249) - http://www.bohemiancoding.com/sketch -->
    <title>Invision</title>
    <desc>Created with Sketch.</desc>
    <defs></defs>
    <g id="Icons" stroke="none" stroke-width="1" fill="none" fill-rule="evenodd" sketch:type="MSPage">
        <g id="Color" sketch:type="MSArtboardGroup" transform="translate(-400.000000, -300.000000)" fill="#FF2A63">
            <g id="Line-2" sketch:type="MSLayerGroup" transform="translate(201.000000, 300.000000)">
                <path d="M242.648727,0 L203.351273,0 C200.948182,0 199,1.94818182 199,4.35127273 L199,43.6487273 C199,46.0518182 200.948182,48 203.351273,48 L242.648727,48 C245.051818,48 247,46.0518182 247,43.6487273 L247,4.35127273 C247,1.94818182 245.051818,0 242.648727,0 L242.648727,0 Z M215.041636,15.1021818 C216.637273,15.1021818 217.973818,13.8514545 217.973818,12.2123636 C217.973818,10.5743636 216.637273,9.324 215.041636,9.324 C213.446,9.324 212.109636,10.5743636 212.109636,12.2123636 C212.109636,13.8514545 213.446,15.1021818 215.041636,15.1021818 L215.041636,15.1021818 Z M208.961636,30.5747273 C208.789455,31.3078182 208.702909,32.0994545 208.702909,32.7452727 C208.702909,35.2898182 210.082727,36.9790909 213.015091,36.9790909 C215.447091,36.9790909 217.418545,35.5347273 218.838,33.2029091 L217.971273,36.6816364 L222.800364,36.6816364 L225.560364,25.6118182 C226.250182,22.8089091 227.586909,21.3541818 229.613818,21.3541818 C231.209273,21.3541818 232.201091,22.3463636 232.201091,23.9843636 C232.201091,24.4590909 232.157818,24.976 231.985455,25.5367273 L230.562182,30.6249091 C230.346545,31.358 230.260727,32.0916364 230.260727,32.7809091 C230.260727,35.1965455 231.683455,36.9634545 234.658727,36.9634545 C237.202909,36.9634545 239.229455,35.3256364 240.350727,31.4014545 L238.453636,30.6689091 C237.504727,33.298 236.685455,33.7732727 236.038727,33.7732727 C235.391818,33.7732727 235.046727,33.3423636 235.046727,32.4803636 C235.046727,32.0923636 235.133273,31.6616364 235.262364,31.1430909 L236.642545,26.1858182 C236.987273,25.0218182 237.116909,23.9896364 237.116909,23.0412727 C237.116909,19.3329091 234.874364,17.3976364 232.157818,17.3976364 C229.613818,17.3976364 227.026364,19.6923636 225.733091,22.1074545 L226.681455,17.7725455 L219.308,17.7725455 L218.272909,21.5907273 L221.722727,21.5907273 L219.598545,30.0958182 C217.930182,33.8041818 214.865818,33.8643636 214.481273,33.7781818 C213.849818,33.6358182 213.446,33.396 213.446,32.5754545 C213.446,32.102 213.532182,31.422 213.747818,30.602 L216.982182,17.7725455 L208.789455,17.7725455 L207.754364,21.5907273 L211.160727,21.5907273 L208.961636,30.5747273 L208.961636,30.5747273 Z" id="Invision" sketch:type="MSShapeGroup"></path>
            </g>
        </g>
    </g>
</svg>