<?xml version="1.0" encoding="UTF-8" standalone="no"?>
<svg width="48px" height="27px" viewBox="0 0 48 27" version="1.1" xmlns="http://www.w3.org/2000/svg" xmlns:xlink="http://www.w3.org/1999/xlink" xmlns:sketch="http://www.bohemiancoding.com/sketch/ns">
    <!-- Generator: Sketch 3.4.4 (17249) - http://www.bohemiancoding.com/sketch -->
    <title>Fill 84</title>
    <desc>Created with Sketch.</desc>
    <defs></defs>
    <g id="Icons" stroke="none" stroke-width="1" fill="none" fill-rule="evenodd" sketch:type="MSPage">
        <g id="Color" sketch:type="MSArtboardGroup" transform="translate(-500.000000, -811.000000)" fill="#BC0000">
            <g id="Line-7" sketch:type="MSLayerGroup" transform="translate(200.000000, 800.000000)">
                <path d="M321.168,35.0491056 L319.4085,30.2058724 C319.4085,30.2058724 316.5495,33.4346946 312.261,33.4346946 C308.4675,33.4346946 305.7735,30.0950051 305.7735,24.7505906 C305.7735,17.9026325 309.1815,15.4544381 312.5355,15.4544381 C317.3745,15.4544381 318.9135,18.6270672 320.2335,22.6911914 L321.993,28.2573405 C323.7525,33.657948 327.051,38 336.5625,38 C343.3815,38 348,35.8844077 348,30.3182585 C348,25.8091461 345.4695,23.4703004 340.7415,22.3570705 L337.2225,21.5779615 C334.803,21.0205872 334.089,20.0182248 334.089,18.3491394 C334.089,16.4552818 335.5725,15.342052 337.992,15.342052 C340.632,15.342052 342.0615,16.3444144 342.2805,18.7379345 L347.7795,18.0696929 C347.34,13.0593993 343.9305,11 338.322,11 C333.3735,11 328.536,12.8923388 328.536,18.961188 C328.536,22.7458657 330.3495,25.1409045 334.9125,26.2541343 L338.652,27.1441107 C341.457,27.8123523 342.39,28.9817752 342.39,30.5961863 C342.39,32.6555856 340.4115,33.4908876 336.672,33.4908876 C331.119,33.4908876 328.8105,30.5399933 327.4905,26.4758691 L325.6755,20.9097199 C323.367,13.6729666 319.683,11 312.3705,11 C304.2885,11 300,16.177354 300,24.9738441 C300,33.4346946 304.2885,38 311.9865,38 C318.198,38 321.168,35.0491056 321.168,35.0491056" id="Fill-84" sketch:type="MSShapeGroup"></path>
            </g>
        </g>
    </g>
</svg>