<?xml version="1.0" encoding="UTF-8" standalone="no"?>
<svg width="48px" height="38px" viewBox="0 0 48 38" version="1.1" xmlns="http://www.w3.org/2000/svg" xmlns:xlink="http://www.w3.org/1999/xlink" xmlns:sketch="http://www.bohemiancoding.com/sketch/ns">
    <!-- Generator: Sketch 3.4.4 (17249) - http://www.bohemiancoding.com/sketch -->
    <title>Medium</title>
    <desc>Created with Sketch.</desc>
    <defs></defs>
    <g id="Icons" stroke="none" stroke-width="1" fill="none" fill-rule="evenodd" sketch:type="MSPage">
        <g id="Color" sketch:type="MSArtboardGroup" transform="translate(-700.000000, -505.000000)" fill="#0B0B0A">
            <g id="Line-4" sketch:type="MSLayerGroup" transform="translate(200.000000, 500.000000)">
                <path d="M548,37.4 L546.1016,37.4 C545.3968,37.4 544.4,36.38328 544.4,35.73236 L544.4,12.14 C544.4,11.48828 545.3968,10.6 546.1016,10.6 L548,10.6 L548,5 L530.8,5 L530.8,10.6 L534.4,10.6 L534.4,35.4 L534.2236,35.4 L525.81688,5 L519.30828,5 L511.01,35.4 L510.8,35.4 L510.8,10.6 L514.4,10.6 L514.4,5 L500,5 L500,10.6 L501.843908,10.6 C502.60328,10.6 503.6,11.48828 503.6,12.14 L503.6,35.73236 C503.6,36.38328 502.60328,37.4 501.843908,37.4 L500,37.4 L500,43 L518.00656,43 L523.91844,21 L524.08108,21 L530.04764,43 L548,43 L548,37.4" id="Medium" sketch:type="MSShapeGroup" transform="translate(524.000000, 24.000000) scale(1, -1) translate(-524.000000, -24.000000) "></path>
            </g>
        </g>
    </g>
</svg>