<?xml version="1.0" encoding="UTF-8" standalone="no"?>
<svg width="48px" height="48px" viewBox="0 0 48 48" version="1.1" xmlns="http://www.w3.org/2000/svg" xmlns:xlink="http://www.w3.org/1999/xlink" xmlns:sketch="http://www.bohemiancoding.com/sketch/ns">
    <!-- Generator: Sketch 3.4.4 (17249) - http://www.bohemiancoding.com/sketch -->
    <title>Messenger</title>
    <desc>Created with Sketch.</desc>
    <defs></defs>
    <g id="Icons" stroke="none" stroke-width="1" fill="none" fill-rule="evenodd" sketch:type="MSPage">
        <g id="Color" sketch:type="MSArtboardGroup" transform="translate(-300.000000, -900.000000)" fill="#007FFF">
            <g id="Line-8" sketch:type="MSLayerGroup" transform="translate(205.000000, 900.000000)">
                <path d="M119,0 C105.745143,0 95,9.94918519 95,22.2222222 C95,29.2155556 98.4899876,35.4534815 103.944099,39.526963 L103.944099,48 L112.115876,43.5151111 C114.296745,44.1186667 116.607155,44.4444444 119,44.4444444 C132.254857,44.4444444 143,34.4952593 143,22.2222222 C143,9.94918519 132.254857,0 119,0 L119,0 Z M121.385093,29.9259259 L115.273292,23.4074074 L103.347826,29.9259259 L116.465839,16 L122.726708,22.5185185 L134.503106,16 L121.385093,29.9259259 L121.385093,29.9259259 Z" id="Messenger" sketch:type="MSShapeGroup"></path>
            </g>
        </g>
    </g>
</svg>