<?xml version="1.0" encoding="UTF-8" standalone="no"?>
<svg width="41px" height="48px" viewBox="0 0 41 48" version="1.1" xmlns="http://www.w3.org/2000/svg" xmlns:xlink="http://www.w3.org/1999/xlink" xmlns:sketch="http://www.bohemiancoding.com/sketch/ns">
    <!-- Generator: Sketch 3.4.4 (17249) - http://www.bohemiancoding.com/sketch -->
    <title>Paypal</title>
    <desc>Created with Sketch.</desc>
    <defs></defs>
    <g id="Icons" stroke="none" stroke-width="1" fill="none" fill-rule="evenodd" sketch:type="MSPage">
        <g id="Color" sketch:type="MSArtboardGroup" transform="translate(-804.000000, -700.000000)" fill="#022B87">
            <g id="Line-6" sketch:type="MSLayerGroup" transform="translate(203.000000, 700.000000)">
                <path d="M635.91167,3.61944345 C633.67088,1.08598303 629.621734,0 624.440097,0 L609.404732,0 C608.344818,0 607.443663,0.764988047 607.277343,1.80147185 L601.016136,41.1938563 C600.892151,41.9708442 601.498465,42.6743332 602.292267,42.6743332 L611.574458,42.6743332 L613.905967,28.0045624 L613.833391,28.4635553 C613.999712,27.4270715 614.894818,26.6620834 615.95322,26.6620834 L620.363735,26.6620834 C629.030541,26.6620834 635.814901,23.170138 637.797138,13.0692958 C637.856106,12.7693005 637.951363,12.1948095 637.951363,12.1948095 C638.513828,8.45686786 637.946827,5.92040749 635.91167,3.61944345 Z M640.301017,14.1080296 C638.144899,24.0528742 631.27133,29.3162919 620.363735,29.3162919 L616.408334,29.3162919 L613.458414,48 L619.873846,48 C620.800704,48 621.588458,47.3310105 621.733611,46.4235246 L621.809211,46.0275308 L623.284927,36.7546757 L623.380183,36.2431837 C623.523823,35.3356979 624.313089,34.6667083 625.238435,34.6667083 L626.410238,34.6667083 C633.989913,34.6667083 639.92604,31.6112561 641.660308,22.7763941 C642.35583,19.2304495 642.021677,16.257496 640.301017,14.1080296 Z" id="Paypal" sketch:type="MSShapeGroup"></path>
            </g>
        </g>
    </g>
</svg>