<?xml version="1.0" encoding="UTF-8" standalone="no"?>
<svg width="48px" height="47px" viewBox="0 0 48 47" version="1.1" xmlns="http://www.w3.org/2000/svg" xmlns:xlink="http://www.w3.org/1999/xlink" xmlns:sketch="http://www.bohemiancoding.com/sketch/ns">
    <!-- Generator: Sketch 3.4.4 (17249) - http://www.bohemiancoding.com/sketch -->
    <title>Shape</title>
    <desc>Created with Sketch.</desc>
    <defs></defs>
    <g id="Icons" stroke="none" stroke-width="1" fill="none" fill-rule="evenodd" sketch:type="MSPage">
        <g id="Color" sketch:type="MSArtboardGroup" transform="translate(-600.000000, -901.000000)" fill="#2861D3">
            <g id="Line-7" sketch:type="MSLayerGroup" transform="translate(200.000000, 800.000000)">
                <path d="M400,101 L448,101 L448,148 L400,148 L400,101 L400,101 Z M433.119995,119.887856 C431.396328,119.887856 430.807317,120.76633 430.807317,121.491087 C430.807317,122.281722 431.199991,122.830802 433.512757,124.038759 C436.938187,125.707957 438.007308,127.311188 438.007308,129.661223 C438.007308,133.175208 435.345499,135.064002 431.74546,135.064002 C429.847271,135.064002 428.210866,134.66864 427.272723,134.11965 C427.120017,134.053771 427.098201,133.943972 427.098201,133.768207 L427.098201,130.539697 C427.098201,130.320101 427.207278,130.254133 427.360072,130.36402 C428.734607,131.264542 430.305479,131.659816 431.74546,131.659816 C433.469126,131.659816 434.189117,130.935059 434.189117,129.946699 C434.189117,129.156063 433.687278,128.453266 431.483589,127.311188 C428.385388,125.817755 427.098201,124.302363 427.098201,121.776651 C427.098201,118.943415 429.301891,116.593468 433.119995,116.593468 C434.996368,116.593468 436.305457,116.879032 437.025447,117.208426 C437.199969,117.318224 437.2436,117.493902 437.2436,117.647619 L437.2436,120.656444 C437.2436,120.832121 437.134524,120.942007 436.916283,120.87604 C435.956326,120.261259 434.53816,119.887856 433.119995,119.887856 L433.119995,119.887856 L433.119995,119.887856 Z M414.356352,122.501407 C414.85819,122.545327 415.250952,122.545327 416.123649,122.545327 C418.67647,122.545327 421.076408,121.644893 421.076408,118.152868 C421.076408,115.36364 419.352742,113.957957 416.450965,113.957957 C415.578268,113.957957 414.749114,114.001876 414.356352,114.023836 L414.356352,122.501407 L414.356352,122.501407 Z M410.472802,110.839246 C410.472802,110.685528 410.778304,110.575642 410.952737,110.575642 C412.349176,110.509763 414.421886,110.465843 416.581857,110.465843 C422.625465,110.465843 424.981773,113.804151 424.981773,118.064941 C424.981773,123.643397 420.967244,126.037352 416.036388,126.037352 C415.207322,126.037352 414.923724,125.993432 414.334537,125.993432 L414.334537,134.427084 C414.334537,134.602762 414.269091,134.6906 414.072754,134.6906 L410.734585,134.6906 C410.560063,134.6906 410.472714,134.624721 410.472714,134.427084 L410.472714,110.839246 L410.472802,110.839246 Z" id="Shape" sketch:type="MSShapeGroup"></path>
            </g>
        </g>
    </g>
</svg>