<?xml version="1.0" encoding="UTF-8" standalone="no"?>
<svg width="48px" height="48px" viewBox="0 0 48 48" version="1.1" xmlns="http://www.w3.org/2000/svg" xmlns:xlink="http://www.w3.org/1999/xlink" xmlns:sketch="http://www.bohemiancoding.com/sketch/ns">
    <!-- Generator: Sketch 3.4.4 (17249) - http://www.bohemiancoding.com/sketch -->
    <title>Pinterest</title>
    <desc>Created with Sketch.</desc>
    <defs></defs>
    <g id="Icons" stroke="none" stroke-width="1" fill="none" fill-rule="evenodd" sketch:type="MSPage">
        <g id="Color" sketch:type="MSArtboardGroup" transform="translate(-300.000000, -300.000000)" fill="#CC2127">
            <g id="Line-2" sketch:type="MSLayerGroup" transform="translate(201.000000, 300.000000)">
                <path d="M123.001411,0 C109.747575,0 99,10.7447522 99,24.0014112 C99,33.8260716 104.910037,42.2705945 113.368672,45.9820074 C113.300935,44.3083436 113.357382,42.2931734 113.78356,40.4699241 C114.246428,38.5224907 116.871229,27.3938966 116.871229,27.3938966 C116.871229,27.3938966 116.106368,25.8613512 116.106368,23.5949903 C116.106368,20.0388075 118.169518,17.38296 120.73505,17.38296 C122.91674,17.38296 123.972306,19.0227553 123.972306,20.9871229 C123.972306,23.1801023 122.572411,26.4625154 121.852708,29.502205 C121.251543,32.0508026 123.128418,34.1252425 125.640325,34.1252425 C130.187158,34.1252425 133.249427,28.2857647 133.249427,21.3653202 C133.249427,16.10725 129.707356,12.1700476 123.263891,12.1700476 C115.985006,12.1700476 111.449462,17.5974599 111.449462,23.6599047 C111.449462,25.7541013 112.064738,27.227377 113.029988,28.3676133 C113.475922,28.895396 113.535191,29.1042512 113.374316,29.7082378 C113.261422,30.1457047 112.996119,31.2125595 112.886047,31.6330923 C112.725172,32.2399012 112.23408,32.4600459 111.686541,32.2342565 C108.330746,30.8654084 106.769977,27.1935086 106.769977,23.0643853 C106.769977,16.2483683 112.519139,8.069148 123.921503,8.069148 C133.085729,8.069148 139.117128,14.7045334 139.117128,21.8197213 C139.117128,31.2351385 133.884459,38.2684777 126.165285,38.2684777 C123.577174,38.2684777 121.138649,36.8685835 120.303228,35.2795908 C120.303228,35.2795908 118.908979,40.8086082 118.615452,41.875463 C118.107426,43.7241136 117.111131,45.5755865 116.199506,47.0149938 C118.358617,47.6528488 120.63909,48 123.001411,48 C136.255248,48 147,37.2552478 147,24.0014112 C147,10.7447522 136.255248,0 123.001411,0" id="Pinterest" sketch:type="MSShapeGroup"></path>
            </g>
        </g>
    </g>
</svg>