<?xml version="1.0" encoding="UTF-8" standalone="no"?>
<svg width="48px" height="40px" viewBox="0 0 48 40" version="1.1" xmlns="http://www.w3.org/2000/svg" xmlns:xlink="http://www.w3.org/1999/xlink" xmlns:sketch="http://www.bohemiancoding.com/sketch/ns">
    <!-- Generator: Sketch 3.4.4 (17249) - http://www.bohemiancoding.com/sketch -->
    <title>Reddit</title>
    <desc>Created with Sketch.</desc>
    <defs></defs>
    <g id="Icons" stroke="none" stroke-width="1" fill="none" fill-rule="evenodd" sketch:type="MSPage">
        <g id="Color" sketch:type="MSArtboardGroup" transform="translate(-800.000000, -606.000000)" fill="#FF5700">
            <g id="Line-5" sketch:type="MSLayerGroup" transform="translate(204.000000, 600.000000)">
                <path d="M627.14,32.3258026 C625.346,32.3258026 623.8385,30.8840666 623.8385,29.1064209 C623.8385,27.3287753 625.346,25.8394768 627.14,25.8394768 C628.934,25.8394768 630.389,27.3287753 630.389,29.1064209 C630.389,30.8840666 628.934,32.3258026 627.14,32.3258026 M627.902,38.5743163 C626.231,40.2285969 623.654,41.0326992 620.024,41.0326992 C620.0165,41.0326992 620.0075,41.0312128 619.9985,41.0312128 C619.991,41.0312128 619.982,41.0326992 619.973,41.0326992 C616.343,41.0326992 613.7675,40.2285969 612.098,38.5743163 C611.585,38.0659929 611.585,37.2440547 612.098,36.7372176 C612.6095,36.2303805 613.439,36.2303805 613.952,36.7372176 C615.104,37.8787158 617.0735,38.4346017 619.973,38.4346017 C619.982,38.4346017 619.991,38.436088 619.9985,38.436088 C620.0075,38.436088 620.0165,38.4346017 620.024,38.4346017 C622.9235,38.4346017 624.8945,37.8787158 626.048,36.7372176 C626.561,36.2288942 627.3905,36.2303805 627.902,36.7372176 C628.4135,37.245541 628.4135,38.0674792 627.902,38.5743163 M609.611,29.1064209 C609.611,27.3302616 611.1155,25.8394768 612.908,25.8394768 C614.702,25.8394768 616.157,27.3302616 616.157,29.1064209 C616.157,30.8840666 614.702,32.3258026 612.908,32.3258026 C611.1155,32.3258026 609.611,30.8840666 609.611,29.1064209 M635.996,8.5980975 C637.211,8.5980975 638.1995,9.57758621 638.1995,10.7800238 C638.1995,11.9839477 637.211,12.9634364 635.996,12.9634364 C634.781,12.9634364 633.7925,11.9839477 633.7925,10.7800238 C633.7925,9.57758621 634.781,8.5980975 635.996,8.5980975 M644,25.5704518 C644,22.4179548 641.4125,19.8540428 638.231,19.8540428 C636.854,19.8540428 635.5895,20.3356124 634.5965,21.136742 C631.079,18.9458977 626.615,17.6260404 621.83,17.3466112 L624.326,9.52705113 L631.1855,11.127824 C631.3655,13.6025565 633.4535,15.5615339 635.996,15.5615339 C638.6555,15.5615339 640.82,13.4167658 640.82,10.7800238 C640.82,8.14476813 638.6555,6 635.996,6 C634.136,6 632.519,7.04934602 631.7135,8.58174792 L623.7425,6.72235434 C623.075,6.56629013 622.4,6.94678954 622.193,7.59482759 L619.094,17.3005351 C613.9385,17.4253864 609.092,18.7497027 605.3165,21.068371 C604.337,20.3088585 603.1055,19.8540428 601.769,19.8540428 C598.5875,19.8540428 596,22.4179548 596,25.5704518 C596,27.519025 596.99,29.2416766 598.4975,30.2731867 C598.4345,30.7265161 598.4015,31.1828181 598.4015,31.6450654 C598.4015,35.5853151 600.713,39.2505945 604.91,41.9646254 C608.933,44.5671819 614.258,46 619.9025,46 C625.547,46 630.872,44.5671819 634.895,41.9646254 C639.092,39.2505945 641.4035,35.5853151 641.4035,31.6450654 C641.4035,31.2244352 641.375,30.8067776 641.3225,30.3920927 C642.9305,29.3769322 644,27.5948276 644,25.5704518" id="Reddit" sketch:type="MSShapeGroup"></path>
            </g>
        </g>
    </g>
</svg>