<?xml version="1.0" encoding="UTF-8" standalone="no"?>
<svg width="48px" height="48px" viewBox="0 0 48 48" version="1.1" xmlns="http://www.w3.org/2000/svg" xmlns:xlink="http://www.w3.org/1999/xlink" xmlns:sketch="http://www.bohemiancoding.com/sketch/ns">
    <!-- Generator: Sketch 3.4.4 (17249) - http://www.bohemiancoding.com/sketch -->
    <title>Skype</title>
    <desc>Created with Sketch.</desc>
    <defs></defs>
    <g id="Icons" stroke="none" stroke-width="1" fill="none" fill-rule="evenodd" sketch:type="MSPage">
        <g id="Color" sketch:type="MSArtboardGroup" transform="translate(-400.000000, -700.000000)" fill="#00AEF3">
            <g id="Line-6" sketch:type="MSLayerGroup" transform="translate(203.000000, 700.000000)">
                <path d="M243.619944,29.0954617 C243.967074,27.5319075 244.147695,25.9127108 244.147695,24.2490002 C244.147695,11.7850809 233.900282,1.67762128 221.253998,1.67762128 C219.921919,1.67762128 218.61524,1.7916884 217.339605,2.00869414 C215.293509,0.737263085 212.87206,0 210.278457,0 C202.943556,0 197,5.85915493 197,13.0926795 C197,15.5075639 197.66604,17.7666493 198.823142,19.7141367 C198.521167,21.1775343 198.360301,22.6965745 198.360301,24.2490002 C198.360301,36.7184837 208.610536,46.8231612 221.253998,46.8231612 C222.687676,46.8231612 224.087488,46.6924013 225.447789,46.4447922 C227.318909,47.4352287 229.452493,48 231.724365,48 C239.056444,48 245,42.1380629 245,34.9101026 C245,32.8207268 244.503293,30.8482003 243.619944,29.0954617 Z M232.997178,35.0380803 C231.938852,36.5181708 230.375353,37.6866632 228.343368,38.5157364 C226.336783,39.3392453 223.932267,39.7593462 221.19191,39.7593462 C217.904045,39.7593462 215.146754,39.1890106 212.993415,38.06225 C211.455315,37.2443053 210.188147,36.1370196 209.225776,34.76265 C208.252117,33.382716 207.761054,32.0111285 207.761054,30.6840549 C207.761054,29.860546 208.082785,29.1427578 208.714958,28.5557294 C209.341486,27.9714832 210.145814,27.6793601 211.105362,27.6793601 C211.889934,27.6793601 212.570085,27.9102765 213.120414,28.3693271 C213.648166,28.8116849 214.099718,29.4654843 214.463782,30.3029038 C214.870179,31.221005 215.310442,31.9944358 215.776105,32.5981568 C216.227658,33.1879673 216.873942,33.6804034 217.698024,34.0671188 C218.527752,34.451052 219.648166,34.651365 221.022578,34.651365 C222.916275,34.651365 224.468485,34.250739 225.634055,33.4661798 C226.777046,32.7010955 227.330198,31.77743 227.330198,30.6478873 C227.330198,29.7603895 227.039511,29.059294 226.446849,28.5084333 C225.82032,27.9353156 224.999059,27.4901756 224.002822,27.1785776 C222.96143,26.8614154 221.550329,26.5136498 219.803387,26.1519736 C217.424271,25.6511911 215.406397,25.0585985 213.803387,24.3825422 C212.160865,23.6953573 210.837253,22.7410885 209.869238,21.5475569 C208.887112,20.3317684 208.387582,18.8099461 208.387582,17.0210398 C208.387582,15.3183794 208.90969,13.7798644 209.942615,12.4555729 C210.964252,11.1396279 212.460019,10.1102417 214.387582,9.41192836 C216.286924,8.71917927 218.544685,8.36863154 221.104421,8.36863154 C223.147695,8.36863154 224.945437,8.60233003 226.446849,9.06416275 C227.956726,9.52599548 229.226717,10.1491914 230.225776,10.91984 C231.233302,11.698835 231.984008,12.5251261 232.452493,13.3875848 C232.926623,14.2583898 233.169332,15.1236307 233.169332,15.9610503 C233.169332,16.7678665 232.853246,17.5023474 232.229539,18.139454 C231.60301,18.784907 230.809972,19.1104156 229.878645,19.1104156 C229.031985,19.1104156 228.365945,18.9045383 227.908749,18.5039124 C227.479774,18.1283255 227.033866,17.5440793 226.539981,16.7094418 C225.969897,15.6411059 225.278457,14.7981221 224.485419,14.2027473 C223.714958,13.6240654 222.430856,13.3347244 220.661336,13.3347244 C219.024459,13.3347244 217.686736,13.6574509 216.696143,14.3001217 C215.742239,14.9149713 215.276576,15.6244131 215.276576,16.4646148 C215.276576,16.9765258 215.426152,17.4077552 215.736595,17.7749957 C216.058325,18.1700574 216.518344,18.5094766 217.099718,18.7988176 C217.700847,19.096505 218.321731,19.3357677 218.942615,19.5026952 C219.577611,19.677969 220.644403,19.9367067 222.109125,20.2705616 C223.963311,20.6600591 225.665099,21.102417 227.169332,21.5781603 C228.696143,22.0566858 230.011289,22.6464963 231.08937,23.3392453 C232.184384,24.0431229 233.0508,24.9445314 233.668862,26.0239958 C234.286924,27.1118066 234.600188,28.4472266 234.600188,30.0024344 C234.600188,31.8608938 234.058325,33.5552078 232.997178,35.0380803 Z" id="Skype" sketch:type="MSShapeGroup"></path>
            </g>
        </g>
    </g>
</svg>