<?xml version="1.0" encoding="UTF-8" standalone="no"?>
<svg width="48px" height="48px" viewBox="0 0 48 48" version="1.1" xmlns="http://www.w3.org/2000/svg" xmlns:xlink="http://www.w3.org/1999/xlink" xmlns:sketch="http://www.bohemiancoding.com/sketch/ns">
    <!-- Generator: Sketch 3.4.4 (17249) - http://www.bohemiancoding.com/sketch -->
    <title>Slack</title>
    <desc>Created with Sketch.</desc>
    <defs></defs>
    <g id="Icons" stroke="none" stroke-width="1" fill="none" fill-rule="evenodd" sketch:type="MSPage">
        <g id="Color" sketch:type="MSArtboardGroup" transform="translate(-600.000000, -500.000000)" fill="#77D4B6">
            <g id="Line-4" sketch:type="MSLayerGroup" transform="translate(200.000000, 500.000000)">
                <path d="M445.990672,17.402355 C441.043664,0.908325553 433.896151,-2.93918131 417.402122,2.00932752 C400.909592,6.95633634 397.060585,14.1038491 402.009094,30.5978785 C406.957603,47.0904079 414.105116,50.9394147 430.597645,45.9909059 C447.091674,41.0423971 450.939181,33.8948844 445.990672,17.402355 M437.649158,28.109374 L434.539652,29.1503759 L435.616654,32.3693816 C436.053155,33.671384 435.351154,35.0813865 434.047651,35.5178873 C433.764151,35.6138874 433.47615,35.6543875 433.19415,35.6468875 C432.177148,35.6198874 431.239646,34.9688863 430.899146,33.9488845 L429.820644,30.7313787 L423.408132,32.8793825 L424.485134,36.0968883 C424.921635,37.4003906 424.219634,38.8103931 422.916131,39.2468939 C422.632631,39.3413941 422.34463,39.3818941 422.06263,39.3743941 C421.045628,39.3488941 420.108126,38.6963929 419.767626,37.6778911 L418.689124,34.4588854 L415.579618,35.5013872 C415.296118,35.5958874 415.006617,35.6363875 414.724617,35.6288875 C413.709115,35.6033874 412.771613,34.9508862 412.429613,33.9308844 C411.993112,32.6288821 412.695113,31.2188796 413.998615,30.7823788 L417.109621,29.739877 L415.041117,23.5673659 L411.931612,24.6098678 C411.648111,24.704368 411.360111,24.744868 411.07661,24.737368 C410.061108,24.711868 409.123607,24.0593668 408.781606,23.039365 C408.345105,21.7373627 409.048607,20.3273602 410.350609,19.8908594 L413.461614,18.8483575 L412.383113,15.6308518 C411.946612,14.3273495 412.648613,12.917347 413.952115,12.4823462 C415.255618,12.0458454 416.66562,12.7478467 417.102121,14.051349 L418.179123,17.2688547 L424.593134,15.1208509 L423.514632,11.9033452 C423.078132,10.5998428 423.781633,9.18984032 425.083635,8.75333954 C426.387138,8.31683876 427.79714,9.02034001 428.233641,10.3223423 L429.310643,13.5413481 L432.421648,12.4988462 C433.725151,12.0623454 435.133653,12.7658467 435.570154,14.067849 C436.006655,15.3713513 435.304653,16.7813539 434.001151,17.2178546 L430.891646,18.2588565 L432.958649,24.4328675 L436.069655,23.3903656 C437.371657,22.9553649 438.78166,23.6573661 439.21816,24.9593684 C439.654661,26.2628708 438.95266,27.6728733 437.649158,28.109374 Z M419.759676,21.9874131 L421.826679,28.1599241 L428.240691,26.0119203 L426.173687,19.8394093 L419.759676,21.9874131 Z" id="Slack" sketch:type="MSShapeGroup"></path>
            </g>
        </g>
    </g>
</svg>