<?xml version="1.0" encoding="UTF-8" standalone="no"?>
<svg width="48px" height="45px" viewBox="0 0 48 45" version="1.1" xmlns="http://www.w3.org/2000/svg" xmlns:xlink="http://www.w3.org/1999/xlink" xmlns:sketch="http://www.bohemiancoding.com/sketch/ns">
    <!-- Generator: Sketch 3.4.4 (17249) - http://www.bohemiancoding.com/sketch -->
    <title>Snapchat</title>
    <desc>Created with Sketch.</desc>
    <defs></defs>
    <g id="Icons" stroke="none" stroke-width="1" fill="none" fill-rule="evenodd" sketch:type="MSPage">
        <g id="Color" sketch:type="MSArtboardGroup" transform="translate(-201.000000, -302.000000)" fill="#FFE400">
            <g id="Line-2" sketch:type="MSLayerGroup" transform="translate(201.000000, 300.000000)">
                <path d="M24.46152,2 L24.4594053,2 C24.4179819,2 24.3790465,2 24.341977,2.00049613 C24.0464159,2.00347292 23.5605315,2.00818617 23.516869,2.0086823 C22.4513068,2.0086823 20.3193115,2.1587621 18.029211,3.16665334 C16.7198357,3.74253804 15.5420697,4.52121651 14.5287531,5.48110703 C13.3206349,6.6248143 12.3364265,8.0349442 11.6039924,9.67292252 C10.5313397,12.0712224 10.785975,16.1108496 10.9904793,19.3571623 L10.9912257,19.3622477 C11.0131191,19.7099119 11.0361321,20.0729561 11.0571547,20.4266979 C10.8997958,20.498761 10.644663,20.5747932 10.2686187,20.5747932 C9.66356448,20.5747932 8.94406738,20.3819221 8.13065253,20.0018853 C7.89131774,19.8907518 7.61814768,19.8345649 7.3167401,19.8345649 C6.83247278,19.8345649 6.32195824,19.9767066 5.87911425,20.2363075 C5.32195182,20.562514 4.96195448,21.0235442 4.8641805,21.5346837 C4.79974421,21.8727974 4.80285407,22.5410866 5.54735443,23.2188023 C5.95686073,23.5918932 6.55843196,23.9359604 7.33490168,24.2419496 C7.53865967,24.3219508 7.78048235,24.398355 8.03661038,24.4793485 C8.92540823,24.7610272 10.2706091,25.1865841 10.6214012,26.0097903 C10.7991608,26.427161 10.7226582,26.9763786 10.3946303,27.6402026 C10.386047,27.6583114 10.3774638,27.6760481 10.369627,27.6946531 C10.2876511,27.8855397 9.52287444,29.6128217 7.95413691,31.4344927 C7.06272678,32.4704154 6.08088193,33.336165 5.03746187,34.0084232 C3.7639122,34.8291488 2.38587126,35.3657151 0.942025682,35.602866 C0.375036096,35.6956426 -0.029867612,36.1993401 0.00172856061,36.7717519 C0.0114313223,36.9367157 0.050242369,37.1011833 0.117539729,37.2603175 C0.118037306,37.2613097 0.118659278,37.262302 0.119156856,37.2631702 C0.348415699,37.797876 0.879952886,38.2520844 1.74412065,38.6527107 C2.80010454,39.1417723 4.3794156,39.5531894 6.43776941,39.8750548 C6.54176311,40.0722671 6.64973743,40.5679025 6.72449845,40.9072565 C6.80274252,41.2679441 6.88434523,41.6388024 7.00065398,42.0327309 C7.12616791,42.4595281 7.451708,42.9695513 8.28801142,42.9695513 C8.6049683,42.9695513 8.96944384,42.8983564 9.39151397,42.8167428 C10.0096296,42.6958107 10.8548895,42.530847 11.9098782,42.530847 C12.4947806,42.530847 13.1009544,42.5821966 13.7111088,42.6832834 C14.8872577,42.8785112 15.9011963,43.5926925 17.0743597,44.4197438 C18.7914997,45.6300568 20.7351619,47 23.704829,47 C23.7858097,47 23.8670392,46.9973953 23.9472736,46.9918138 C24.0454208,46.996403 24.1670785,47 24.2954535,47 C27.2659913,47 29.2091559,45.6295606 30.92443,44.42024 L30.9271667,44.4177593 C32.1005789,43.5917003 33.1133979,42.8785112 34.2891736,42.6832834 C34.8990792,42.5823206 35.5051287,42.530847 36.0902798,42.530847 C37.0981231,42.530847 37.8961131,42.658973 38.6086441,42.7975177 C39.0736303,42.8888059 39.4349959,42.9327135 39.712271,42.9327135 L39.739389,42.9332097 L39.7675021,42.9332097 C40.3791493,42.9332097 40.8285862,42.5984449 41.000126,42.0126376 C41.1140713,41.6270193 41.1954252,41.2648433 41.2756596,40.898078 C41.3455692,40.5800577 41.4572754,40.0702825 41.5612691,39.8709617 C43.6209912,39.5484762 45.1996803,39.1379273 46.2557886,38.6489897 C47.1179661,38.2502239 47.6488813,37.7965116 47.8795084,37.2640385 C47.9486717,37.1044081 47.9890999,36.9389483 47.9981807,36.7705116 C48.0306476,36.1990921 47.6251219,35.6944023 47.0577592,35.6016257 C40.6408751,34.547098 37.7500741,27.9728588 37.6305311,27.6935368 C37.6228186,27.6751799 37.614111,27.6569471 37.6050302,27.6392104 C37.2770022,26.9751383 37.201246,26.4265408 37.37913,26.008426 C37.7291758,25.1859639 39.0735059,24.760407 39.9629257,24.4788524 C40.2204221,24.3979829 40.4631155,24.3210826 40.6652564,24.2414534 C41.5408684,23.896642 42.1666965,23.5225588 42.5795615,23.0977462 C43.0726608,22.5913199 43.1686933,22.1061032 43.1627223,21.7885791 C43.1476706,21.0203193 42.5586632,20.3376423 41.6217247,20.0033737 C41.3052654,19.8728911 40.9443973,19.8040528 40.5769363,19.8040528 C40.3267792,19.8040528 39.9563328,19.8382859 39.605665,20.0015132 C38.8549449,20.3517821 38.1824689,20.5432889 37.6051546,20.5705761 C37.2981493,20.555072 37.0828226,20.4887144 36.9433765,20.4253336 C36.9609161,20.1256701 36.9803216,19.8178205 37.0003491,19.4968234 L37.0086835,19.3593949 C37.2143075,16.1109736 37.4698135,12.0682457 36.3966632,9.66820927 C35.6611192,8.0244014 34.6734278,6.61067455 33.4604582,5.46448663 C32.443161,4.50397594 31.2614144,3.72542151 29.9473121,3.1499089 C27.6604459,2.14945963 25.528575,2 24.46152,2" id="Snapchat" sketch:type="MSShapeGroup"></path>
            </g>
        </g>
    </g>
</svg>