<?xml version="1.0" encoding="UTF-8" standalone="no"?>
<svg width="48px" height="27px" viewBox="0 0 48 27" version="1.1" xmlns="http://www.w3.org/2000/svg" xmlns:xlink="http://www.w3.org/1999/xlink" xmlns:sketch="http://www.bohemiancoding.com/sketch/ns">
    <!-- Generator: Sketch 3.4.4 (17249) - http://www.bohemiancoding.com/sketch -->
    <title>Soundcloud</title>
    <desc>Created with Sketch.</desc>
    <defs></defs>
    <g id="Icons" stroke="none" stroke-width="1" fill="none" fill-rule="evenodd" sketch:type="MSPage">
        <g id="Color" sketch:type="MSArtboardGroup" transform="translate(-301.000000, -509.000000)" fill="#FF4300">
            <g id="Line-4" sketch:type="MSLayerGroup" transform="translate(200.000000, 500.000000)">
                <path d="M101,31.1526084 C101,31.7566641 101.215945,32.213396 101.647743,32.5229896 C102.079587,32.8325368 102.541182,32.9419854 103.032573,32.8514281 C103.494168,32.7608243 103.81804,32.5947021 104.004234,32.3531076 C104.190336,32.1115132 104.283433,31.7113158 104.283433,31.1526084 L104.283433,24.583839 C104.283433,24.1156889 104.123374,23.7192976 103.80321,23.3946653 C103.483092,23.0699865 103.092212,22.9076703 102.630572,22.9076703 C102.183852,22.9076703 101.800433,23.0699865 101.480269,23.3946653 C101.160105,23.7192976 101,24.1156889 101,24.583839 L101,31.1526084 L101,31.1526084 Z M106.137273,33.9613236 C106.137273,34.3993034 106.289918,34.7276955 106.595161,34.9466854 C106.900449,35.1656753 107.291329,35.2751239 107.767799,35.2751239 C108.25919,35.2751239 108.657485,35.1656289 108.962773,34.9466854 C109.268016,34.7277419 109.420661,34.3993034 109.420661,33.9613236 L109.420661,18.6492957 C109.420661,18.1962771 109.260556,17.8074052 108.940437,17.4827728 C108.620273,17.1581405 108.229394,16.9957779 107.767799,16.9957779 C107.32108,16.9957779 106.937615,17.1581405 106.617497,17.4827728 C106.297332,17.8074516 106.137273,18.1962771 106.137273,18.6492957 L106.137273,33.9613236 L106.137273,33.9613236 Z M111.25221,34.6861533 C111.25221,35.1240867 111.408562,35.4525252 111.721266,35.6715151 C112.033969,35.8904586 112.436017,35.9999536 112.927454,35.9999536 C113.403924,35.9999536 113.794804,35.8904586 114.100047,35.6715151 C114.405335,35.4525252 114.55798,35.1240867 114.55798,34.6861533 L114.55798,20.7105302 C114.55798,20.2424265 114.397875,19.8422291 114.077756,19.510031 C113.757592,19.1778328 113.374173,19.011757 112.927454,19.011757 C112.465813,19.011757 112.071226,19.1778328 111.743647,19.510031 C111.416068,19.8422291 111.252256,20.2424265 111.252256,20.7105302 L111.252256,34.6861533 L111.25221,34.6861533 Z M116.389483,34.7541061 C116.389483,35.5846711 116.940422,35.9999536 118.042345,35.9999536 C119.144223,35.9999536 119.695161,35.5846711 119.695161,34.7541061 L119.695161,12.1031773 C119.695161,10.8347252 119.31545,10.1174613 118.556027,9.95133901 C118.064635,9.83051859 117.580659,9.97398994 117.104189,10.3817067 C116.627673,10.7894234 116.389438,11.363216 116.389438,12.1031773 L116.389438,34.7541061 L116.389483,34.7541061 Z M121.616146,35.410983 L121.616146,10.7667724 C121.616146,9.98155572 121.846921,9.513452 122.308561,9.36241486 C123.306219,9.12082043 124.296463,9 125.279245,9 C127.557469,9 129.679432,9.54362229 131.644951,10.6308669 C133.610517,11.7181115 135.200124,13.2017473 136.413681,15.0817744 C137.627284,16.9618479 138.330867,19.0343615 138.52443,21.2995008 C139.432744,20.9068692 140.400606,20.7105766 141.42806,20.7105766 C143.512766,20.7105766 145.295936,21.4580573 146.777525,22.9530186 C148.25916,24.4480263 149,26.244969 149,28.3439861 C149,30.4580882 148.25916,32.2625967 146.777525,33.757558 C145.295936,35.2525193 143.520227,36 141.450396,36 L122.018102,35.9773491 C121.884041,35.9320472 121.783529,35.8489629 121.716521,35.7281889 C121.649513,35.6074148 121.616146,35.5015867 121.616146,35.410983 L121.616146,35.410983 L121.616146,35.410983 Z" id="Soundcloud" sketch:type="MSShapeGroup"></path>
            </g>
        </g>
    </g>
</svg>