<?xml version="1.0" encoding="UTF-8" standalone="no"?>
<svg width="36px" height="48px" viewBox="0 0 36 48" version="1.1" xmlns="http://www.w3.org/2000/svg" xmlns:xlink="http://www.w3.org/1999/xlink" xmlns:sketch="http://www.bohemiancoding.com/sketch/ns">
    <!-- Generator: Sketch 3.4.4 (17249) - http://www.bohemiancoding.com/sketch -->
    <title>Tinder</title>
    <desc>Created with Sketch.</desc>
    <defs></defs>
    <g id="Icons" stroke="none" stroke-width="1" fill="none" fill-rule="evenodd" sketch:type="MSPage">
        <g id="Color" sketch:type="MSArtboardGroup" transform="translate(-306.000000, -700.000000)" fill="#E34514">
            <g id="Line-6" sketch:type="MSLayerGroup" transform="translate(203.000000, 700.000000)">
                <path d="M122.259514,0 C122.678689,0.32350579 123.042385,0.721666762 123.443067,1.07005761 C127.061534,4.51663853 130.377948,8.32405283 133.047107,12.573177 C135.629964,16.6854332 137.614943,21.2331781 138.496382,26.0359948 C138.983303,28.66759 139.143637,31.3675569 138.860016,34.0303206 C138.730627,35.1439271 138.539532,36.2575335 138.188165,37.3213699 C137.695018,38.8642437 137.047762,40.3635686 136.160097,41.7198044 C135.39572,42.8894022 134.440247,43.9345748 133.33683,44.7806669 C132.122456,45.7076354 130.73548,46.3857533 129.293024,46.8523482 C127.49914,47.4309258 125.619017,47.717104 123.74512,47.8726357 C121.507403,48.0405476 119.25742,48.0716539 117.025991,47.7855379 C114.498612,47.4682534 111.989726,46.7901355 109.739743,45.5645463 C107.656196,44.432276 105.825388,42.7712604 104.647999,40.6808531 C103.28568,38.2918873 102.835683,35.4612116 103.051435,32.7300762 C103.273351,29.8371879 104.185674,27.0313973 105.393884,24.4122446 C106.441821,22.1601466 107.724004,20.0262527 109.147904,17.9981202 C110.362279,16.281051 111.669119,14.6324157 113.099307,13.089542 C113.123903,13.0708782 113.173279,13.0273293 113.204101,13.0086655 C113.179443,14.3089099 113.30273,15.6153756 113.672591,16.8658499 C114.048615,18.1412093 114.683542,19.3419135 115.528056,20.3684222 C115.577433,20.4306349 115.614357,20.5177326 115.706822,20.5302373 C117.537631,19.1428952 119.26981,17.5875789 120.6198,15.7149781 C122.019105,13.7801024 122.956023,11.5155619 123.313616,9.14525983 C123.788208,6.07817609 123.381424,2.88666705 122.259514,0 L122.259514,0 Z" id="Tinder" sketch:type="MSShapeGroup"></path>
            </g>
        </g>
    </g>
</svg>