<?xml version="1.0" encoding="UTF-8" standalone="no"?>
<svg width="27px" height="48px" viewBox="0 0 27 48" version="1.1" xmlns="http://www.w3.org/2000/svg" xmlns:xlink="http://www.w3.org/1999/xlink" xmlns:sketch="http://www.bohemiancoding.com/sketch/ns">
    <!-- Generator: Sketch 3.4.4 (17249) - http://www.bohemiancoding.com/sketch -->
    <title>Tumblr</title>
    <desc>Created with Sketch.</desc>
    <defs></defs>
    <g id="Icons" stroke="none" stroke-width="1" fill="none" fill-rule="evenodd" sketch:type="MSPage">
        <g id="Color" sketch:type="MSArtboardGroup" transform="translate(-511.000000, -300.000000)" fill="#34455D">
            <g id="Line-2" sketch:type="MSLayerGroup" transform="translate(201.000000, 300.000000)">
                <path d="M334.740658,38.3407377 C333.867109,38.7664252 332.196509,39.1367974 330.950767,39.1686638 C327.189709,39.2714782 326.45974,36.4693359 326.429435,34.4380008 L326.429435,19.4953464 L335.863709,19.4953464 L335.863709,12.2273932 L326.462094,12.2273932 L326.462094,3.55271368e-15 L319.582268,3.55271368e-15 C319.468992,3.55271368e-15 319.271274,0.101311227 319.243323,0.358347128 C318.840825,4.10054935 317.127268,10.6686434 310,13.294919 L310,19.4950458 L314.75465,19.4950458 L314.75465,35.1778433 C314.75465,40.5479395 318.631338,48.1769455 328.865311,47.99687 C332.318317,47.936444 336.153225,46.4597653 337,45.1848071 L334.740658,38.3407377" id="Tumblr" sketch:type="MSShapeGroup"></path>
            </g>
        </g>
    </g>
</svg>