<?xml version="1.0" encoding="UTF-8" standalone="no"?>
<svg width="44px" height="48px" viewBox="0 0 44 48" version="1.1" xmlns="http://www.w3.org/2000/svg" xmlns:xlink="http://www.w3.org/1999/xlink" xmlns:sketch="http://www.bohemiancoding.com/sketch/ns">
    <!-- Generator: Sketch 3.4.4 (17249) - http://www.bohemiancoding.com/sketch -->
    <title>Viadeo</title>
    <desc>Created with Sketch.</desc>
    <defs></defs>
    <g id="Icons" stroke="none" stroke-width="1" fill="none" fill-rule="evenodd" sketch:type="MSPage">
        <g id="Color" sketch:type="MSArtboardGroup" transform="translate(-603.000000, -300.000000)" fill="#F6714A">
            <g id="Line-2" sketch:type="MSLayerGroup" transform="translate(201.000000, 300.000000)">
                <path d="M444.997928,25.9307746 C445,38.1544802 435.374217,48 423.5,48 C411.625783,48 402,38.1544802 402,26.0091996 C402,13.863919 411.625783,4.01839926 423.5,4.01839926 C425.148506,4.01839926 428.728271,4.6777344 428.202637,4.97167971 C422.581787,6.02490237 419.579534,8.58901157 417.550448,11.2459618 C411.90515,13.6230591 407.934283,19.2747372 407.934283,25.8684453 C407.934283,34.6069415 414.908563,41.6908924 423.511774,41.6908924 C429.423772,41.6908924 434.56655,38.3456865 437.205519,33.4171423 C440.878846,31.9905138 443.35866,29.275807 444.997928,25.9307746 L444.997928,25.9307746 L444.997928,25.9307746 Z M438.35678,14.6916183 C438.676289,14.2549048 438.804362,14.3269928 438.617342,14.8446301 C438.617342,14.8446301 436.099365,24.9877925 421.664009,28.1148506 C416.593894,29.213164 414.857612,32.5328986 414.857612,32.5328986 L416.035642,34.2733417 C419.569733,30.9263357 424.281854,30.6585752 424.281854,30.6585752 C452.292794,38.2897489 443.979106,0.978282409 443.979106,0.978282409 C443.871793,0.437991953 443.529683,0.355692175 443.145608,0.77150505 C443.145608,0.77150505 441.915283,3.61523444 429.386651,6.96177254 C412.501552,11.7814612 418.723646,25.6589515 420.224194,26.9099285 C431.172851,25.3095699 438.35678,14.6916183 438.35678,14.6916183 L438.35678,14.6916183 L438.35678,14.6916183 Z" id="Viadeo" sketch:type="MSShapeGroup"></path>
            </g>
        </g>
    </g>
</svg>