<?xml version="1.0" encoding="UTF-8" standalone="no"?>
<svg width="48px" height="48px" viewBox="0 0 48 48" version="1.1" xmlns="http://www.w3.org/2000/svg" xmlns:xlink="http://www.w3.org/1999/xlink" xmlns:sketch="http://www.bohemiancoding.com/sketch/ns">
    <!-- Generator: Sketch 3.4.4 (17249) - http://www.bohemiancoding.com/sketch -->
    <title>Viber</title>
    <desc>Created with Sketch.</desc>
    <defs></defs>
    <g id="Icons" stroke="none" stroke-width="1" fill="none" fill-rule="evenodd" sketch:type="MSPage">
        <g id="Color" sketch:type="MSArtboardGroup" transform="translate(-600.000000, -800.000000)" fill="#7F4DA0">
            <g id="Line-7" sketch:type="MSLayerGroup" transform="translate(200.000000, 800.000000)">
                <path d="M407.194903,47.9427536 C406.264715,47.840144 405.216267,47.5065794 404.296416,47.0293499 C402.132751,45.8901612 400.524267,43.6734145 400.097683,41.2308732 C400.005121,40.712598 400,40.014744 400,23.886686 L400,7.08136833 L400.11826,6.55798024 C400.85829,3.21739292 403.222269,0.856905076 406.567919,0.118081519 L407.0921,0 L424,0 L440.907986,0 L441.432167,0.118081519 C444.777731,0.856905076 447.141796,3.21739292 447.881825,6.55798024 L448,7.08136833 L448,23.8866955 C448,40.014744 447.994879,40.7126075 447.902413,41.2308827 C447.773901,41.9800748 447.516984,42.7343703 447.126339,43.5143348 C445.908405,45.9620365 443.462114,47.6553952 440.717837,47.9530174 C440.090842,48.0197417 407.80131,48.0145717 407.194903,47.9427536 L407.194903,47.9427536 Z M425.557163,39.4092073 C427.325063,39.1885637 428.753733,38.7626724 430.321233,37.9980941 C431.862939,37.2437415 432.849644,36.5304918 434.155019,35.2322711 C435.37816,34.005859 436.056551,33.0770405 436.776002,31.6351454 C437.778174,29.6236084 438.348632,27.2323957 438.446219,24.5999928 C438.482254,23.7020325 438.456556,23.5018499 438.25094,23.2453211 C437.86039,22.7475069 437.002091,22.8297031 436.709224,23.3889765 C436.616662,23.5737252 436.590964,23.7327287 436.560135,24.451177 C436.508729,25.5544327 436.431719,26.2676824 436.27751,27.1195223 C435.671103,30.4600239 434.067654,33.1283692 431.508319,35.0424095 C429.375578,36.6433747 427.170843,37.4233869 424.282692,37.5927018 C423.306228,37.6491433 423.136647,37.6850285 422.915679,37.8543911 C422.504456,38.1776823 422.483974,38.9371002 422.879644,39.2911638 C423.121199,39.511855 423.290771,39.5426274 424.128492,39.5169678 C424.565327,39.5015816 425.207683,39.4502625 425.557163,39.4092073 L425.557163,39.4092073 Z M413.809012,38.8549991 C413.98892,38.7934448 414.266425,38.6497894 414.425756,38.5471417 C415.402134,37.9005592 418.120799,34.426647 419.009917,32.692195 C419.518641,31.7018602 419.688213,30.9680639 419.528978,30.4241291 C419.364432,29.8391485 419.092143,29.5312435 417.874123,28.5511345 C417.385891,28.1560632 416.928478,27.7506709 416.856589,27.6429008 C416.67156,27.3760511 416.522471,26.852663 416.522471,26.4832036 C416.527687,25.6262509 417.082688,24.0714347 417.812475,22.8758046 C418.377717,21.9470242 419.39013,20.7566022 420.392302,19.8431604 C421.569167,18.7655166 422.607278,18.0318154 423.779022,17.4519002 C425.284788,16.7027557 426.204735,16.5128941 426.877996,16.8258643 C427.047567,16.9028525 427.227389,17.0055002 427.284002,17.0516208 C427.335313,17.0978365 427.731079,17.5802169 428.162784,18.1138212 C428.995289,19.1606831 429.185438,19.3299981 429.755896,19.524982 C430.480563,19.7712851 431.220592,19.7046179 431.965742,19.3248852 C432.531079,19.0323664 433.76447,18.2677976 434.561026,17.7136275 C435.609379,16.9798311 437.850063,15.1530428 438.153362,14.7886582 C438.687784,14.13185 438.780346,13.2903787 438.42053,12.3615032 C438.040222,11.3814894 436.560154,9.54438964 435.527163,8.75926464 C434.591855,8.05112781 433.92893,7.77925087 433.05526,7.73815751 C432.335809,7.70226271 432.037726,7.76381706 431.117779,8.14354978 C423.902394,11.1146396 418.141368,15.5481141 413.567447,21.6391573 C411.177779,24.8206173 409.358473,28.1201018 408.114745,31.542752 C407.390173,33.5388457 407.354224,34.4060718 407.950294,35.427217 C408.207307,35.8582307 409.301946,36.9255917 410.098502,37.5208075 C411.424455,38.5060674 412.035983,38.8704139 412.524215,38.973014 C412.858247,39.0448703 413.438945,38.9884288 413.809012,38.8549991 L413.809012,38.8549991 Z M425.911773,35.6889348 C429.031324,35.2322711 431.446691,33.7851774 433.029562,31.4350105 C433.91868,30.1111112 434.47368,28.556295 434.663839,26.8886054 C434.730607,26.2779558 434.730607,25.1644267 434.658718,24.9796779 C434.591855,24.8052502 434.376007,24.5691728 434.190969,24.4717237 C433.990569,24.369076 433.564079,24.3793017 433.327644,24.5024961 C432.931879,24.7025929 432.813714,25.0207713 432.813714,25.8828369 C432.813714,27.211849 432.469355,28.6127365 431.873285,29.700606 C431.194894,30.9424043 430.208198,31.9686719 429.005635,32.6819692 C427.972644,33.2977317 426.4463,33.754405 425.053579,33.8672784 C424.549889,33.9083718 424.272384,34.0109814 424.082235,34.2316249 C423.789368,34.5651895 423.758454,35.0167499 424.00513,35.3913126 C424.272375,35.8069687 424.683502,35.8736836 425.911773,35.6889348 L425.911773,35.6889348 Z M427.006411,31.8147432 C428.018825,31.5992125 428.794898,31.2143669 429.457823,30.5934535 C430.310906,29.7878771 430.778646,28.8128809 430.984157,27.4119935 C431.122909,26.4985993 431.066382,26.1394228 430.742601,25.8417911 C430.439407,25.5647061 429.879286,25.5544327 429.540048,25.8161316 C429.293372,26.0008803 429.216267,26.1958643 429.15974,26.7243652 C429.092972,27.4273892 428.969591,27.9199954 428.758949,28.3767163 C428.306657,29.3465424 427.510101,29.8494314 426.163665,30.0136335 C425.531464,30.0906216 425.341315,30.1624493 425.135794,30.4035919 C424.760607,30.8500395 424.90448,31.5735625 425.423541,31.8404123 C425.618906,31.9378995 425.701131,31.9481728 426.132751,31.9225133 C426.400005,31.9071176 426.79577,31.8609494 427.006411,31.8147432 L427.006411,31.8147432 Z" id="Viber" sketch:type="MSShapeGroup" transform="translate(424.000000, 24.000000) scale(1, -1) translate(-424.000000, -24.000000) "></path>
            </g>
        </g>
    </g>
</svg>