<?xml version="1.0" encoding="UTF-8" standalone="no"?>
<svg width="48px" height="41px" viewBox="0 0 48 41" version="1.1" xmlns="http://www.w3.org/2000/svg" xmlns:xlink="http://www.w3.org/1999/xlink" xmlns:sketch="http://www.bohemiancoding.com/sketch/ns">
    <!-- Generator: Sketch 3.4.4 (17249) - http://www.bohemiancoding.com/sketch -->
    <title>Vimeo</title>
    <desc>Created with Sketch.</desc>
    <defs></defs>
    <g id="Icons" stroke="none" stroke-width="1" fill="none" fill-rule="evenodd" sketch:type="MSPage">
        <g id="Color" sketch:type="MSArtboardGroup" transform="translate(-300.000000, -405.000000)" fill="#00B2EA">
            <g id="Line-3" sketch:type="MSLayerGroup" transform="translate(200.000000, 400.000000)">
                <path d="M147.975851,14.4793287 C147.767002,19.1000139 144.498808,25.4164401 138.193846,33.4314012 C131.668746,41.8123295 126.13991,46 121.621448,46 C118.827396,46 116.459507,43.4521978 114.526249,38.3398315 C113.230825,33.6493054 111.943867,28.9587792 110.651265,24.2822212 C109.211905,19.1670613 107.670943,16.6108782 106.022735,16.6108782 C105.664306,16.6108782 104.414038,17.3567808 102.25782,18.8513796 L100,15.971134 C102.365066,13.9178065 104.696265,11.8560982 106.996419,9.7999771 C110.146078,7.10131819 112.513967,5.68494132 114.094441,5.53687825 C117.819844,5.17929198 120.117175,7.70195139 120.983614,13.0964756 C121.906498,18.9212207 122.555621,22.5417817 122.91405,23.9609523 C123.992159,28.7883669 125.17187,31.196487 126.464472,31.196487 C127.466379,31.196487 128.973474,29.6376343 130.982934,26.5171354 C132.992393,23.3910491 134.062036,21.0164528 134.208794,19.3793781 C134.496666,16.6807192 133.421379,15.3397707 130.982934,15.3397707 C129.834268,15.3397707 128.648912,15.580024 127.432512,16.0828797 C129.803223,8.486965 134.318863,4.79376927 140.99072,5.00887977 C145.932524,5.14576826 148.266545,8.30817187 147.975851,14.4793287" id="Vimeo" sketch:type="MSShapeGroup"></path>
            </g>
        </g>
    </g>
</svg>