<?xml version="1.0" encoding="UTF-8" standalone="no"?>
<svg width="40px" height="46px" viewBox="0 0 40 46" version="1.1" xmlns="http://www.w3.org/2000/svg" xmlns:xlink="http://www.w3.org/1999/xlink" xmlns:sketch="http://www.bohemiancoding.com/sketch/ns">
    <!-- Generator: Sketch 3.4.4 (17249) - http://www.bohemiancoding.com/sketch -->
    <title>Vine</title>
    <desc>Created with Sketch.</desc>
    <defs></defs>
    <g id="Icons" stroke="none" stroke-width="1" fill="none" fill-rule="evenodd" sketch:type="MSPage">
        <g id="Color" sketch:type="MSArtboardGroup" transform="translate(-503.000000, -402.000000)" fill="#00B687">
            <g id="Line-3" sketch:type="MSLayerGroup" transform="translate(200.000000, 400.000000)">
                <path d="M343,24.8678737 C341.825123,25.1410002 340.687317,25.2617509 339.665003,25.2617509 C333.907535,25.2617509 329.476082,21.2079789 329.476082,14.1598783 C329.476082,10.7055471 330.80067,8.90866238 332.6742,8.90866238 C334.456477,8.90866238 335.644186,10.5215461 335.644186,13.7918763 C335.644186,15.6520114 335.149426,17.6889599 334.785842,18.8950289 C334.785842,18.8950289 336.559564,22.0144208 341.410209,21.0570406 C342.439652,18.7527157 343,15.7655745 343,13.1464353 C343,6.09977218 339.435446,2 332.902331,2 C326.186711,2 322.257147,7.20521567 322.257147,14.0678778 C322.257147,20.8672896 325.409639,26.7050087 330.608184,29.3643981 C328.4224,33.7717969 325.640622,37.6559429 322.739075,40.5827088 C317.476367,34.1671116 312.7184,25.6096278 310.765025,8.90866238 L303,8.90866238 C306.587367,36.7230004 317.279604,45.5794858 320.105582,47.2800575 C321.705354,48.2475003 323.082698,48.2015 324.544165,47.372058 C326.839738,46.0553009 333.732159,39.1092633 337.551936,30.9715318 C339.154559,30.9672192 341.080844,30.7817807 343,30.3433409 L343,24.8678737 Z" id="Vine" sketch:type="MSShapeGroup"></path>
            </g>
        </g>
    </g>
</svg>