<?xml version="1.0" encoding="UTF-8" standalone="no"?>
<svg width="48px" height="48px" viewBox="0 0 48 48" version="1.1" xmlns="http://www.w3.org/2000/svg" xmlns:xlink="http://www.w3.org/1999/xlink" xmlns:sketch="http://www.bohemiancoding.com/sketch/ns">
    <!-- Generator: Sketch 3.4.4 (17249) - http://www.bohemiancoding.com/sketch -->
    <title>Whatsapp</title>
    <desc>Created with Sketch.</desc>
    <defs></defs>
    <g id="Icons" stroke="none" stroke-width="1" fill="none" fill-rule="evenodd" sketch:type="MSPage">
        <g id="Color" sketch:type="MSArtboardGroup" transform="translate(-600.000000, -400.000000)" fill="#67C15E">
            <g id="Line-3" sketch:type="MSLayerGroup" transform="translate(200.000000, 400.000000)">
                <path d="M423.993033,-3.55271368e-15 C410.762252,-3.55271368e-15 400,10.7652871 400,23.9998009 C400,29.2484508 401.692661,34.116025 404.570026,38.0669471 L401.579605,46.9837983 L410.804449,44.0355392 C414.598605,46.5469749 419.126434,48 424.006967,48 C437.237748,48 448,37.2343147 448,24.0001991 C448,10.7656853 437.237748,0.000398198153 424.006967,0.000398198153 L423.993033,0.000398198153 L423.993033,-3.55271368e-15 Z M417.29285,12.1908365 C416.827488,11.0762798 416.474784,11.0340708 415.769774,11.0054006 C415.529728,10.9914636 415.262214,10.9775267 414.96564,10.9775267 C414.04845,10.9775267 413.089462,11.245514 412.511043,11.8380329 C411.806033,12.557577 410.056843,14.2363804 410.056843,17.6792016 C410.056843,21.1220228 412.567571,24.4517558 412.905944,24.9176476 C413.258648,25.3827431 417.800808,32.5503098 424.853297,35.4714915 C430.368379,37.7571489 432.00491,37.5453075 433.260074,37.2773201 C435.093658,36.8823076 437.393002,35.5272392 437.971421,33.891043 C438.54984,32.2540504 438.54984,30.8571713 438.380255,30.5609119 C438.211068,30.2646524 437.745308,30.0958164 437.040298,29.7426147 C436.335288,29.3898111 432.90737,27.6966726 432.25849,27.4708942 C431.623543,27.2311789 431.017259,27.3159951 430.537963,27.9933302 C429.860819,28.9386526 429.198006,29.8983101 428.661785,30.4764939 C428.238619,30.9280506 427.547144,30.9845947 426.969123,30.7444812 C426.193254,30.4203479 424.021298,29.6577985 421.340985,27.2733879 C419.267356,25.4253503 417.856938,23.125756 417.448104,22.434484 C417.038871,21.729275 417.405907,21.3195291 417.729948,20.9388517 C418.082653,20.5012319 418.421026,20.1910356 418.77373,19.7816879 C419.126434,19.3727384 419.323884,19.1608969 419.549599,18.6810682 C419.789645,18.2155745 419.62006,17.7357458 419.450874,17.3829422 C419.281687,17.0301386 417.871269,13.5873174 417.29285,12.1908365 Z" id="Whatsapp" sketch:type="MSShapeGroup"></path>
            </g>
        </g>
    </g>
</svg>