<?xml version="1.0" encoding="UTF-8" standalone="no"?>
<svg width="48px" height="48px" viewBox="0 0 48 48" version="1.1" xmlns="http://www.w3.org/2000/svg" xmlns:xlink="http://www.w3.org/1999/xlink" xmlns:sketch="http://www.bohemiancoding.com/sketch/ns">
    <!-- Generator: Sketch 3.4.4 (17249) - http://www.bohemiancoding.com/sketch -->
    <title>Wordpress</title>
    <desc>Created with Sketch.</desc>
    <defs></defs>
    <g id="Icons" stroke="none" stroke-width="1" fill="none" fill-rule="evenodd" sketch:type="MSPage">
        <g id="Color" sketch:type="MSArtboardGroup" transform="translate(-400.000000, -800.000000)" fill="#18759D">
            <g id="Line-7" sketch:type="MSLayerGroup" transform="translate(200.000000, 800.000000)">
                <path d="M200,23.99925 C200,33.4990468 205.520173,41.7088034 213.525923,45.598425 L202.077565,14.2324448 C200.747023,17.216038 200,20.5191412 200,23.99925 Z M240.201556,22.7887121 C240.201556,19.8216194 239.135023,17.7680553 238.222994,16.1705053 C237.006456,14.1919435 235.864921,12.5178912 235.864921,10.5408294 C235.864921,8.33426045 237.537473,6.28069627 239.895547,6.28069627 C240.00205,6.28069627 240.102553,6.29419669 240.206056,6.30019688 C235.936923,2.38807463 230.247245,0 223.99955,0 C215.614288,0 208.238557,4.30213444 203.946923,10.816838 C204.510941,10.8348386 205.041958,10.8453389 205.491972,10.8453389 C208.00155,10.8453389 211.888172,10.5408294 211.888172,10.5408294 C213.181212,10.464327 213.334217,12.3663864 212.041176,12.5178912 C212.041176,12.5178912 210.740636,12.670896 209.29459,12.7473984 L218.033864,38.7432107 L223.287028,22.9912185 L219.548911,12.7473984 C218.25587,12.670896 217.030332,12.5178912 217.030332,12.5178912 C215.737292,12.4413888 215.888797,10.464327 217.183337,10.5408294 C217.183337,10.5408294 221.146461,10.8453389 223.504535,10.8453389 C226.014113,10.8453389 229.900734,10.5408294 229.900734,10.5408294 C231.195275,10.464327 231.34678,12.3663864 230.053739,12.5178912 C230.053739,12.5178912 228.751698,12.670896 227.307153,12.7473984 L235.980424,38.5452045 L238.375999,30.5469546 C239.411032,27.2258508 240.201556,24.8422763 240.201556,22.7887121 Z M245.059908,12.4853402 C245.163411,13.2503641 245.221913,14.0693897 245.221913,14.9529173 C245.221913,17.3874934 244.765899,20.1250789 243.396356,23.5496859 L236.065627,44.7438482 C243.20135,40.5842183 248,32.8529767 248,23.9997 C248,19.8265696 246.933467,15.903947 245.059908,12.4853402 Z M224.421063,26.0987156 L217.219338,47.0228695 C219.370405,47.6558892 221.644476,48.0009 223.99955,48.0009 C226.794137,48.0009 229.474721,47.5178849 231.969299,46.6403575 C231.906297,46.5368543 231.846295,46.4288509 231.798294,46.3103472 L224.421063,26.0987156 Z" id="Wordpress" sketch:type="MSShapeGroup"></path>
            </g>
        </g>
    </g>
</svg>