<?xml version="1.0" encoding="UTF-8" standalone="no"?>
<svg width="36px" height="48px" viewBox="0 0 36 48" version="1.1" xmlns="http://www.w3.org/2000/svg" xmlns:xlink="http://www.w3.org/1999/xlink" xmlns:sketch="http://www.bohemiancoding.com/sketch/ns">
    <!-- Generator: Sketch 3.4.4 (17249) - http://www.bohemiancoding.com/sketch -->
    <title>Yelp</title>
    <desc>Created with Sketch.</desc>
    <defs></defs>
    <g id="Icons" stroke="none" stroke-width="1" fill="none" fill-rule="evenodd" sketch:type="MSPage">
        <g id="Color" sketch:type="MSArtboardGroup" transform="translate(-306.000000, -800.000000)" fill="#D32200">
            <g id="Line-7" sketch:type="MSLayerGroup" transform="translate(200.000000, 800.000000)">
                <path d="M106.916951,23.1085217 C106.149772,24.3580085 105.82659,28.2924667 106.090874,30.9039389 C106.184506,31.7664298 106.338546,32.4849221 106.560545,32.9139176 C106.867115,33.5064113 107.383601,33.8604075 107.972577,33.8799073 C108.350126,33.9009071 108.584206,33.8349078 115.676081,31.5174324 C115.676081,31.5174324 118.827857,30.4974432 118.841449,30.4899433 C119.62675,30.2889455 120.155318,29.5539533 120.208175,28.6149632 C120.258012,27.6549734 119.768709,26.8044825 118.963775,26.4984857 C118.963775,26.4984857 116.743788,25.5774955 116.737748,25.5774955 C109.117305,22.3840294 108.776001,22.2580308 108.390901,22.2535308 C107.803435,22.2310311 107.277888,22.5310279 106.916951,23.1085217 Z M123.965238,46.9038189 C124.089074,46.5423228 124.102665,46.2918254 124.123808,38.7214059 C124.123808,38.7214059 124.141931,35.3779414 124.143441,35.3419418 C124.193277,34.5244505 123.67377,33.7789584 122.81598,33.441462 C121.935536,33.0979656 120.988644,33.3109633 120.457055,33.9859562 C120.457055,33.9859562 118.903065,35.8609363 118.897024,35.8609363 C113.555465,42.2313686 113.336487,42.5253655 113.2051,42.9033614 C113.12657,43.128359 113.093346,43.3623566 113.122039,43.5978541 C113.153753,43.9338505 113.301752,44.2698469 113.552445,44.5788436 C114.789294,46.0758277 120.72738,48.2958041 122.622675,47.9673076 C123.28263,47.8443089 123.759851,47.4678129 123.965238,46.9038189 Z M136.006625,44.2695469 C137.796206,43.5450546 141.703079,38.4976082 141.977935,36.5551289 C142.071567,35.8801361 141.86467,35.2966423 141.405571,34.9261462 C141.106553,34.6966486 140.873983,34.6066496 133.788149,32.2441747 C133.788149,32.2441747 130.680168,31.2001858 130.639393,31.180686 C129.888826,30.8851891 129.028015,31.1566862 128.45112,31.8841785 C127.853083,32.6266706 127.759451,33.6031602 128.238183,34.3456524 L129.490134,36.4141304 C133.699047,43.3575566 134.019208,43.8480514 134.322758,44.0880488 C134.790918,44.4630449 135.385935,44.5245442 136.006625,44.2695469 Z M132.347423,26.3978368 C140.401292,24.4163578 140.712392,24.309859 141.031043,24.0983612 C141.517326,23.7668647 141.761977,23.2073707 141.721202,22.5263779 C141.721202,22.5038782 141.724222,22.4828784 141.721202,22.4573787 C141.514305,20.4504 138.046898,15.2214555 136.340378,14.3739645 C135.7363,14.0784677 135.129202,14.0994675 134.630837,14.4399638 C134.319737,14.6469616 134.088677,14.9574583 129.777071,20.9483947 C129.777071,20.9483947 127.82741,23.646866 127.804757,23.6723658 C127.289781,24.305359 127.28525,25.2173493 127.785124,25.9973411 C128.304631,26.8043325 129.183565,27.1973283 129.988499,26.9708307 C129.988499,26.9708307 129.955274,27.0278301 129.946213,27.03983 C130.343394,26.8853316 131.054696,26.7098335 132.347423,26.3978368 Z M124.258669,19.6407086 C124.121241,16.399243 123.162267,1.95739646 123.049003,1.28690358 C122.882881,0.682410007 122.419251,0.248914612 121.747215,0.0764164449 C119.69335,-0.442578041 111.835806,1.79689817 110.378468,3.32388194 C109.911818,3.81887668 109.736636,4.43087018 109.877084,4.96936446 C110.105123,5.44935936 119.844369,21.013194 119.844369,21.013194 C121.285095,23.3846688 122.458516,23.0171727 122.842106,22.895674 C123.224185,22.7741753 124.391566,22.4066792 124.258669,19.6407086 Z" id="Yelp" sketch:type="MSShapeGroup"></path>
            </g>
        </g>
    </g>
</svg>