<?xml version="1.0" encoding="UTF-8" standalone="no"?>
<svg width="48px" height="34px" viewBox="0 0 48 34" version="1.1" xmlns="http://www.w3.org/2000/svg" xmlns:xlink="http://www.w3.org/1999/xlink" xmlns:sketch="http://www.bohemiancoding.com/sketch/ns">
    <!-- Generator: Sketch 3.4.4 (17249) - http://www.bohemiancoding.com/sketch -->
    <title>Youtube</title>
    <desc>Created with Sketch.</desc>
    <defs></defs>
    <g id="Icons" stroke="none" stroke-width="1" fill="none" fill-rule="evenodd" sketch:type="MSPage">
        <g id="Color" sketch:type="MSArtboardGroup" transform="translate(-200.000000, -408.000000)" fill="#CE1312">
            <g id="Line-3" sketch:type="MSLayerGroup" transform="translate(200.000000, 400.000000)">
                <path d="M19.044,31.269916 L19.0425,17.6877416 L32.0115,24.5022437 L19.044,31.269916 Z M47.52,15.3341627 C47.52,15.3341627 47.0505,12.003199 45.612,10.5363665 C43.7865,8.61029902 41.7405,8.60123517 40.803,8.48944773 C34.086,8 24.0105,8 24.0105,8 L23.9895,8 C23.9895,8 13.914,8 7.197,8.48944773 C6.258,8.60123517 4.2135,8.61029902 2.3865,10.5363665 C0.948,12.003199 0.48,15.3341627 0.48,15.3341627 C0.48,15.3341627 0,19.2467232 0,23.1577731 L0,26.8256098 C0,30.7381703 0.48,34.6492202 0.48,34.6492202 C0.48,34.6492202 0.948,37.9801839 2.3865,39.4470165 C4.2135,41.3730839 6.612,41.3126583 7.68,41.5135736 C11.52,41.8851913 24,42 24,42 C24,42 34.086,41.9848936 40.803,41.4954459 C41.7405,41.3821478 43.7865,41.3730839 45.612,39.4470165 C47.0505,37.9801839 47.52,34.6492202 47.52,34.6492202 C47.52,34.6492202 48,30.7381703 48,26.8256098 L48,23.1577731 C48,19.2467232 47.52,15.3341627 47.52,15.3341627 L47.52,15.3341627 Z" id="Youtube" sketch:type="MSShapeGroup"></path>
            </g>
        </g>
    </g>
</svg>