<?xml version="1.0" encoding="UTF-8" standalone="no"?>
<svg width="48px" height="48px" viewBox="0 0 48 48" version="1.1" xmlns="http://www.w3.org/2000/svg" xmlns:xlink="http://www.w3.org/1999/xlink" xmlns:sketch="http://www.bohemiancoding.com/sketch/ns">
    <!-- Generator: Sketch 3.4.4 (17249) - http://www.bohemiancoding.com/sketch -->
    <title>Amazon-black</title>
    <desc>Created with Sketch.</desc>
    <defs></defs>
    <g id="Icons" stroke="none" stroke-width="1" fill="none" fill-rule="evenodd" sketch:type="MSPage">
        <g id="Black" sketch:type="MSArtboardGroup" transform="translate(-601.000000, -600.000000)" fill="#0B0B0A">
            <g id="Line-5" sketch:type="MSLayerGroup" transform="translate(204.000000, 600.000000)">
                <path d="M438.048925,38.8658824 C437.809038,38.8630588 437.563507,38.9195294 437.334908,39.0268235 C437.078088,39.1284706 436.815624,39.2470588 436.56727,39.3515294 L436.203207,39.504 L435.729077,39.6931765 L435.729077,39.6988235 C430.578565,41.7882353 425.16841,43.0136471 420.16183,43.1209412 C419.978387,43.1265882 419.792122,43.1265882 419.614323,43.1265882 C411.740389,43.1322353 405.317065,39.4785882 398.837296,35.8785882 C398.611521,35.76 398.377278,35.6978824 398.151502,35.6978824 C397.860816,35.6978824 397.561663,35.808 397.344353,36.0112941 C397.127044,36.2174118 396.997223,36.5138824 397.000045,36.816 C396.997223,37.2084706 397.208888,37.5698824 397.505219,37.8042353 C403.587057,43.0870588 410.25309,47.9943529 419.219215,48 C419.394192,48 419.57199,47.9943529 419.749789,47.9915294 C425.453452,47.8644706 431.902176,45.936 436.908756,42.7905882 L436.939801,42.7708235 C437.594551,42.3783529 438.249301,41.9322353 438.867362,41.4381176 C439.251181,41.1529412 439.516468,40.7068235 439.516468,40.2437647 C439.499535,39.4221176 438.802452,38.8658824 438.048925,38.8658824 Z M444.994356,35.9463529 L444.994356,35.9435294 C444.971778,35.4437647 444.867357,35.0625882 444.658514,34.7463529 L444.635936,34.7152941 L444.610537,34.6842353 C444.398872,34.4527059 444.195673,34.3651765 443.975542,34.2691765 C443.31797,34.0150588 442.361244,33.8795294 441.209787,33.8767059 C440.382883,33.8767059 439.471313,33.9557647 438.554098,34.1562353 L438.551276,34.0941176 L437.628417,34.4018824 L437.611484,34.4103529 L437.089377,34.5797647 L437.089377,34.6023529 C436.47696,34.8564706 435.920987,35.1727059 435.404525,35.5482353 C435.082794,35.7882353 434.817507,36.1072941 434.803396,36.5957647 C434.79493,36.8611765 434.930395,37.1661176 435.153349,37.3468235 C435.376303,37.5275294 435.635945,37.5896471 435.864543,37.5896471 C435.918165,37.5896471 435.968964,37.5868235 436.014119,37.5783529 L436.059275,37.5755294 L436.093141,37.5698824 C436.544693,37.4738824 437.202265,37.4089412 437.972725,37.3016471 C438.63312,37.2282353 439.333025,37.1745882 439.939798,37.1745882 C440.368772,37.1717647 440.755413,37.2028235 441.0207,37.2592941 C441.153343,37.2875294 441.25212,37.3214118 441.305742,37.3496471 C441.325497,37.3552941 441.339608,37.3637647 441.348075,37.3694118 C441.359364,37.4061176 441.376297,37.5021176 441.373475,37.6348235 C441.379119,38.1430588 441.164632,39.0861176 440.868301,40.0065882 C440.580437,40.9270588 440.230484,41.8503529 439.999064,42.4630588 C439.94262,42.6042353 439.905931,42.7595294 439.905931,42.9289412 C439.900287,43.1745882 440.001886,43.4738824 440.216373,43.6715294 C440.425216,43.8691765 440.696147,43.9482353 440.921923,43.9482353 L440.933212,43.9482353 C441.271876,43.9454118 441.55974,43.8098824 441.808093,43.6150588 C444.150518,41.5087059 444.966134,38.1430588 445,36.2484706 L444.994356,35.9463529 Z M422.402655,25.9595294 C421.660417,27.4418824 420.387605,28.3962353 419.010372,28.7181176 C418.80153,28.7181176 418.482621,28.8225882 418.163713,28.8225882 C415.835399,28.8225882 414.458166,27.0211765 414.458166,24.3727059 C414.458166,20.9788235 416.470394,19.392 419.010372,18.6465882 C420.387605,18.3303529 421.979325,18.2230588 423.568223,18.2230588 L423.568223,19.4964706 C423.568223,21.9331765 423.672645,23.8390588 422.402655,25.9595294 Z M423.568223,13.3524706 C422.19099,13.4569412 420.59927,13.5614118 419.010372,13.7703529 C416.574815,14.0922353 414.139258,14.5157647 412.129852,15.4701176 C408.209818,17.0597647 405.559774,20.4508235 405.559774,25.4287059 C405.559774,31.6856471 409.584229,34.8621176 414.672653,34.8621176 C416.365972,34.8621176 417.743205,34.6475294 419.010372,34.3341176 C421.028245,33.696 422.718742,32.5298824 424.730969,30.4094118 C425.896537,31.9990588 426.218268,32.7444706 428.227673,34.4385882 C428.758247,34.6475294 429.28882,34.6475294 429.709328,34.3341176 C430.982139,33.2724706 433.208854,31.3637647 434.3716,30.3049412 C434.902173,29.8814118 434.797752,29.2432941 434.476021,28.7181176 C433.313275,27.2329412 432.144885,25.9595294 432.144885,23.0992941 L432.144885,13.5614118 C432.144885,9.53505882 432.466616,5.82494118 429.500485,3.072 C427.064927,0.849882353 423.249315,0 420.283184,0 L419.010372,0 C413.611506,0.313411765 407.893732,2.64564706 406.618098,9.32329412 C406.406433,10.1731765 407.04425,10.4894118 407.46758,10.5938824 L413.399842,11.3364706 C414.034836,11.2291765 414.353745,10.6983529 414.458166,10.1731765 C414.985917,7.84094118 416.893723,6.67482353 419.010372,6.46023529 L419.436524,6.46023529 C420.709336,6.46023529 422.086569,6.99105882 422.825985,8.05270588 C423.672645,9.32329412 423.568223,11.0202353 423.568223,12.5054118 L423.568223,13.3524706 L423.568223,13.3524706 Z" id="Amazon" sketch:type="MSShapeGroup"></path>
            </g>
        </g>
    </g>
</svg>