<?xml version="1.0" encoding="UTF-8" standalone="no"?>
<svg width="38px" height="51px" viewBox="0 0 38 51" version="1.1" xmlns="http://www.w3.org/2000/svg" xmlns:xlink="http://www.w3.org/1999/xlink" xmlns:sketch="http://www.bohemiancoding.com/sketch/ns">
    <!-- Generator: Sketch 3.4.4 (17249) - http://www.bohemiancoding.com/sketch -->
    <title>Bankin-black</title>
    <desc>Created with Sketch.</desc>
    <defs></defs>
    <g id="Icons" stroke="none" stroke-width="1" fill="none" fill-rule="evenodd" sketch:type="MSPage">
        <g id="Black" sketch:type="MSArtboardGroup" transform="translate(-902.000000, -898.000000)" fill="#000000">
            <g id="Line-8" sketch:type="MSLayerGroup" transform="translate(205.000000, 898.000000)">
                <path d="M734.970294,35.2888686 C735.129347,32.5916999 734.606787,30.9559771 734.41856,30.2321351 C732.826836,25.1491228 728.675169,22.4179394 728.675169,22.4179394 C728.675169,22.4179394 733.123224,19.3593605 733.55761,12.4684092 C733.991716,5.57717861 726.366918,0 716.853729,0 C705.134531,0 698.056417,4.95088087 697.335979,5.34420256 C697.204127,5.41599494 696.949361,5.5665634 697.008862,5.7811025 L698.867084,11.6784137 C698.973236,12.0756462 698.999215,12.3929853 699.493102,12.1697864 C699.493102,12.1697864 704.113794,10.2886584 705.134531,10.2886584 C705.134531,10.2886584 699.814911,47.2357557 699.94397,47.2357557 C699.814911,48.3338719 699.94397,48.6425512 701.409707,49.0772164 C701.993824,49.2506913 728.11368,54.9912884 733.974117,39.7430893 C733.986406,39.827259 734.827532,37.7097715 734.970294,35.2888686 Z M715.663428,8.76090537 C715.677675,8.65810538 715.753378,8.5740217 715.85534,8.547763 C715.8897,8.53882388 715.952553,8.52401844 716.041386,8.50530214 C716.186926,8.47485323 716.353417,8.44412497 716.537508,8.4156315 C717.746246,8.22846848 719.030407,8.2203674 720.241659,8.51172714 C721.122443,8.72347276 724.971017,9.63107373 723.742446,14.5590481 C722.513595,19.4873018 716.266261,19.6373115 715.333239,19.5856322 C715.096632,19.5725029 714.879858,19.5585355 714.687387,19.5445681 C714.619785,19.5395398 714.560005,19.5350703 714.508884,19.53088 C714.477876,19.5283659 714.456367,19.5266898 714.445193,19.5255724 C714.297418,19.5127224 714.190428,19.3805909 714.210541,19.2356094 L715.663428,8.76090537 L715.663428,8.76090537 Z M725.818279,35.3464345 C724.180463,42.7793205 714.192383,41.9477021 712.880286,41.8750717 C712.547863,41.8566347 712.243094,41.836801 711.972406,41.8172467 C711.877707,41.810263 711.793623,41.803838 711.721552,41.7979717 C711.677974,41.7943401 711.647804,41.791826 711.63216,41.7904293 C711.424326,41.772551 711.274316,41.5867847 711.30253,41.3828609 L713.344562,26.6587182 C713.364675,26.5142954 713.471107,26.395852 713.614412,26.358978 C713.66274,26.3466867 713.751293,26.3257357 713.875603,26.2997563 C714.080644,26.2564574 714.314458,26.2134379 714.573413,26.1734911 C716.272686,25.9103455 718.077831,25.8991716 719.780177,26.3084161 C721.018526,26.6062008 727.456095,27.9135485 725.818279,35.3464345 L725.818279,35.3464345 Z" id="Bankin" sketch:type="MSShapeGroup"></path>
            </g>
        </g>
    </g>
</svg>