<?xml version="1.0" encoding="UTF-8" standalone="no"?>
<svg width="55px" height="48px" viewBox="0 0 55 48" version="1.1" xmlns="http://www.w3.org/2000/svg" xmlns:xlink="http://www.w3.org/1999/xlink" xmlns:sketch="http://www.bohemiancoding.com/sketch/ns">
    <!-- Generator: Sketch 3.4.4 (17249) - http://www.bohemiancoding.com/sketch -->
    <title>Feedly-black</title>
    <desc>Created with Sketch.</desc>
    <defs></defs>
    <g id="Icons" stroke="none" stroke-width="1" fill="none" fill-rule="evenodd" sketch:type="MSPage">
        <g id="Black" sketch:type="MSArtboardGroup" transform="translate(-697.000000, -700.000000)" fill="#0B0B0A">
            <g id="Line-6" sketch:type="MSLayerGroup" transform="translate(203.000000, 700.000000)">
                <path d="M524.919257,28.0304549 C522.268916,30.6453508 519.609981,33.2568507 516.975109,35.8887264 C516.236038,36.7852621 514.933212,36.5016987 513.919139,36.4184975 C512.941159,35.7970352 512.181464,34.8784257 511.395986,34.0413194 C510.871762,33.550602 511.361611,32.9087639 511.765522,32.5403013 C514.4193,29.9288014 517.069641,27.3173015 519.709669,24.6922177 C520.190925,24.228668 520.625773,23.6955009 521.208436,23.3440182 C521.792817,23.0961125 522.219071,23.6836151 522.607513,24.013024 C523.489241,24.9469154 524.494721,25.7687398 525.299105,26.7688526 C525.653171,27.2154225 525.242385,27.7146298 524.919257,28.0304549 M525.197697,40.3866869 C524.455189,41.2119073 523.680025,42.0218458 522.808609,42.7112274 C522.007663,42.9014017 521.156873,42.8572541 520.347333,42.7417911 C519.56873,42.3529527 519.042787,41.6058396 518.405124,41.0302229 C517.951369,40.593841 517.241518,39.938419 517.825899,39.3084668 C518.812472,38.2251528 519.867796,37.1910804 520.959214,36.2062495 C521.364844,35.8683506 521.971569,36.036451 522.299854,36.4032156 C523.233145,37.2946574 524.150967,38.201381 525.051602,39.1284805 C525.405668,39.4392116 525.599889,40.0284122 525.197697,40.3866869 M510.552071,29.538265 C509.783782,30.4415927 508.43283,30.2038749 507.392975,30.0442643 C506.476871,29.319225 505.638112,28.4787228 504.899042,27.5804891 C504.471068,27.0829797 505.019355,26.5650945 505.357953,26.2136117 C510.012378,21.635846 514.649615,17.0377044 519.295446,12.4531467 C519.919359,11.8520603 520.484834,11.1847524 521.186092,10.6702632 C521.789379,10.3714179 522.255166,11.016652 522.657357,11.3596448 C523.511585,12.2595765 524.479252,13.0576291 525.26301,14.0203863 C525.666921,14.4975199 525.223479,15.0510627 524.869412,15.3923576 C520.092955,20.1025661 515.31306,24.8127746 510.552071,29.538265 M545.879638,21.6001883 C539.587227,15.3821697 533.293097,9.16754705 527.005842,2.94783046 C526.0863,2.05469071 525.22176,1.03590011 524.008309,0.524806832 C522.803453,-0.0406219489 521.406094,-0.122125197 520.111861,0.15125028 C518.979193,0.407645913 517.956526,1.02061825 517.138392,1.82885879 C510.063941,8.81946026 502.987771,15.8117597 495.909883,22.8006632 C495.095186,23.6038098 494.459242,24.6073185 494.199708,25.7228942 C493.618764,27.7316097 494.347522,29.9831369 495.837694,31.4298195 C500.82556,36.359068 505.818583,41.2832226 510.80473,46.2158671 C511.918492,47.3382347 513.489446,47.9919587 515.082745,47.9732808 C519.163101,47.9970526 523.241739,47.9698849 527.320376,47.9868647 C529.156021,48.1023276 531.012291,47.4536976 532.31168,46.1547396 C536.832041,41.7026247 541.338652,37.23353 545.857294,32.7780191 C546.592927,32.0410939 547.390435,31.3500143 547.990286,30.4942302 C549.090297,28.9286886 549.272487,26.8180941 548.629668,25.0437005 C548.127787,23.6190917 546.921212,22.6359587 545.879638,21.6001883" id="Feedly" sketch:type="MSShapeGroup"></path>
            </g>
        </g>
    </g>
</svg>