<?xml version="1.0" encoding="UTF-8" standalone="no"?>
<svg width="48px" height="48px" viewBox="0 0 48 48" version="1.1" xmlns="http://www.w3.org/2000/svg" xmlns:xlink="http://www.w3.org/1999/xlink" xmlns:sketch="http://www.bohemiancoding.com/sketch/ns">
    <!-- Generator: Sketch 3.4.4 (17249) - http://www.bohemiancoding.com/sketch -->
    <title>Messenger-black</title>
    <desc>Created with Sketch.</desc>
    <defs></defs>
    <g id="Icons" stroke="none" stroke-width="1" fill="none" fill-rule="evenodd" sketch:type="MSPage">
        <g id="Black" sketch:type="MSArtboardGroup" transform="translate(-300.000000, -900.000000)" fill="#0B0B0A">
            <g id="Line-8" sketch:type="MSLayerGroup" transform="translate(205.000000, 898.000000)">
                <path d="M119,2 C105.745143,2 95,11.9491852 95,24.2222222 C95,31.2155556 98.4899876,37.4534815 103.944099,41.526963 L103.944099,50 L112.115876,45.5151111 C114.296745,46.1186667 116.607155,46.4444444 119,46.4444444 C132.254857,46.4444444 143,36.4952593 143,24.2222222 C143,11.9491852 132.254857,2 119,2 L119,2 Z M121.385093,31.9259259 L115.273292,25.4074074 L103.347826,31.9259259 L116.465839,18 L122.726708,24.5185185 L134.503106,18 L121.385093,31.9259259 L121.385093,31.9259259 Z" id="Messenger" sketch:type="MSShapeGroup"></path>
            </g>
        </g>
    </g>
</svg>