<?xml version="1.0" encoding="UTF-8" standalone="no"?>
<svg width="53px" height="47px" viewBox="0 0 53 47" version="1.1" xmlns="http://www.w3.org/2000/svg" xmlns:xlink="http://www.w3.org/1999/xlink" xmlns:sketch="http://www.bohemiancoding.com/sketch/ns">
    <!-- Generator: Sketch 3.4.4 (17249) - http://www.bohemiancoding.com/sketch -->
    <title>Sketch-black</title>
    <desc>Created with Sketch.</desc>
    <defs></defs>
    <g id="Icons" stroke="none" stroke-width="1" fill="none" fill-rule="evenodd" sketch:type="MSPage">
        <g id="Black" sketch:type="MSArtboardGroup" transform="translate(-697.000000, -900.000000)" fill="#0B0B0A">
            <g id="Line-8" sketch:type="MSLayerGroup" transform="translate(205.000000, 898.000000)">
                <path d="M544.087143,13.043 L536.105143,6.996 C535.926143,6.808 535.724143,6.654 535.502143,6.54 L530.125143,2.466 C529.725143,2.164 529.238143,2 528.737143,2 L508.263143,2 C507.762143,2 507.274143,2.164 506.875143,2.466 L492.912143,13.043 C491.897143,13.812 491.699143,15.26 492.470143,16.274 L516.669143,48.092 C517.590143,49.303 519.409143,49.303 520.330143,48.092 L544.530143,16.274 C545.301143,15.26 545.102143,13.812 544.087143,13.043 L544.087143,13.043 Z M509.035143,6.606 L527.965143,6.606 L530.572143,8.581 L527.198143,11.079 L510.720143,10.949 L506.559143,8.481 L509.035143,6.606 L509.035143,6.606 Z M511.297143,15.559 L526.762143,15.682 L531.105143,21.731 L507.133143,21.731 L511.297143,15.559 L511.297143,15.559 Z M502.596143,11.483 L506.809143,13.982 L501.968143,21.159 L497.528143,15.322 L502.596143,11.483 L502.596143,11.483 Z M518.500143,42.896 L505.906143,26.337 L531.094143,26.337 L518.500143,42.896 L518.500143,42.896 Z M535.715143,20.261 L531.140143,13.889 L534.396143,11.477 L539.471143,15.322 L535.715143,20.261 L535.715143,20.261 Z" id="Sketch" sketch:type="MSShapeGroup"></path>
            </g>
        </g>
    </g>
</svg>