<?xml version="1.0" encoding="utf-8"?>
<!-- Generator: Adobe Illustrator 18.1.1, SVG Export Plug-In . SVG Version: 6.00 Build 0)  -->
<!DOCTYPE svg PUBLIC "-//W3C//DTD SVG 1.1//EN" "http://www.w3.org/Graphics/SVG/1.1/DTD/svg11.dtd">
<svg version="1.1" id="Layer_1" xmlns="http://www.w3.org/2000/svg" xmlns:xlink="http://www.w3.org/1999/xlink" x="0px" y="0px"
	 width="32px" height="32px" viewBox="0 0 32 32" enable-background="new 0 0 32 32" xml:space="preserve">
<path fill="#444444" d="M16,0C7.2,0,0,7.2,0,16c0,8.8,7.2,16,16,16s16-7.2,16-16C32,7.2,24.8,0,16,0z M20.7,18.7
	c-2.2,2.8-4,4.2-5.5,4.2c-0.9,0-1.7-0.9-2.4-2.6c-0.4-1.6-0.9-3.2-1.3-4.7c-0.5-1.7-1-2.6-1.5-2.6c-0.1,0-0.5,0.3-1.3,0.8l-0.8-1
	c0.8-0.7,1.6-1.4,2.3-2.1c1.1-0.9,1.8-1.4,2.4-1.4c1.2-0.1,2,0.7,2.3,2.6c0.3,2,0.5,3.2,0.6,3.7c0.4,1.6,0.8,2.4,1.2,2.4
	c0.3,0,0.8-0.5,1.5-1.6c0.7-1.1,1-1.9,1.1-2.4c0.1-0.9-0.3-1.4-1.1-1.4c-0.4,0-0.8,0.1-1.2,0.3c0.8-2.6,2.3-3.8,4.5-3.8
	c1.6,0,2.4,1.1,2.3,3.2C23.9,13.8,22.8,16,20.7,18.7z"/>
</svg>
