<?xml version="1.0" encoding="utf-8"?>
<!-- Generator: Adobe Illustrator 18.1.1, SVG Export Plug-In . SVG Version: 6.00 Build 0)  -->
<!DOCTYPE svg PUBLIC "-//W3C//DTD SVG 1.1//EN" "http://www.w3.org/Graphics/SVG/1.1/DTD/svg11.dtd">
<svg version="1.1" id="Layer_1" xmlns="http://www.w3.org/2000/svg" xmlns:xlink="http://www.w3.org/1999/xlink" x="0px" y="0px"
	 width="32px" height="32px" viewBox="0 0 32 32" enable-background="new 0 0 32 32" xml:space="preserve">
<path fill-rule="evenodd" clip-rule="evenodd" fill="#444444" d="M4,0C1.8,0,0,1.8,0,4v24c0,2.2,1.8,4,4,4h24c2.2,0,4-1.8,4-4V4
	c0-2.2-1.8-4-4-4H4L4,0z M18,6v10c0,1.1,0.9,2,2,2h6c1.1,0,2-0.9,2-2V6c0-1.1-0.9-2-2-2h-6C18.9,4,18,4.9,18,6z M4,6v18
	c0,1.1,0.9,2,2,2h6c1.1,0,2-0.9,2-2V6c0-1.1-0.9-2-2-2H6C4.9,4,4,4.9,4,6z"/>
</svg>
