<?xml version="1.0" encoding="utf-8"?>
<!-- Generator: Adobe Illustrator 18.1.1, SVG Export Plug-In . SVG Version: 6.00 Build 0)  -->
<!DOCTYPE svg PUBLIC "-//W3C//DTD SVG 1.1//EN" "http://www.w3.org/Graphics/SVG/1.1/DTD/svg11.dtd">
<svg version="1.1" id="Layer_1" xmlns="http://www.w3.org/2000/svg" xmlns:xlink="http://www.w3.org/1999/xlink" x="0px" y="0px"
	 width="32px" height="32px" viewBox="0 0 32 32" enable-background="new 0 0 32 32" xml:space="preserve">
<path fill="#444444" d="M12.9,14.9c0,0,3-0.2,3-3.8c0-3.6-2.5-5.3-5.6-5.3H4.6H4.4H0v19.8h4.4h0.2h5.8c0,0,6.3,0.2,6.3-5.9
	C16.6,19.9,16.9,14.9,12.9,14.9z M4.6,9.4h5h0.7c0,0,1.4,0,1.4,2.1s-0.8,2.4-1.8,2.4H4.6V9.4z M10.1,22.2H4.6v-5.3h5.8
	c0,0,2.1,0,2.1,2.7C12.4,21.9,10.9,22.2,10.1,22.2z"/>
<path fill="#444444" d="M25,10.9c-7.6,0-7.6,7.6-7.6,7.6s-0.5,7.6,7.6,7.6c0,0,6.8,0.4,6.8-5.3h-3.5c0,0,0.1,2.1-3.2,2.1
	c0,0-3.5,0.2-3.5-3.5h10.3C31.9,19.5,33.1,10.9,25,10.9z M28.1,16.9h-6.5c0,0,0.4-3.1,3.5-3.1C28.2,13.8,28.1,16.9,28.1,16.9z"/>
<rect x="20.8" y="7" fill="#444444" width="8.2" height="2"/>
</svg>
