<?xml version="1.0" encoding="utf-8"?>
<!-- Generator: Adobe Illustrator 18.1.1, SVG Export Plug-In . SVG Version: 6.00 Build 0)  -->
<!DOCTYPE svg PUBLIC "-//W3C//DTD SVG 1.1//EN" "http://www.w3.org/Graphics/SVG/1.1/DTD/svg11.dtd">
<svg version="1.1" id="Layer_1" xmlns="http://www.w3.org/2000/svg" xmlns:xlink="http://www.w3.org/1999/xlink" x="0px" y="0px"
	 width="32px" height="32px" viewBox="0 0 32 32" enable-background="new 0 0 32 32" xml:space="preserve">
<path fill="#444444" d="M20.2,14.2c-0.3,0-0.6,0.1-0.8,0.2c-0.3,0.1-0.5,0.3-0.8,0.5c-0.2,0.2-0.5,0.4-0.7,0.6
	c-0.2,0.2-0.4,0.4-0.6,0.6c0.2,0.2,0.4,0.4,0.6,0.6c0.2,0.2,0.5,0.4,0.7,0.6c0.2,0.2,0.5,0.3,0.8,0.4c0.3,0.1,0.6,0.2,0.9,0.2
	c0.5,0,1-0.2,1.2-0.5c0.3-0.3,0.4-0.8,0.4-1.3c0-0.5-0.2-0.9-0.5-1.3C21.2,14.3,20.7,14.2,20.2,14.2z"/>
<path fill="#444444" d="M13.4,14.8c-0.2-0.2-0.5-0.3-0.8-0.5c-0.3-0.1-0.5-0.2-0.8-0.2c-0.5,0-1,0.2-1.3,0.5
	c-0.3,0.4-0.5,0.8-0.5,1.3c0,0.5,0.1,0.9,0.4,1.3c0.3,0.3,0.7,0.5,1.2,0.5c0.3,0,0.6-0.1,0.9-0.2c0.3-0.1,0.5-0.2,0.8-0.4
	c0.2-0.2,0.5-0.4,0.7-0.6c0.2-0.2,0.4-0.4,0.6-0.6c-0.2-0.2-0.4-0.4-0.6-0.6C13.9,15.2,13.7,15,13.4,14.8z"/>
<path fill="#444444" d="M0,0v32h32V0H0z M23.7,17.5c-0.2,0.5-0.4,0.9-0.7,1.3c-0.3,0.4-0.7,0.7-1.2,0.9c-0.5,0.2-1,0.3-1.6,0.3
	c-0.5,0-0.9-0.1-1.3-0.2c-0.4-0.1-0.8-0.3-1.1-0.5c-0.3-0.2-0.7-0.5-1-0.8c-0.3-0.3-0.6-0.6-0.9-0.9c-0.3,0.3-0.6,0.6-0.9,0.9
	c-0.3,0.3-0.6,0.6-1,0.8c-0.3,0.2-0.7,0.4-1.1,0.5c-0.4,0.1-0.8,0.2-1.3,0.2c-0.6,0-1.1-0.1-1.6-0.3c-0.5-0.2-0.9-0.5-1.2-0.9
	c-0.3-0.4-0.6-0.8-0.7-1.3C8.1,17,8,16.5,8,15.9c0-0.6,0.1-1.1,0.3-1.6c0.2-0.5,0.4-0.9,0.7-1.3c0.3-0.4,0.7-0.6,1.2-0.8
	c0.5-0.2,1-0.3,1.6-0.3c0.5,0,0.9,0.1,1.3,0.2c0.4,0.1,0.8,0.3,1.1,0.6c0.3,0.2,0.7,0.5,1,0.8c0.3,0.3,0.6,0.6,0.9,1
	c0.3-0.3,0.6-0.7,0.9-1c0.3-0.3,0.6-0.6,1-0.8c0.3-0.2,0.7-0.4,1.1-0.6c0.4-0.1,0.8-0.2,1.3-0.2c0.6,0,1.1,0.1,1.6,0.3
	c0.5,0.2,0.9,0.5,1.2,0.8c0.3,0.4,0.6,0.8,0.7,1.3c0.2,0.5,0.3,1,0.3,1.6C24,16.5,23.9,17,23.7,17.5z"/>
</svg>
