<?xml version="1.0" encoding="utf-8"?>
<!-- Generator: Adobe Illustrator 18.1.1, SVG Export Plug-In . SVG Version: 6.00 Build 0)  -->
<!DOCTYPE svg PUBLIC "-//W3C//DTD SVG 1.1//EN" "http://www.w3.org/Graphics/SVG/1.1/DTD/svg11.dtd">
<svg version="1.1" id="Layer_1" xmlns="http://www.w3.org/2000/svg" xmlns:xlink="http://www.w3.org/1999/xlink" x="0px" y="0px"
	 width="32px" height="32px" viewBox="0 0 32 32" enable-background="new 0 0 32 32" xml:space="preserve">
<rect x="14.3" y="14.2" transform="matrix(-0.3176 -0.9482 0.9482 -0.3176 5.9097 36.253)" fill="#444444" width="3.4" height="3.5"/>
<path fill="#444444" d="M0,0v32h32V0H0z M23.1,18.1l-1.6,0.5l0.6,1.7c0.2,0.7-0.1,1.4-0.8,1.6c-0.1,0-0.3,0.1-0.4,0.1
	c-0.5,0-1-0.4-1.2-0.9L19,19.5l-3.3,1.1l0.6,1.7c0.2,0.7-0.1,1.4-0.8,1.6C15.3,24,15.1,24,15,24c-0.5,0-1-0.4-1.2-0.9l-0.6-1.7
	L11.6,22c-0.1,0-0.3,0.1-0.4,0.1c-0.5,0-1-0.4-1.2-0.9c-0.2-0.7,0.1-1.4,0.8-1.6l1.6-0.5l-1.1-3.2l-1.6,0.5c-0.1,0-0.3,0.1-0.4,0.1
	c-0.5,0-1-0.4-1.2-0.9c-0.2-0.7,0.1-1.4,0.8-1.6l1.6-0.5L10,11.6c-0.2-0.7,0.1-1.4,0.8-1.6c0.7-0.2,1.4,0.1,1.6,0.8l0.6,1.7l3.3-1.1
	l-0.6-1.7c-0.2-0.7,0.1-1.4,0.8-1.6c0.7-0.2,1.4,0.1,1.6,0.8l0.6,1.7l1.6-0.5c0.7-0.2,1.4,0.1,1.6,0.8c0.2,0.7-0.1,1.4-0.8,1.6
	L19.6,13l1.1,3.2l1.6-0.5c0.7-0.2,1.4,0.1,1.6,0.8C24.1,17.2,23.8,17.9,23.1,18.1z"/>
</svg>
