<?xml version="1.0" encoding="utf-8"?>
<!-- Generator: Adobe Illustrator 18.1.1, SVG Export Plug-In . SVG Version: 6.00 Build 0)  -->
<!DOCTYPE svg PUBLIC "-//W3C//DTD SVG 1.1//EN" "http://www.w3.org/Graphics/SVG/1.1/DTD/svg11.dtd">
<svg version="1.1" id="Layer_1" xmlns="http://www.w3.org/2000/svg" xmlns:xlink="http://www.w3.org/1999/xlink" x="0px" y="0px"
	 width="32px" height="32px" viewBox="0 0 32 32" enable-background="new 0 0 32 32" xml:space="preserve">
<path fill-rule="evenodd" clip-rule="evenodd" fill="#444444" d="M31.1,12.4c-0.7-0.3-3.6,0-4.4-0.7c-0.6-0.5-0.6-1.5-0.8-2.7
	c-0.4-2.1-0.5-2.6-0.9-3.4c-1.4-3-4.8-5.5-7.8-5.5h-7.1C4.6,0,0.1,4.6,0.1,10.1v11.8C0.1,27.5,4.6,32,10.2,32h11.6
	c5.6,0,10.1-4.5,10.1-10.1l0.1-8.2C31.9,13.7,31.9,12.7,31.1,12.4z M10.3,8.3h5.6c1.1,0,1.9,0.9,1.9,1.9c0,1.1-0.9,1.9-1.9,1.9h-5.6
	c-1.1,0-1.9-0.9-1.9-1.9C8.4,9.1,9.2,8.3,10.3,8.3z M21.7,23.7H10.3c-1.1,0-1.9-0.9-1.9-1.9c0-1.1,0.9-1.9,1.9-1.9h11.4
	c1.1,0,1.9,0.9,1.9,1.9C23.6,22.8,22.7,23.7,21.7,23.7z"/>
</svg>
