<?xml version="1.0" encoding="utf-8"?>
<!-- Generator: Adobe Illustrator 18.1.1, SVG Export Plug-In . SVG Version: 6.00 Build 0)  -->
<!DOCTYPE svg PUBLIC "-//W3C//DTD SVG 1.1//EN" "http://www.w3.org/Graphics/SVG/1.1/DTD/svg11.dtd">
<svg version="1.1" id="Layer_1" xmlns="http://www.w3.org/2000/svg" xmlns:xlink="http://www.w3.org/1999/xlink" x="0px" y="0px"
	 width="32px" height="32px" viewBox="0 0 32 32" enable-background="new 0 0 32 32" xml:space="preserve">
<path fill="#444444" d="M30.2,14.6c-3.7-3.7-7.3-7.3-11-11c-0.5-0.5-1-1.1-1.7-1.4c-0.7-0.3-1.5-0.4-2.3-0.2c-0.7,0.2-1.3,0.5-1.7,1
	C9.3,7.1,5.2,11.2,1.1,15.3c-0.5,0.5-0.8,1.1-1,1.7c-0.3,1.2,0.1,2.5,1,3.4c2.9,2.9,5.8,5.8,8.7,8.7c0.6,0.7,1.6,1,2.5,1
	c2.4,0,4.7,0,7.1,0c1.1,0.1,2.1-0.3,2.9-1.1c2.6-2.6,5.3-5.3,7.9-7.9c0.4-0.4,0.9-0.8,1.2-1.3c0.6-0.9,0.7-2.2,0.4-3.2
	C31.5,15.8,30.8,15.2,30.2,14.6z M9.6,19.3c-0.4,0.5-1.2,0.4-1.8,0.3c-0.5-0.4-1-0.9-1.5-1.5c-0.2-0.3,0.1-0.6,0.3-0.8
	c2.7-2.7,5.4-5.4,8.1-8.1c0.4-0.4,0.7-0.7,1.1-1c0.4-0.2,0.6,0.2,0.9,0.4c0.5,0.5,1.1,1,1.5,1.6c0.2,0.3,0,0.6-0.2,0.8
	C15.2,13.7,12.4,16.5,9.6,19.3z M18.2,25.7c-0.4,0.5-0.9,1-1.4,1.4c-0.5,0.1-1,0.1-1.4,0c-0.5-0.2-0.8-0.7-1.1-1
	c-0.3-0.3-0.7-0.6-0.3-1c0.6-0.6,1.2-1.2,1.8-1.8c0.2-0.2,0.6-0.1,0.8,0.1c0.5,0.5,1.1,1.1,1.6,1.6C18.3,25.1,18.4,25.4,18.2,25.7z
	 M18,18.4c-1.5,1.5-3.1,3.1-4.6,4.6c-0.4,0.5-1.2,0.4-1.8,0.3c-0.6-0.4-1-0.9-1.5-1.4c-0.3-0.3,0-0.7,0.2-0.9
	c1.5-1.5,3.1-3.1,4.6-4.6c0.3-0.3,0.5-0.6,0.9-0.8c0.3-0.1,0.6,0.2,0.8,0.4c0.5,0.5,1.1,1,1.6,1.6C18.4,17.9,18.2,18.2,18,18.4z"/>
</svg>
