<?xml version="1.0" encoding="utf-8"?>
<!-- Generator: Adobe Illustrator 18.1.1, SVG Export Plug-In . SVG Version: 6.00 Build 0)  -->
<!DOCTYPE svg PUBLIC "-//W3C//DTD SVG 1.1//EN" "http://www.w3.org/Graphics/SVG/1.1/DTD/svg11.dtd">
<svg version="1.1" id="Layer_1" xmlns="http://www.w3.org/2000/svg" xmlns:xlink="http://www.w3.org/1999/xlink" x="0px" y="0px"
	 width="32px" height="32px" viewBox="0 0 32 32" enable-background="new 0 0 32 32" xml:space="preserve">
<path fill="#444444" d="M15.2,0.2L0.8,6.9c-0.4,0.2-0.4,0.8,0,1l14.5,6.7c0.4,0.2,0.9,0.2,1.4,0l14.5-6.7c0.4-0.2,0.4-0.8,0-1
	L16.8,0.2C16.3-0.1,15.7-0.1,15.2,0.2z"/>
<path fill="#444444" d="M31.2,15.6l-3-1.4c-0.4-0.2-0.9-0.2-1.4,0l-10.2,4.7c-0.4,0.2-0.9,0.2-1.4,0L5.1,14.2
	c-0.4-0.2-0.9-0.2-1.4,0l-3,1.4c-0.4,0.2-0.4,0.8,0,1l14.5,6.7c0.4,0.2,0.9,0.2,1.4,0l14.5-6.7C31.7,16.4,31.7,15.8,31.2,15.6z"/>
<path fill="#444444" d="M31.2,24.1l-3-1.4c-0.4-0.2-0.9-0.2-1.4,0l-10.2,4.7c-0.4,0.2-0.9,0.2-1.4,0L5.1,22.7
	c-0.4-0.2-0.9-0.2-1.4,0l-3,1.4c-0.4,0.2-0.4,0.8,0,1l14.5,6.7c0.4,0.2,0.9,0.2,1.4,0l14.5-6.7C31.7,25,31.7,24.3,31.2,24.1z"/>
</svg>
