<?xml version="1.0" encoding="utf-8"?>
<!-- Generator: Adobe Illustrator 18.1.1, SVG Export Plug-In . SVG Version: 6.00 Build 0)  -->
<!DOCTYPE svg PUBLIC "-//W3C//DTD SVG 1.1//EN" "http://www.w3.org/Graphics/SVG/1.1/DTD/svg11.dtd">
<svg version="1.1" id="Layer_1" xmlns="http://www.w3.org/2000/svg" xmlns:xlink="http://www.w3.org/1999/xlink" x="0px" y="0px"
	 width="32px" height="32px" viewBox="0 0 32 32" enable-background="new 0 0 32 32" xml:space="preserve">
<path fill="#444444" d="M13.2,16.4h-2.9v2.7H13c0.4,0,1.2-0.1,1.2-1.3C14.2,16.4,13.2,16.4,13.2,16.4z"/>
<path fill="#444444" d="M20.6,14.9c-1.5,0-1.7,1.5-1.7,1.5h3.3C22.1,16.4,22.1,14.9,20.6,14.9z"/>
<path fill="#444444" d="M13.9,13.7c0-1-0.7-1-0.7-1h-0.4h-2.5v2.2H13C13.5,14.9,13.9,14.8,13.9,13.7z"/>
<path fill="#444444" d="M16,0C7.2,0,0,7.2,0,16c0,8.8,7.2,16,16,16s16-7.2,16-16C32,7.2,24.8,0,16,0z M18.4,11.5h4.1v1.2h-4.1V11.5z
	 M16.3,17.9c0,3-3.2,2.9-3.2,2.9h-2.9h-0.1H8v-9.9h2.2h0.1h2.9c1.6,0,2.8,0.9,2.8,2.6s-1.5,1.9-1.5,1.9
	C16.5,15.5,16.3,17.9,16.3,17.9z M24,17.8h-5.1c0,1.8,1.7,1.7,1.7,1.7c1.6,0,1.6-1.1,1.6-1.1h1.7c0,2.8-3.4,2.6-3.4,2.6
	c-4.1,0-3.8-3.8-3.8-3.8s0-3.8,3.8-3.8C24.5,13.5,24,17.8,24,17.8z"/>
</svg>
