<?xml version="1.0" encoding="utf-8"?>
<!-- Generator: Adobe Illustrator 18.1.1, SVG Export Plug-In . SVG Version: 6.00 Build 0)  -->
<!DOCTYPE svg PUBLIC "-//W3C//DTD SVG 1.1//EN" "http://www.w3.org/Graphics/SVG/1.1/DTD/svg11.dtd">
<svg version="1.1" id="Layer_1" xmlns="http://www.w3.org/2000/svg" xmlns:xlink="http://www.w3.org/1999/xlink" x="0px" y="0px"
	 width="32px" height="32px" viewBox="0 0 32 32" enable-background="new 0 0 32 32" xml:space="preserve">
<path fill="#444444" d="M14.1,22.9l-1.2-3.2c0,0-1.9,2.1-4.8,2.1c-2.5,0-4.3-2.2-4.3-5.7c0-4.5,2.3-6.1,4.5-6.1
	c3.2,0,4.3,2.1,5.1,4.8l1.2,3.7c1.2,3.6,3.4,6.4,9.7,6.4c4.5,0,7.6-1.4,7.6-5.1c0-3-1.7-4.5-4.8-5.2l-2.3-0.5
	c-1.6-0.4-2.1-1-2.1-2.1c0-1.2,1-2,2.6-2c1.8,0,2.7,0.7,2.9,2.2l3.7-0.4c-0.3-3.3-2.6-4.7-6.3-4.7c-3.3,0-6.5,1.2-6.5,5.2
	c0,2.5,1.2,4.1,4.3,4.8l2.5,0.6c1.9,0.4,2.5,1.2,2.5,2.3c0,1.4-1.3,1.9-3.8,1.9c-3.7,0-5.2-1.9-6.1-4.6l-1.2-3.7
	c-1.5-4.8-4-6.5-8.9-6.5C2.9,7.1,0,10.5,0,16.3c0,5.6,2.9,8.6,8,8.6C12.1,24.9,14.1,22.9,14.1,22.9L14.1,22.9z"/>
</svg>
