<?xml version="1.0" encoding="utf-8"?>
<!-- Generator: Adobe Illustrator 18.1.1, SVG Export Plug-In . SVG Version: 6.00 Build 0)  -->
<!DOCTYPE svg PUBLIC "-//W3C//DTD SVG 1.1//EN" "http://www.w3.org/Graphics/SVG/1.1/DTD/svg11.dtd">
<svg version="1.1" id="Layer_1" xmlns="http://www.w3.org/2000/svg" xmlns:xlink="http://www.w3.org/1999/xlink" x="0px" y="0px"
	 width="32px" height="32px" viewBox="0 0 32 32" enable-background="new 0 0 32 32" xml:space="preserve">
<path fill="#444444" d="M16,0C7.2,0,0,7.2,0,16c0,8.8,7.2,16,16,16s16-7.2,16-16C32,7.2,24.8,0,16,0z M22.4,12.7c0,0.1,0,0.3,0,0.4
	c0,4.3-3.3,9.3-9.3,9.3c-1.9,0-3.6-0.5-5-1.5c0.3,0,0.5,0,0.8,0c1.5,0,3-0.5,4.1-1.4c-1.4,0-2.6-1-3.1-2.3c0.2,0,0.4,0.1,0.6,0.1
	c0.3,0,0.6,0,0.9-0.1c-1.5-0.3-2.6-1.6-2.6-3.2c0,0,0,0,0,0c0.4,0.2,0.9,0.4,1.5,0.4c-0.9-0.6-1.5-1.6-1.5-2.7
	c0-0.6,0.2-1.2,0.4-1.7c1.6,2,4,3.3,6.8,3.4c-0.1-0.2-0.1-0.5-0.1-0.7c0-1.8,1.5-3.3,3.3-3.3c0.9,0,1.8,0.4,2.4,1
	c0.7-0.1,1.5-0.4,2.1-0.8c-0.2,0.8-0.8,1.4-1.4,1.8c0.7-0.1,1.3-0.3,1.9-0.5C23.6,11.7,23,12.3,22.4,12.7z"/>
</svg>
