<?xml version="1.0" encoding="utf-8"?>
<!-- Generator: Adobe Illustrator 18.1.1, SVG Export Plug-In . SVG Version: 6.00 Build 0)  -->
<!DOCTYPE svg PUBLIC "-//W3C//DTD SVG 1.1//EN" "http://www.w3.org/Graphics/SVG/1.1/DTD/svg11.dtd">
<svg version="1.1" id="Layer_1" xmlns="http://www.w3.org/2000/svg" xmlns:xlink="http://www.w3.org/1999/xlink" x="0px" y="0px"
	 width="32px" height="32px" viewBox="0 0 32 32" enable-background="new 0 0 32 32" xml:space="preserve">
<path fill="#444444" d="M0,0v32h32V0H0z M22.7,22.7c-0.8,0.8-2,1.3-3.2,1.3c-0.8,0-1.5-0.2-2.2-0.6c-0.4,0.1-0.9,0.1-1.3,0.1
	c-1,0-2-0.2-2.9-0.6c-0.9-0.4-1.7-0.9-2.4-1.6C10,20.6,9.4,19.8,9,18.9C8.6,18,8.4,17,8.4,16c0-0.4,0-0.9,0.1-1.3
	C8.2,14,8,13.3,8,12.5c0-1.2,0.5-2.3,1.3-3.2c0.8-0.8,2-1.3,3.2-1.3c0.7,0,1.5,0.2,2.1,0.5c0,0,0,0,0,0C15,8.5,15.5,8.4,16,8.4
	c1,0,2,0.2,2.9,0.6c0.9,0.4,1.7,0.9,2.4,1.6c0.7,0.7,1.2,1.5,1.6,2.4c0.4,0.9,0.6,1.9,0.6,2.9c0,0.5,0,0.9-0.1,1.4
	c0.4,0.7,0.6,1.4,0.6,2.2C24,20.7,23.5,21.8,22.7,22.7z"/>
<path fill="#444444" d="M17.4,15.1l-1.8-0.4c-0.7-0.2-1.4-0.4-1.4-1c0-0.6,0.5-1.1,1.5-1.1c2,0,1.8,1.4,2.8,1.4c0.5,0,1-0.3,1-0.8
	c0-1.2-1.9-2.1-3.6-2.1c-1.8,0-3.7,0.8-3.7,2.8c0,1,0.3,2,2.3,2.5l2.4,0.6c0.7,0.2,0.9,0.6,0.9,1c0,0.6-0.6,1.2-1.7,1.2
	c-2.1,0-1.8-1.6-3-1.6c-0.5,0-0.9,0.4-0.9,0.9c0,1,1.2,2.3,3.9,2.3c2.6,0,3.8-1.2,3.8-2.9C19.9,16.6,19.4,15.5,17.4,15.1z"/>
</svg>
