<?xml version="1.0" encoding="utf-8"?>
<!-- Generator: Adobe Illustrator 18.1.1, SVG Export Plug-In . SVG Version: 6.00 Build 0)  -->
<!DOCTYPE svg PUBLIC "-//W3C//DTD SVG 1.1//EN" "http://www.w3.org/Graphics/SVG/1.1/DTD/svg11.dtd">
<svg version="1.1" id="Layer_1" xmlns="http://www.w3.org/2000/svg" xmlns:xlink="http://www.w3.org/1999/xlink" x="0px" y="0px"
	 width="32px" height="32px" viewBox="0 0 32 32" enable-background="new 0 0 32 32" xml:space="preserve">
<ellipse fill="#444444" cx="26.4" cy="11.3" rx="5.1" ry="5.1"/>
<ellipse fill="#444444" cx="14.9" cy="12.7" rx="4.6" ry="4.6"/>
<ellipse fill="#444444" cx="4.5" cy="14.1" rx="4.1" ry="4.1"/>
<path fill="#444444" d="M4.5,19.1c-2.6,0-4.5,2.3-4.5,4.7v1.6l0,0c0,0.2,0.2,0.4,0.4,0.4h0.1h7.9h0.1c0.2,0,0.4-0.2,0.4-0.4l0,0
	v-1.6C9.1,21.4,7.1,19.1,4.5,19.1z"/>
<path fill="#444444" d="M14.9,18.4c-2.9,0-5,2.6-5,5.2v1.8l0,0c0,0.3,0.2,0.5,0.5,0.5h0.2h8.8h0.2c0.3,0,0.5-0.2,0.5-0.5l0,0v-1.8
	C20,20.9,17.8,18.4,14.9,18.4z"/>
<path fill="#444444" d="M26.4,17.5c-3.2,0-5.6,2.8-5.6,5.8v2l0,0c0,0.3,0.2,0.5,0.5,0.5h0.2h9.8h0.2c0.3,0,0.5-0.2,0.5-0.5l0,0v-2
	C32,20.4,29.6,17.5,26.4,17.5z"/>
</svg>
