<?xml version="1.0" encoding="utf-8"?>
<!-- Generator: Adobe Illustrator 18.1.1, SVG Export Plug-In . SVG Version: 6.00 Build 0)  -->
<!DOCTYPE svg PUBLIC "-//W3C//DTD SVG 1.1//EN" "http://www.w3.org/Graphics/SVG/1.1/DTD/svg11.dtd">
<svg version="1.1" id="Layer_1" xmlns="http://www.w3.org/2000/svg" xmlns:xlink="http://www.w3.org/1999/xlink" x="0px" y="0px"
	 width="32px" height="32px" viewBox="0 0 32 32" enable-background="new 0 0 32 32" xml:space="preserve">
<path fill="#444444" d="M19.5,14.6c-0.6,0-0.8,0.5-0.9,1c0.2,0,0.4,0,0.6,0c0.4,0,0.8,0.1,1.1,0.2C20.4,15.3,20.3,14.7,19.5,14.6z"
	/>
<path fill="#444444" d="M0,0v32h32V0H0z M9.6,11.3l2.9-2.9c0,0,0,0,0,0l-0.1,0.1c-0.1,0.2-0.2,0.5-0.2,0.8v0c0,0.4,0,1.6,0,1.6
	c0,0.1-0.1,0.2-0.2,0.2h-1.5c0,0,0,0,0,0c-0.4,0-0.7,0.1-0.9,0.2C9.7,11.3,9.6,11.3,9.6,11.3C9.6,11.3,9.6,11.3,9.6,11.3z
	 M22.7,17.6c-0.2,2.3-0.6,3.6-0.7,4.1c-0.7,2.2-1.3,2.3-3.1,2.3c-2.2,0-2.9-0.3-2.9-2.1c0-2,0.9-2,2.5-2c0.2,0,0,0.2,0,0.6
	c0,0.4,0.1,0.5-0.1,0.5c-0.5,0-1.1-0.1-1.1,0.6c0,0.8,0.4,0.7,1.3,0.7c1.2,0,1.4-0.1,1.4-1.2c0-1.8-0.5-2.1-1.2-2.1
	c-0.8-0.1-1.5-0.2-1.9-0.3c-0.9-0.3-0.9-1.6-0.9-1.9c0-0.1-0.1,0-0.1,0c0,0.5,0,1.2-0.3,1.9c-0.1,0.2-0.1,0.4-0.1,0.4
	c-0.3,0.6-0.8,0.4-1.6,0.3c-0.8-0.1-2.4-0.4-3.2-0.8c-0.3-0.2-0.4-0.3-0.6-0.6c-0.4-0.9-0.9-3.8-0.9-4.2c-0.1-0.5-0.1-0.8-0.1-0.8
	c0-0.3,0-0.7,0.2-0.9c0.1-0.1,0.2-0.3,0.4-0.3c0.2-0.1,0.4-0.1,0.8-0.1h1.5c0.3,0,0.6-0.3,0.6-0.6c0,0,0-0.3,0-0.7c0-0.4,0-0.8,0-1
	c0-0.3,0.1-0.5,0.2-0.7c0.2-0.3,0.5-0.4,0.8-0.5c0.4-0.1,1.8-0.2,2.7,0.2c0.3,0.1,0.7,0.5,0.7,1c0.5,0,1.4,0,2.2,0.1
	c0.9,0.1,1.7,0.2,2.1,0.4c0.3,0.1,0.7,0.4,0.8,1.1C22.5,11.9,22.8,16.2,22.7,17.6z"/>
</svg>
