<?xml version="1.0" encoding="utf-8"?>
<!-- Generator: Adobe Illustrator 18.1.1, SVG Export Plug-In . SVG Version: 6.00 Build 0)  -->
<!DOCTYPE svg PUBLIC "-//W3C//DTD SVG 1.1//EN" "http://www.w3.org/Graphics/SVG/1.1/DTD/svg11.dtd">
<svg version="1.1" id="Layer_1" xmlns="http://www.w3.org/2000/svg" xmlns:xlink="http://www.w3.org/1999/xlink" x="0px" y="0px"
	 width="32px" height="32px" viewBox="0 0 32 32" enable-background="new 0 0 32 32" xml:space="preserve">
<path fill="#444444" d="M32,12.5c0-1.2-0.5-8.5-0.5-8.5c0-1.2-0.4-1.9-1-2.5c-0.5-0.5-1.3-1-2.5-1c0,0-7.3-0.5-8.5-0.5
	c-1.8,0-2.9-0.1-5.1,2.2c-1.1,1.1-13,13-13.5,13.5c-0.5,0.5-2.2,2.5,0.7,5.4l9.4,9.4c2.9,2.9,4.9,1.2,5.4,0.7
	c0.5-0.5,12.4-12.4,13.5-13.5C32.1,15.4,32,14.2,32,12.5z M19.3,16.4l4.1,1.9L21.9,21l-3.8-2.5c-0.1-0.1-0.2-0.1-0.3-0.1
	c-0.1,0-0.2,0-0.3,0.1c-0.2,0.1-0.3,0.3-0.3,0.5l0.3,4.5h-3c0,0,0,0,0,0c0,0,0.2-4.5,0.2-4.5c0-0.2-0.1-0.4-0.3-0.5
	c-0.2-0.1-0.4-0.1-0.5,0L10.4,21l-1.6-2.6l4.1-2c0.2-0.1,0.3-0.3,0.3-0.5c0-0.2-0.1-0.4-0.3-0.5l-4.1-1.9l1.5-2.7l3.8,2.5
	c0.2,0.1,0.4,0.1,0.5,0c0.2-0.1,0.3-0.3,0.3-0.5l-0.3-4.5h3l-0.2,4.5c0,0.2,0.1,0.4,0.3,0.5c0.2,0.1,0.4,0.1,0.5,0l3.7-2.5l1.6,2.6
	l-4.1,2c-0.2,0.1-0.3,0.3-0.3,0.5C19,16.1,19.1,16.3,19.3,16.4z M26.3,7.8c-1.1,0-1.9-0.9-1.9-1.9c0-1.1,0.9-1.9,1.9-1.9
	c1.1,0,1.9,0.9,1.9,1.9C28.2,7,27.3,7.8,26.3,7.8z"/>
</svg>
