<?xml version="1.0" encoding="utf-8"?>
<!-- Generator: Adobe Illustrator 18.1.1, SVG Export Plug-In . SVG Version: 6.00 Build 0)  -->
<!DOCTYPE svg PUBLIC "-//W3C//DTD SVG 1.1//EN" "http://www.w3.org/Graphics/SVG/1.1/DTD/svg11.dtd">
<svg version="1.1" id="Layer_1" xmlns="http://www.w3.org/2000/svg" xmlns:xlink="http://www.w3.org/1999/xlink" x="0px" y="0px"
	 width="32px" height="32px" viewBox="0 0 32 32" enable-background="new 0 0 32 32" xml:space="preserve">
<g>
	<path fill="#444444" d="M18.1,11.2L18.1,11.2l-4.5,0V16h4.5v0c1.3,0,2.4-1.1,2.4-2.4C20.5,12.3,19.5,11.2,18.1,11.2z"/>
</g>
<g>
	<g>
		<path fill="#444444" d="M16,0C7.2,0,0,7.2,0,16s7.2,16,16,16s16-7.2,16-16S24.8,0,16,0z M18.1,19.2L18.1,19.2l-4.5,0V24h-3.2V8
			l7.7,0v0c3.1,0,5.6,2.5,5.6,5.6C23.7,16.7,21.2,19.2,18.1,19.2z"/>
	</g>
</g>
</svg>
