<?xml version="1.0" encoding="utf-8"?>
<!-- Generator: Adobe Illustrator 18.1.1, SVG Export Plug-In . SVG Version: 6.00 Build 0)  -->
<!DOCTYPE svg PUBLIC "-//W3C//DTD SVG 1.1//EN" "http://www.w3.org/Graphics/SVG/1.1/DTD/svg11.dtd">
<svg version="1.1" id="Layer_1" xmlns="http://www.w3.org/2000/svg" xmlns:xlink="http://www.w3.org/1999/xlink" x="0px" y="0px"
	 width="32px" height="32px" viewBox="0 0 32 32" enable-background="new 0 0 32 32" xml:space="preserve">
<path fill="#444444" d="M0,16c0,6.3,3.7,11.8,9,14.4L1.4,9.5C0.5,11.5,0,13.7,0,16z"/>
<path fill="#444444" d="M26.8,15.2c0-2-0.7-3.3-1.3-4.4c-0.8-1.3-1.6-2.4-1.6-3.8c0-1.5,1.1-2.8,2.7-2.8c0.1,0,0.1,0,0.2,0
	C24,1.6,20.2,0,16,0C10.4,0,5.5,2.9,2.6,7.2c0.4,0,0.7,0,1,0C5.3,7.2,7.9,7,7.9,7C8.8,7,8.9,8.2,8,8.3c0,0-0.9,0.1-1.8,0.2L12,25.8
	l3.5-10.5L13,8.5c-0.9-0.1-1.7-0.2-1.7-0.2C10.5,8.3,10.6,7,11.5,7c0,0,2.6,0.2,4.2,0.2c1.7,0,4.3-0.2,4.3-0.2
	c0.9-0.1,1,1.2,0.1,1.3c0,0-0.9,0.1-1.8,0.2L24,25.7l1.6-5.3C26.3,18.2,26.8,16.6,26.8,15.2z"/>
<path fill="#444444" d="M16.3,17.4l-4.8,13.9c1.4,0.4,2.9,0.7,4.5,0.7c1.9,0,3.7-0.3,5.3-0.9c0-0.1-0.1-0.1-0.1-0.2L16.3,17.4z"/>
<path fill="#444444" d="M30,8.3c0.1,0.5,0.1,1.1,0.1,1.6c0,1.6-0.3,3.4-1.2,5.7L24,29.8c4.8-2.8,8-7.9,8-13.8
	C32,13.2,31.3,10.6,30,8.3z"/>
</svg>
