<?xml version="1.0" encoding="utf-8"?>
<!-- Generator: Adobe Illustrator 18.1.1, SVG Export Plug-In . SVG Version: 6.00 Build 0)  -->
<!DOCTYPE svg PUBLIC "-//W3C//DTD SVG 1.1//EN" "http://www.w3.org/Graphics/SVG/1.1/DTD/svg11.dtd">
<svg version="1.1" id="Layer_1" xmlns="http://www.w3.org/2000/svg" xmlns:xlink="http://www.w3.org/1999/xlink" x="0px" y="0px"
	 width="32px" height="32px" viewBox="0 0 32 32" enable-background="new 0 0 32 32" xml:space="preserve">
<path fill="#444444" d="M0,0v32h32V0H0z M9.6,22.2c-0.3,0-0.5-0.2-0.4-0.5l2.1-13.1C11.4,8.3,11.6,8,12,8h5c1.7,0,3.1,0.4,3.8,1.2
	c0.7,0.8,0.9,1.6,0.7,2.9c0,0,0,0.2-0.1,0.3c-0.7,3.4-2.9,4.5-5.8,4.5h-1.5c-0.4,0-0.6,0.3-0.7,0.6l0-0.2l-0.8,4.9H9.6z M22.7,15.6
	c-0.6,2.9-2.5,4-5,4h-0.4c-0.3,0-0.6,0.2-0.6,0.5l0,0.2l-0.5,3.1l0,0.1c0,0.3-0.3,0.5-0.6,0.5h-2.1l1-6.2h1.3c3.6,0,5.9-1.8,6.6-5.1
	C22.8,13.4,22.9,14.4,22.7,15.6z"/>
</svg>
