<?xml version="1.0" encoding="utf-8"?>
<!-- Generator: Adobe Illustrator 18.1.1, SVG Export Plug-In . SVG Version: 6.00 Build 0)  -->
<!DOCTYPE svg PUBLIC "-//W3C//DTD SVG 1.1//EN" "http://www.w3.org/Graphics/SVG/1.1/DTD/svg11.dtd">
<svg version="1.1" id="Layer_1" xmlns="http://www.w3.org/2000/svg" xmlns:xlink="http://www.w3.org/1999/xlink" x="0px" y="0px"
	 width="32px" height="32px" viewBox="0 0 32 32" enable-background="new 0 0 32 32" xml:space="preserve">
<path fill="#444444" d="M0,0v32h32V0H0z M17.2,19.6c-1,0-1.9-0.5-2.2-1.1c0,0-0.5,2.1-0.6,2.5c-0.4,1.4-1.6,2.9-1.7,3
	c-0.1,0.1-0.2,0.1-0.2-0.1c0-0.2-0.3-2,0-3.5c0.2-0.7,1.2-5,1.2-5s-0.3-0.6-0.3-1.5c0-1.4,0.8-2.4,1.8-2.4c0.8,0,1.2,0.6,1.2,1.4
	c0,0.8-0.5,2.1-0.8,3.3c-0.2,1,0.5,1.8,1.5,1.8c1.7,0,2.9-2.2,2.9-4.9c0-2-1.4-3.5-3.8-3.5c-2.8,0-4.5,2.1-4.5,4.4
	c0,0.8,0.2,1.4,0.6,1.8c0.2,0.2,0.2,0.3,0.1,0.5c0,0.2-0.1,0.6-0.2,0.7c-0.1,0.2-0.2,0.3-0.5,0.2c-1.3-0.5-1.9-1.9-1.9-3.5
	C9.8,11.1,12,8,16.4,8c3.5,0,5.8,2.5,5.8,5.3C22.2,16.9,20.2,19.6,17.2,19.6z"/>
</svg>
