<?xml version="1.0" encoding="utf-8"?>
<!-- Generator: Adobe Illustrator 18.1.1, SVG Export Plug-In . SVG Version: 6.00 Build 0)  -->
<!DOCTYPE svg PUBLIC "-//W3C//DTD SVG 1.1//EN" "http://www.w3.org/Graphics/SVG/1.1/DTD/svg11.dtd">
<svg version="1.1" id="Layer_1" xmlns="http://www.w3.org/2000/svg" xmlns:xlink="http://www.w3.org/1999/xlink" x="0px" y="0px"
	 width="32px" height="32px" viewBox="0 0 32 32" enable-background="new 0 0 32 32" xml:space="preserve">
<path fill="#444444" d="M0,0v32h32V0H0z M21.2,11.1c1.4,0,2.5,1.1,2.5,2.5c0,1.4-1.1,2.5-2.5,2.5c-1.4,0-2.5-1.1-2.5-2.5
	C18.7,12.3,19.8,11.1,21.2,11.1z M15.5,12.1c1.3,0,2.3,1,2.3,2.3c0,1.3-1,2.3-2.3,2.3c-1.3,0-2.3-1-2.3-2.3
	C13.2,13.1,14.2,12.1,15.5,12.1z M10.3,13c1.1,0,2.1,0.9,2.1,2.1c0,1.1-0.9,2.1-2.1,2.1c-1.1,0-2.1-0.9-2.1-2.1
	C8.2,13.9,9.1,13,10.3,13z M12.5,20.7c0,0.1-0.1,0.2-0.2,0.2h-0.1h-4H8.2c-0.1,0-0.2-0.1-0.2-0.2v-0.8c0-1.2,1-2.3,2.3-2.3
	c1.3,0,2.3,1.1,2.3,2.3V20.7z M18,20.7c0,0.1-0.1,0.2-0.2,0.2h-0.1h-4.4h-0.1c-0.1,0-0.2-0.1-0.2-0.2v-0.9c0-1.3,1.1-2.6,2.5-2.6
	s2.5,1.3,2.5,2.6V20.7z M24,20.6c0,0.1-0.1,0.3-0.3,0.3h-0.1h-4.9h-0.1c-0.1,0-0.3-0.1-0.3-0.3v-1c0-1.5,1.2-2.9,2.8-2.9
	c1.6,0,2.8,1.4,2.8,2.9V20.6z"/>
</svg>
