<?xml version="1.0" encoding="utf-8"?>
<!-- Generator: Adobe Illustrator 18.1.1, SVG Export Plug-In . SVG Version: 6.00 Build 0)  -->
<!DOCTYPE svg PUBLIC "-//W3C//DTD SVG 1.1//EN" "http://www.w3.org/Graphics/SVG/1.1/DTD/svg11.dtd">
<svg version="1.1" id="Layer_1" xmlns="http://www.w3.org/2000/svg" xmlns:xlink="http://www.w3.org/1999/xlink" x="0px" y="0px"
	 width="32px" height="32px" viewBox="0 0 32 32" enable-background="new 0 0 32 32" xml:space="preserve">
<path fill="#444444" d="M16,0C7.2,0,0,7.2,0,16c0,6.8,4.2,12.6,10.2,14.9c-0.1-1.3-0.3-3.2,0.1-4.6c0.3-1.2,1.9-8,1.9-8
	s-0.5-1-0.5-2.4c0-2.2,1.3-3.9,2.9-3.9c1.4,0,2,1,2,2.3c0,1.4-0.9,3.4-1.3,5.3c-0.4,1.6,0.8,2.9,2.4,2.9c2.8,0,5-3,5-7.3
	c0-3.8-2.8-6.5-6.7-6.5c-4.6,0-7.2,3.4-7.2,6.9c0,1.4,0.5,2.8,1.2,3.7c0.1,0.2,0.1,0.3,0.1,0.5c-0.1,0.5-0.4,1.6-0.4,1.8
	C9.5,21.9,9.3,22,9,21.8c-2-0.9-3.2-3.9-3.2-6.2c0-5,3.7-9.7,10.6-9.7c5.6,0,9.9,4,9.9,9.2c0,5.5-3.5,10-8.3,10
	c-1.6,0-3.1-0.8-3.7-1.8c0,0-0.8,3.1-1,3.8c-0.4,1.4-1.3,3.1-2,4.2c1.5,0.5,3.1,0.7,4.7,0.7c8.8,0,16-7.2,16-16C32,7.2,24.8,0,16,0z
	"/>
</svg>
