<?xml version="1.0" encoding="utf-8"?>
<!-- Generator: Adobe Illustrator 18.1.1, SVG Export Plug-In . SVG Version: 6.00 Build 0)  -->
<!DOCTYPE svg PUBLIC "-//W3C//DTD SVG 1.1//EN" "http://www.w3.org/Graphics/SVG/1.1/DTD/svg11.dtd">
<svg version="1.1" id="Layer_1" xmlns="http://www.w3.org/2000/svg" xmlns:xlink="http://www.w3.org/1999/xlink" x="0px" y="0px"
	 width="32px" height="32px" viewBox="0 0 32 32" enable-background="new 0 0 32 32" xml:space="preserve">
<path fill="#444444" d="M13.1,14.1h2.8c0.5,0,1-0.4,1-1c0-0.5-0.4-1-1-1h-2.8c-0.5,0-1,0.4-1,1C12.2,13.6,12.6,14.1,13.1,14.1z"/>
<path fill="#444444" d="M18.8,17.9h-5.7c-0.5,0-1,0.4-1,1c0,0.5,0.4,1,1,1h5.7c0.5,0,1-0.4,1-1C19.8,18.3,19.4,17.9,18.8,17.9z"/>
<path fill="#444444" d="M16,0C7.2,0,0,7.2,0,16c0,8.8,7.2,16,16,16s16-7.2,16-16C32,7.2,24.8,0,16,0z M23.9,19c0,2.8-2.3,5-5.1,5
	h-5.8C10.3,24,8,21.7,8,19v-5.9C8,10.3,10.3,8,13.1,8h3.5c1.5,0,3.2,1.3,3.9,2.8c0.2,0.4,0.3,0.7,0.5,1.7c0.1,0.6,0.1,1.1,0.4,1.4
	c0.4,0.4,1.8,0.2,2.2,0.3c0.4,0.2,0.4,0.7,0.4,0.7L23.9,19z"/>
</svg>
