<?xml version="1.0" encoding="utf-8"?>
<!-- Generator: Adobe Illustrator 18.1.1, SVG Export Plug-In . SVG Version: 6.00 Build 0)  -->
<!DOCTYPE svg PUBLIC "-//W3C//DTD SVG 1.1//EN" "http://www.w3.org/Graphics/SVG/1.1/DTD/svg11.dtd">
<svg version="1.1" id="Layer_1" xmlns="http://www.w3.org/2000/svg" xmlns:xlink="http://www.w3.org/1999/xlink" x="0px" y="0px"
	 width="32px" height="32px" viewBox="0 0 32 32" enable-background="new 0 0 32 32" xml:space="preserve">
<path fill="#444444" d="M16,0C7.2,0,0,7.2,0,16c0,8.8,7.2,16,16,16s16-7.2,16-16C32,7.2,24.8,0,16,0z M22.1,20.2
	c-2,4.4-7.1,4.4-9.7,2.9c-2.2-1.3-5.6-5.5-1.8-10.6c0.2-0.2,0.5-0.2,0.5,0.4c-0.1,0.4-0.6,3.4,0.4,4.7c0.5,0.6,0.6,0.2,0.6,0.2
	s-0.1-4.3,3.3-7.6c2.1-2,5.1-2.3,5.7-2C21.7,8.4,24.6,14.7,22.1,20.2z"/>
</svg>
