<?xml version="1.0" encoding="utf-8"?>
<!-- Generator: Adobe Illustrator 18.1.1, SVG Export Plug-In . SVG Version: 6.00 Build 0)  -->
<!DOCTYPE svg PUBLIC "-//W3C//DTD SVG 1.1//EN" "http://www.w3.org/Graphics/SVG/1.1/DTD/svg11.dtd">
<svg version="1.1" id="Layer_1" xmlns="http://www.w3.org/2000/svg" xmlns:xlink="http://www.w3.org/1999/xlink" x="0px" y="0px"
	 width="32px" height="32px" viewBox="0 0 32 32" enable-background="new 0 0 32 32" xml:space="preserve">
<path fill="#444444" d="M4.7,15.4c-0.5,0.8-0.7,3.5-0.5,5.2c0.1,0.6,0.2,1.1,0.3,1.3c0.2,0.4,0.5,0.6,0.9,0.6c0.2,0,0.4,0,5.1-1.6
	c0,0,2.1-0.7,2.1-0.7c0.5-0.1,0.9-0.6,0.9-1.3c0-0.6-0.3-1.2-0.8-1.4c0,0-1.5-0.6-1.5-0.6c-5-2.1-5.3-2.2-5.5-2.2
	C5.3,14.8,4.9,15,4.7,15.4z"/>
<path fill="#444444" d="M16,31.3c0.1-0.2,0.1-0.4,0.1-5.5c0,0,0-2.2,0-2.3c0-0.5-0.3-1-0.9-1.3c-0.6-0.2-1.2-0.1-1.6,0.4
	c0,0-1,1.3-1,1.3c-3.5,4.2-3.7,4.4-3.8,4.7c-0.1,0.1-0.1,0.3-0.1,0.5c0,0.2,0.1,0.4,0.3,0.7c0.8,1,4.8,2.5,6,2.3
	C15.5,31.9,15.8,31.6,16,31.3z"/>
<path fill="#444444" d="M24,29.5c1.2-0.5,3.8-3.8,4-5.1c0.1-0.5-0.1-0.8-0.4-1.1c-0.2-0.2-0.4-0.2-5-1.8c0,0-2.1-0.7-2.1-0.7
	c-0.5-0.2-1.1,0-1.4,0.5c-0.4,0.5-0.5,1.1-0.1,1.6l0.8,1.4c2.8,4.6,3,5,3.2,5.1C23.1,29.6,23.5,29.7,24,29.5L24,29.5z"/>
<path fill="#444444" d="M21.5,17.6c5.3-1.3,5.5-1.4,5.7-1.5c0.3-0.2,0.5-0.6,0.5-1c0,0,0,0,0,0c-0.1-1.3-2.4-4.8-3.6-5.4
	c-0.4-0.2-0.8-0.2-1.1,0c-0.2,0.1-0.4,0.3-3.2,4.3c0,0-1.3,1.8-1.3,1.8c-0.3,0.4-0.3,1,0,1.5c0.3,0.5,0.9,0.8,1.5,0.6c0,0,0,0,0,0
	C20.2,17.9,20.7,17.8,21.5,17.6z"/>
<path fill="#444444" d="M16.2,13.1L16.2,13.1c-0.1-2.2-0.7-11.8-0.8-12.2c-0.1-0.4-0.4-0.7-0.9-0.8C13.1-0.3,7.9,1.2,7,2.2
	C6.7,2.5,6.6,3,6.6,3.3C6.8,3.6,13.2,14,13.2,14c1,1.6,1.7,1.3,2,1.3C15.5,15.2,16.3,14.9,16.2,13.1z"/>
</svg>
