<?xml version="1.0" encoding="utf-8"?>
<!-- Generator: Adobe Illustrator 18.1.1, SVG Export Plug-In . SVG Version: 6.00 Build 0)  -->
<!DOCTYPE svg PUBLIC "-//W3C//DTD SVG 1.1//EN" "http://www.w3.org/Graphics/SVG/1.1/DTD/svg11.dtd">
<svg version="1.1" id="Layer_1" xmlns="http://www.w3.org/2000/svg" xmlns:xlink="http://www.w3.org/1999/xlink" x="0px" y="0px"
	 width="32px" height="32px" viewBox="0 0 32 32" enable-background="new 0 0 32 32" xml:space="preserve">
<path fill="#444444" d="M5.3,6.2C5.3,6.2,5.3,6.2,5.3,6.2h3c0.2,0,0.3-0.1,0.3-0.3c0,0,0-2.6,0-3.3v0c0-0.6,0.1-1.1,0.3-1.5L9,0.9
	c0,0,0,0,0,0L3.1,6.7c0,0,0,0,0,0c0.1-0.1,0.3-0.1,0.3-0.2C3.9,6.3,4.6,6.2,5.3,6.2z M28.7,5.6c-0.2-1.3-1-1.9-1.7-2.2
	c-0.7-0.3-2.2-0.5-4.1-0.8c-1.5-0.2-3.3-0.2-4.4-0.1c-0.1-0.9-0.8-1.7-1.4-2c-1.9-0.7-4.7-0.6-5.4-0.4c-0.6,0.2-1.2,0.5-1.6,1
	C9.7,1.5,9.6,2,9.6,2.6c0,0.3,0,1.2,0,1.9c0,0.7,0,1.4,0,1.4c0,0.7-0.5,1.2-1.2,1.2h-3c-0.6,0-1.1,0.1-1.5,0.3
	C3.5,7.5,3.3,7.7,3.1,8C2.7,8.6,2.6,9.2,2.6,9.9c0,0,0,0.6,0.1,1.6c0.1,0.8,1,6.6,1.9,8.4c0.3,0.7,0.6,1,1.2,1.3
	c1.5,0.6,4.8,1.3,6.3,1.5c1.6,0.2,2.5,0.6,3.1-0.6c0,0,0.1-0.3,0.3-0.7c0.5-1.5,0.6-2.9,0.6-3.9c0-0.1,0.1-0.1,0.1,0
	c0,0.7-0.1,3.1,1.7,3.8c0.7,0.3,2.2,0.5,3.8,0.7c1.4,0.2,2.4,0.7,2.4,4.3c0,2.2-0.5,2.5-2.8,2.5c-1.9,0-2.7,0.1-2.7-1.5
	c0-1.2,1.2-1.1,2.1-1.1c0.4,0,0.1-0.3,0.1-1.1c0-0.8,0.5-1.2,0-1.2c-3.1-0.1-5,0-5,3.9c0,3.6,1.4,4.2,5.8,4.2c3.5,0,4.7-0.1,6.2-4.6
	c0.3-0.9,1-3.6,1.4-8.1C29.6,16.4,29.1,7.8,28.7,5.6z M22.6,15.1c-0.4,0-0.8,0-1.2,0.1c0.1-0.9,0.5-2,1.8-1.9c1.4,0,1.6,1.4,1.6,2.3
	C24.1,15.3,23.4,15.2,22.6,15.1z"/>
</svg>
