<?xml version="1.0" encoding="utf-8"?>
<!-- Generator: Adobe Illustrator 18.1.1, SVG Export Plug-In . SVG Version: 6.00 Build 0)  -->
<!DOCTYPE svg PUBLIC "-//W3C//DTD SVG 1.1//EN" "http://www.w3.org/Graphics/SVG/1.1/DTD/svg11.dtd">
<svg version="1.1" id="Layer_1" xmlns="http://www.w3.org/2000/svg" xmlns:xlink="http://www.w3.org/1999/xlink" x="0px" y="0px"
	 width="32px" height="32px" viewBox="0 0 32 32" enable-background="new 0 0 32 32" xml:space="preserve">
<path fill-rule="evenodd" clip-rule="evenodd" fill="#444444" d="M31.5,12.8c-0.3-1-0.8-1.8-1.5-2.5c-0.6-0.7-1.4-1.3-2.4-1.7
	c-0.9-0.4-2-0.6-3.1-0.6c-0.9,0-1.8,0.1-2.6,0.4c-0.8,0.3-1.5,0.7-2.2,1.2c-0.7,0.5-1.3,1-1.9,1.7c-0.6,0.6-1.2,1.3-1.7,2
	c-0.6-0.7-1.1-1.3-1.7-2c-0.6-0.6-1.2-1.2-1.9-1.7c-0.7-0.5-1.4-0.9-2.2-1.2C9.3,8.1,8.5,8,7.5,8C6.4,8,5.3,8.2,4.4,8.6
	C3.4,9,2.7,9.5,2,10.3c-0.6,0.7-1.1,1.5-1.5,2.5c-0.3,1-0.5,2-0.5,3.1s0.2,2.2,0.5,3.2c0.3,1,0.8,1.8,1.5,2.6
	c0.6,0.7,1.4,1.3,2.4,1.7c0.9,0.4,2,0.6,3.2,0.6c0.9,0,1.7-0.1,2.5-0.4c0.8-0.3,1.5-0.6,2.2-1.1c0.7-0.4,1.3-1,1.9-1.6
	c0.6-0.6,1.2-1.2,1.7-1.8c0.6,0.6,1.1,1.3,1.7,1.8c0.6,0.6,1.3,1.1,1.9,1.6c0.7,0.5,1.4,0.8,2.2,1.1c0.8,0.3,1.6,0.4,2.5,0.4
	c1.2,0,2.2-0.2,3.2-0.6c0.9-0.4,1.7-1,2.4-1.7c0.6-0.7,1.1-1.6,1.5-2.6c0.3-1,0.5-2,0.5-3.2S31.8,13.7,31.5,12.8z M12.2,17.4
	c-0.4,0.4-0.9,0.8-1.4,1.1c-0.5,0.3-1,0.6-1.6,0.8c-0.5,0.2-1.1,0.3-1.7,0.3c-1.1,0-1.9-0.3-2.5-1C4.4,17.9,4.1,17,4.1,16
	c0-1,0.3-1.9,0.9-2.6c0.6-0.7,1.5-1.1,2.6-1.1c0.6,0,1.1,0.1,1.7,0.4c0.5,0.2,1,0.6,1.5,0.9c0.5,0.4,0.9,0.8,1.4,1.2
	c0.4,0.5,0.8,0.9,1.2,1.2C13,16.5,12.6,17,12.2,17.4z M27,18.6c-0.6,0.7-1.4,1-2.5,1c-0.6,0-1.2-0.1-1.7-0.3
	c-0.5-0.2-1.1-0.5-1.6-0.8c-0.5-0.3-1-0.7-1.4-1.1c-0.4-0.4-0.8-0.8-1.2-1.3c0.3-0.4,0.7-0.8,1.2-1.2c0.4-0.4,0.9-0.9,1.4-1.2
	c0.5-0.4,1-0.7,1.5-0.9c0.5-0.2,1.1-0.4,1.7-0.4c1.1,0,1.9,0.4,2.6,1.1c0.6,0.7,0.9,1.6,0.9,2.6C27.9,17,27.6,17.9,27,18.6z"/>
</svg>
