<?xml version="1.0" encoding="utf-8"?>
<!-- Generator: Adobe Illustrator 18.1.1, SVG Export Plug-In . SVG Version: 6.00 Build 0)  -->
<!DOCTYPE svg PUBLIC "-//W3C//DTD SVG 1.1//EN" "http://www.w3.org/Graphics/SVG/1.1/DTD/svg11.dtd">
<svg version="1.1" id="Layer_1" xmlns="http://www.w3.org/2000/svg" xmlns:xlink="http://www.w3.org/1999/xlink" x="0px" y="0px"
	 width="32px" height="32px" viewBox="0 0 32 32" enable-background="new 0 0 32 32" xml:space="preserve">
<path fill="#444444" d="M16.1,16.6L14,22.9c0.6,0.2,1.3,0.3,2,0.3c0.8,0,1.6-0.1,2.4-0.4c0,0,0-0.1-0.1-0.1L16.1,16.6z"/>
<path fill="#444444" d="M20.9,15.6c0-0.9-0.3-1.5-0.6-2c-0.4-0.6-0.7-1.1-0.7-1.7c0-0.7,0.5-1.3,1.2-1.3c0,0,0.1,0,0.1,0
	c-1.3-1.2-3-1.9-4.9-1.9c-2.5,0-4.7,1.3-6,3.2c0.2,0,0.3,0,0.5,0c0.8,0,1.9-0.1,1.9-0.1c0.4,0,0.4,0.5,0,0.6c0,0-0.4,0-0.8,0.1
	l2.6,7.8l1.6-4.7l-1.1-3.1c-0.4,0-0.8-0.1-0.8-0.1c-0.4,0-0.3-0.6,0-0.6c0,0,1.2,0.1,1.9,0.1c0.8,0,1.9-0.1,1.9-0.1
	c0.4,0,0.4,0.5,0,0.6c0,0-0.4,0-0.8,0.1l2.6,7.7l0.7-2.4C20.6,17,20.9,16.3,20.9,15.6z"/>
<path fill="#444444" d="M8.8,16c0,2.8,1.7,5.3,4.1,6.5l-3.4-9.4C9,14,8.8,15,8.8,16z"/>
<path fill="#444444" d="M0,0v32h32V0H0z M16,24c-4.4,0-8-3.6-8-8c0-4.4,3.6-8,8-8c4.4,0,8,3.6,8,8C24,20.4,20.4,24,16,24z"/>
<path fill="#444444" d="M19.6,22.2c2.1-1.2,3.6-3.6,3.6-6.2c0-1.3-0.3-2.4-0.9-3.5c0,0.2,0,0.5,0,0.7c0,0.7-0.1,1.6-0.5,2.6
	L19.6,22.2z"/>
</svg>
