<?xml version="1.0" encoding="utf-8"?>
<!-- Generator: Adobe Illustrator 18.1.1, SVG Export Plug-In . SVG Version: 6.00 Build 0)  -->
<!DOCTYPE svg PUBLIC "-//W3C//DTD SVG 1.1//EN" "http://www.w3.org/Graphics/SVG/1.1/DTD/svg11.dtd">
<svg version="1.1" id="Layer_1" xmlns="http://www.w3.org/2000/svg" xmlns:xlink="http://www.w3.org/1999/xlink" x="0px" y="0px"
	 width="32px" height="32px" viewBox="0 0 32 32" enable-background="new 0 0 32 32" xml:space="preserve">
<path fill="#444444" d="M30,15.9c-0.8,0.2-1.6,0.3-2.3,0.3c-4,0-7.1-2.8-7.1-7.7c0-2.4,0.9-3.7,2.2-3.7c1.3,0,2.1,1.1,2.1,3.4
	c0,1.3-0.3,2.7-0.6,3.6c0,0,1.2,2.2,4.6,1.5c0.7-1.6,1.1-3.7,1.1-5.5C30,2.9,27.5,0,22.9,0c-4.7,0-7.5,3.6-7.5,8.4
	c0,4.7,2.2,8.8,5.9,10.6c-1.5,3.1-3.5,5.8-5.5,7.8c-3.7-4.5-7-10.4-8.4-22H2c2.5,19.3,10,25.5,12,26.7c1.1,0.7,2.1,0.6,3.1,0.1
	c1.6-0.9,6.4-5.7,9.1-11.4c1.1,0,2.5-0.1,3.8-0.4V15.9z"/>
</svg>
