<?xml version="1.0" encoding="utf-8"?>
<!-- Generator: Adobe Illustrator 18.1.1, SVG Export Plug-In . SVG Version: 6.00 Build 0)  -->
<!DOCTYPE svg PUBLIC "-//W3C//DTD SVG 1.1//EN" "http://www.w3.org/Graphics/SVG/1.1/DTD/svg11.dtd">
<svg version="1.1" id="Layer_1" xmlns="http://www.w3.org/2000/svg" xmlns:xlink="http://www.w3.org/1999/xlink" x="0px" y="0px"
	 width="32px" height="32px" viewBox="0 0 32 32" enable-background="new 0 0 32 32" xml:space="preserve">
<circle fill="#444444" cx="21.1" cy="11" r="1"/>
<path fill="#444444" d="M17.6,15.7l2.1-1l-0.8-1.3l-1.8,1.2c-0.1,0.1-0.2,0.1-0.3,0c-0.1,0-0.1-0.1-0.1-0.2l0.1-2.2h-1.5l0.2,2.2
	c0,0.1,0,0.2-0.1,0.2c-0.1,0-0.2,0-0.3,0l-1.9-1.2l-0.7,1.3l2,1c0.1,0,0.1,0.1,0.1,0.2c0,0.1-0.1,0.2-0.1,0.2l-2.1,1l0.8,1.3
	l1.8-1.2c0.1-0.1,0.2-0.1,0.3,0c0.1,0,0.1,0.1,0.1,0.2c0,0-0.1,2.2-0.1,2.2c0,0,0,0,0,0h1.5l-0.2-2.2c0-0.1,0-0.2,0.1-0.2
	c0,0,0.1,0,0.1,0c0,0,0.1,0,0.1,0l1.9,1.2l0.7-1.3l-2-1c-0.1,0-0.1-0.1-0.1-0.2C17.5,15.9,17.6,15.8,17.6,15.7z"/>
<path fill="#444444" d="M16,0C7.2,0,0,7.2,0,16c0,8.8,7.2,16,16,16s16-7.2,16-16C32,7.2,24.8,0,16,0z M22.9,16.8
	c-0.5,0.5-6.5,6.5-6.7,6.7c-0.2,0.2-1.2,1.1-2.7-0.3l-4.7-4.7c-1.4-1.4-0.6-2.4-0.3-2.7c0.3-0.2,6.2-6.2,6.7-6.7
	C16.3,8,16.9,8,17.8,8C18.4,8,22,8.3,22,8.3c0.6,0,1,0.2,1.2,0.5c0.3,0.3,0.5,0.7,0.5,1.2c0,0,0.3,3.6,0.3,4.3
	C24,15.1,24,15.7,22.9,16.8z"/>
</svg>
