<?xml version="1.0" encoding="utf-8"?>
<!-- Generator: Adobe Illustrator 18.1.1, SVG Export Plug-In . SVG Version: 6.00 Build 0)  -->
<!DOCTYPE svg PUBLIC "-//W3C//DTD SVG 1.1//EN" "http://www.w3.org/Graphics/SVG/1.1/DTD/svg11.dtd">
<svg version="1.1" id="Layer_1" xmlns="http://www.w3.org/2000/svg" xmlns:xlink="http://www.w3.org/1999/xlink" x="0px" y="0px"
	 width="32px" height="32px" viewBox="0 0 32 32" enable-background="new 0 0 32 32" xml:space="preserve">
<path fill="#444444" d="M16,9.3c-3.6,0-6.6,3-6.6,6.6c0,1.2,0.3,2.5,1,3.5l0.2,0.2l-0.7,2.4l2.5-0.7l0.2,0.1c1,0.6,2.2,0.9,3.4,0.9
	h0c3.6,0,6.6-3,6.6-6.6c0-1.8-0.7-3.4-1.9-4.7C19.5,10,17.8,9.3,16,9.3z M19.9,18.8c-0.2,0.5-1,0.9-1.3,0.9
	c-0.3,0.1-0.8,0.1-1.2-0.1c-0.3-0.1-0.7-0.2-1.1-0.4c-2-0.9-3.3-2.9-3.4-3c-0.1-0.1-0.8-1.1-0.8-2c0-1,0.5-1.5,0.7-1.7
	c0.2-0.2,0.4-0.2,0.5-0.2c0.1,0,0.3,0,0.4,0c0.1,0,0.3,0,0.4,0.3c0.2,0.4,0.6,1.4,0.6,1.5s0.1,0.2,0,0.3c-0.1,0.1-0.1,0.2-0.2,0.3
	c-0.1,0.1-0.2,0.3-0.3,0.3c-0.1,0.1-0.2,0.2-0.1,0.4c0.1,0.2,0.5,0.8,1.1,1.4c0.8,0.7,1.4,0.9,1.6,1c0.2,0.1,0.3,0.1,0.4,0
	c0.1-0.1,0.5-0.6,0.6-0.8c0.1-0.2,0.3-0.2,0.4-0.1c0.2,0.1,1.2,0.5,1.4,0.6c0.2,0.1,0.3,0.1,0.4,0.2C20.1,17.9,20.1,18.3,19.9,18.8z
	"/>
<path fill="#444444" d="M16,0C7.2,0,0,7.2,0,16c0,8.8,7.2,16,16,16s16-7.2,16-16C32,7.2,24.8,0,16,0z M16,23.9L16,23.9
	c-1.3,0-2.6-0.3-3.8-1L8,24l1.1-4.1c-0.7-1.2-1.1-2.6-1.1-4C8.1,11.6,11.7,8,16,8c2.1,0,4.1,0.8,5.6,2.3c1.5,1.5,2.3,3.5,2.3,5.6
	C24,20.3,20.4,23.9,16,23.9z"/>
</svg>
