<?xml version="1.0" encoding="utf-8"?>
<!-- Generator: Adobe Illustrator 18.1.1, SVG Export Plug-In . SVG Version: 6.00 Build 0)  -->
<!DOCTYPE svg PUBLIC "-//W3C//DTD SVG 1.1//EN" "http://www.w3.org/Graphics/SVG/1.1/DTD/svg11.dtd">
<svg version="1.1" id="Layer_1" xmlns="http://www.w3.org/2000/svg" xmlns:xlink="http://www.w3.org/1999/xlink" x="0px" y="0px"
	 width="32px" height="32px" viewBox="0 0 32 32" enable-background="new 0 0 32 32" xml:space="preserve">
<path fill="#444444" d="M0,0v32h32V0H0z M23.6,20.6l-7.3,3.3c-0.2,0.1-0.5,0.1-0.7,0l-7.3-3.3c-0.2-0.1-0.2-0.4,0-0.5l1.5-0.7
	c0.2-0.1,0.5-0.1,0.7,0l5.1,2.3c0.2,0.1,0.5,0.1,0.7,0l5.1-2.3c0.2-0.1,0.5-0.1,0.7,0l1.5,0.7C23.8,20.2,23.8,20.5,23.6,20.6z
	 M23.6,16.3l-7.3,3.3c-0.2,0.1-0.5,0.1-0.7,0l-7.3-3.3c-0.2-0.1-0.2-0.4,0-0.5l1.5-0.7c0.2-0.1,0.5-0.1,0.7,0l5.1,2.3
	c0.2,0.1,0.5,0.1,0.7,0l5.1-2.3c0.2-0.1,0.5-0.1,0.7,0l1.5,0.7C23.8,15.9,23.8,16.2,23.6,16.3z M23.6,12l-7.3,3.3
	c-0.2,0.1-0.5,0.1-0.7,0L8.4,12c-0.2-0.1-0.2-0.4,0-0.5l7.2-3.4c0.3-0.1,0.5-0.1,0.8,0l7.2,3.4C23.8,11.6,23.8,11.9,23.6,12z"/>
</svg>
