<?xml version="1.0" encoding="utf-8"?>
<!-- Generator: Adobe Illustrator 18.1.1, SVG Export Plug-In . SVG Version: 6.00 Build 0)  -->
<!DOCTYPE svg PUBLIC "-//W3C//DTD SVG 1.1//EN" "http://www.w3.org/Graphics/SVG/1.1/DTD/svg11.dtd">
<svg version="1.1" id="Layer_1" xmlns="http://www.w3.org/2000/svg" xmlns:xlink="http://www.w3.org/1999/xlink" x="0px" y="0px"
	 width="32px" height="32px" viewBox="0 0 32 32" enable-background="new 0 0 32 32" xml:space="preserve">
<path fill="#444444" d="M31.7,9.6c0,0-0.3-2.2-1.3-3.2c-1.2-1.3-2.6-1.3-3.2-1.4C22.7,4.7,16,4.7,16,4.7h0c0,0-6.7,0-11.2,0.3
	c-0.6,0.1-2,0.1-3.2,1.4c-1,1-1.3,3.2-1.3,3.2S0,12.2,0,14.8v2.4c0,2.6,0.3,5.2,0.3,5.2s0.3,2.2,1.3,3.2c1.2,1.3,2.8,1.2,3.5,1.4
	C7.7,27.2,16,27.3,16,27.3s6.7,0,11.2-0.3c0.6-0.1,2-0.1,3.2-1.4c1-1,1.3-3.2,1.3-3.2s0.3-2.6,0.3-5.2v-2.4
	C32,12.2,31.7,9.6,31.7,9.6z M12.7,20.2l0-9l8.6,4.5L12.7,20.2z"/>
</svg>
