<?xml version="1.0" encoding="utf-8"?>
<!-- Generator: Adobe Illustrator 18.1.1, SVG Export Plug-In . SVG Version: 6.00 Build 0)  -->
<!DOCTYPE svg PUBLIC "-//W3C//DTD SVG 1.1//EN" "http://www.w3.org/Graphics/SVG/1.1/DTD/svg11.dtd">
<svg version="1.1" id="Layer_1" xmlns="http://www.w3.org/2000/svg" xmlns:xlink="http://www.w3.org/1999/xlink" x="0px" y="0px"
	 width="32px" height="32px" viewBox="0 0 32 32" enable-background="new 0 0 32 32" xml:space="preserve">
<path fill="#444444" d="M16.2,19.7c-0.1-0.1-0.3-0.2-0.4-0.1c-0.3,0.3-0.6,0.6-0.9,0.9c-0.2,0.2,0,0.4,0.2,0.5
	c0.2,0.2,0.3,0.4,0.6,0.5c0.2,0,0.5,0,0.7,0c0.3-0.2,0.5-0.4,0.7-0.7c0.1-0.1,0.1-0.3,0-0.4C16.8,20.2,16.5,19.9,16.2,19.7z"/>
<path fill="#444444" d="M17.1,13.1c-0.2-0.3-0.5-0.5-0.8-0.8c-0.1-0.1-0.3-0.3-0.4-0.2c-0.2,0.2-0.4,0.3-0.5,0.5
	c-1.4,1.4-2.7,2.7-4.1,4.1c-0.1,0.1-0.3,0.3-0.1,0.4c0.2,0.3,0.5,0.5,0.7,0.7c0.3,0,0.7,0.1,0.9-0.1c1.4-1.4,2.8-2.8,4.2-4.2
	C17.1,13.4,17.2,13.2,17.1,13.1z"/>
<path fill="#444444" d="M16.3,16c-0.1-0.1-0.2-0.3-0.4-0.2c-0.2,0.1-0.3,0.3-0.4,0.4c-0.8,0.8-1.5,1.5-2.3,2.3
	c-0.1,0.1-0.3,0.3-0.1,0.4c0.2,0.2,0.4,0.5,0.7,0.7c0.3,0,0.7,0.1,0.9-0.2c0.8-0.8,1.5-1.5,2.3-2.3c0.1-0.1,0.2-0.2,0.1-0.4
	C16.9,16.5,16.6,16.3,16.3,16z"/>
<path fill="#444444" d="M0,0v32h32V0H0z M23.7,17.9c-0.2,0.3-0.4,0.5-0.6,0.7c-1.3,1.3-2.6,2.6-3.9,3.9c-0.4,0.4-0.9,0.6-1.5,0.5
	c-1.2,0-2.4,0-3.6,0c-0.5,0-0.9-0.2-1.2-0.5c-1.5-1.5-2.9-2.9-4.4-4.4c-0.4-0.4-0.6-1.1-0.5-1.7c0.1-0.3,0.3-0.6,0.5-0.9
	c2.1-2.1,4.1-4.1,6.2-6.2C15,9.2,15.3,9.1,15.6,9c0.4-0.1,0.8-0.1,1.1,0.1c0.4,0.2,0.6,0.5,0.9,0.7c1.8,1.8,3.7,3.7,5.5,5.5
	c0.3,0.3,0.7,0.6,0.8,1C24.1,16.8,24,17.5,23.7,17.9z"/>
</svg>
