<?xml version="1.0" encoding="utf-8"?>
<!-- Generator: Adobe Illustrator 18.1.1, SVG Export Plug-In . SVG Version: 6.00 Build 0)  -->
<!DOCTYPE svg PUBLIC "-//W3C//DTD SVG 1.1//EN" "http://www.w3.org/Graphics/SVG/1.1/DTD/svg11.dtd">
<svg version="1.1" id="Layer_1" xmlns="http://www.w3.org/2000/svg" xmlns:xlink="http://www.w3.org/1999/xlink" x="0px" y="0px"
	 width="32px" height="32px" viewBox="0 0 32 32" enable-background="new 0 0 32 32" xml:space="preserve">
<path fill="#444444" d="M0,0v32h32V0H0z M17.8,24c-3.5,0.1-4.8-2.5-4.8-4.3v-5.2h-1.6v-2.1c2.4-0.9,3-3.1,3.1-4.3
	C14.6,8,14.6,8,14.7,8c0,0,2.3,0,2.3,0v4.1h3.2v2.4H17v5c0,0.7,0.3,1.6,1.5,1.6c0.4,0,1-0.1,1.3-0.3l0.8,2.3
	C20.3,23.5,19,24,17.8,24z"/>
</svg>
