<?xml version="1.0" encoding="utf-8"?>
<!-- Generator: Adobe Illustrator 18.1.1, SVG Export Plug-In . SVG Version: 6.00 Build 0)  -->
<!DOCTYPE svg PUBLIC "-//W3C//DTD SVG 1.1//EN" "http://www.w3.org/Graphics/SVG/1.1/DTD/svg11.dtd">
<svg version="1.1" id="Layer_1" xmlns="http://www.w3.org/2000/svg" xmlns:xlink="http://www.w3.org/1999/xlink" x="0px" y="0px"
	 width="32px" height="32px" viewBox="0 0 32 32" enable-background="new 0 0 32 32" xml:space="preserve">
<path fill="#444444" d="M26.6,6.2c0-0.2-0.2-0.3-0.3-0.3c-0.1,0-2.6-0.2-2.6-0.2S22,4.1,21.8,3.9c-0.2-0.2-0.6-0.1-0.7-0.1
	c0,0-0.4,0.1-1,0.3C19.6,2.5,18.6,1,16.8,1c0,0-0.1,0-0.1,0c-0.5-0.7-1.1-1-1.7-1c-4.1,0-6.1,5.2-6.7,7.8C6.7,8.3,5.5,8.6,5.4,8.7
	C4.5,9,4.5,9,4.4,9.8c-0.1,0.6-2.4,18.8-2.4,18.8L20.2,32l9.9-2.1C30.1,29.9,26.6,6.4,26.6,6.2z M16.5,5c0,0.1,0,0.1,0,0.2
	c-1,0.3-2.1,0.6-3.2,1c0.6-2.4,1.8-3.5,2.8-3.9C16.4,2.9,16.5,3.8,16.5,5z M14.9,1.1c0.2,0,0.4,0.1,0.5,0.2
	c-1.3,0.6-2.7,2.2-3.3,5.3c-0.9,0.3-1.7,0.5-2.5,0.8C10.3,5,11.9,1.1,14.9,1.1z M15.6,15.1c0,0-1.1-0.6-2.4-0.6c-1.9,0-2,1.2-2,1.5
	c0,1.7,4.3,2.3,4.3,6.2c0,3.1-1.9,5-4.5,5c-3.1,0-4.7-1.9-4.7-1.9l0.8-2.8c0,0,1.6,1.4,3,1.4c0.9,0,1.3-0.7,1.3-1.2
	c0-2.2-3.5-2.3-3.5-5.8c0-3,2.1-5.9,6.5-5.9c1.7,0,2.5,0.5,2.5,0.5L15.6,15.1z M17.6,4.9c0-0.1,0-0.2,0-0.3c0-1-0.1-1.8-0.4-2.5
	c0.9,0.1,1.5,1.2,1.9,2.3C18.7,4.6,18.2,4.7,17.6,4.9z"/>
</svg>
