<?xml version="1.0" encoding="utf-8"?>
<!-- Generator: Adobe Illustrator 18.1.1, SVG Export Plug-In . SVG Version: 6.00 Build 0)  -->
<!DOCTYPE svg PUBLIC "-//W3C//DTD SVG 1.1//EN" "http://www.w3.org/Graphics/SVG/1.1/DTD/svg11.dtd">
<svg version="1.1" id="Layer_1" xmlns="http://www.w3.org/2000/svg" xmlns:xlink="http://www.w3.org/1999/xlink" x="0px" y="0px"
	 width="32px" height="32px" viewBox="0 0 32 32" enable-background="new 0 0 32 32" xml:space="preserve">
<path fill="#444444" d="M0,0v32h32V0H0z M11.6,24H8.3V13.3h3.3V24z M9.9,11.9C8.9,11.9,8,11,8,9.9C8,8.9,8.9,8,9.9,8
	c1.1,0,1.9,0.9,1.9,1.9C11.8,11,11,11.9,9.9,11.9z M24,24h-3.3v-5.2c0-1.2,0-2.8-1.7-2.8c-1.7,0-2,1.3-2,2.7V24h-3.3V13.3h3.2v1.5h0
	c0.4-0.8,1.5-1.7,3.1-1.7c3.4,0,4,2.2,4,5.1V24z"/>
</svg>
