<?xml version="1.0" encoding="utf-8"?>
<!-- Generator: Adobe Illustrator 18.1.1, SVG Export Plug-In . SVG Version: 6.00 Build 0)  -->
<!DOCTYPE svg PUBLIC "-//W3C//DTD SVG 1.1//EN" "http://www.w3.org/Graphics/SVG/1.1/DTD/svg11.dtd">
<svg version="1.1" id="Layer_1" xmlns="http://www.w3.org/2000/svg" xmlns:xlink="http://www.w3.org/1999/xlink" x="0px" y="0px"
	 width="32px" height="32px" viewBox="0 0 32 32" enable-background="new 0 0 32 32" xml:space="preserve">
<path fill="#444444" d="M15.6,13.8c-1.1-2-2.4-3.7-2.5-4c-1.9,0.9-3.3,2.7-3.8,4.8C9.6,14.6,12.4,14.6,15.6,13.8z"/>
<path fill="#444444" d="M16.5,16.1c0.1,0,0.2-0.1,0.3-0.1c-0.2-0.4-0.4-0.8-0.6-1.2c-3.4,1-6.7,1-7,1c0,0.1,0,0.1,0,0.2
	c0,1.8,0.7,3.4,1.8,4.6C11.1,20.3,13,17.2,16.5,16.1z"/>
<path fill="#444444" d="M20.5,10.9c-1.2-1.1-2.8-1.7-4.5-1.7c-0.6,0-1.1,0.1-1.6,0.2c0.2,0.3,1.4,1.9,2.5,4
	C19.4,12.5,20.4,11.1,20.5,10.9z"/>
<path fill="#444444" d="M17.2,17.1c-3.9,1.3-5.2,4-5.4,4.3c1.2,0.9,2.6,1.4,4.2,1.4c0.9,0,1.8-0.2,2.7-0.5
	C18.6,21.7,18.2,19.6,17.2,17.1C17.2,17.1,17.2,17.1,17.2,17.1z"/>
<path fill="#444444" d="M16,0C7.2,0,0,7.2,0,16c0,8.8,7.2,16,16,16s16-7.2,16-16C32,7.2,24.8,0,16,0z M16,24c-4.4,0-8-3.6-8-8
	s3.6-8,8-8s8,3.6,8,8S20.4,24,16,24z"/>
<path fill="#444444" d="M17.5,14.4c0.2,0.3,0.3,0.7,0.5,1c0.1,0.1,0.1,0.2,0.1,0.4c2.3-0.3,4.5,0.2,4.8,0.2c0-1.6-0.6-3.1-1.5-4.3
	C21.1,11.9,20,13.4,17.5,14.4z"/>
<path fill="#444444" d="M18.5,16.8c0.9,2.5,1.3,4.5,1.3,4.9c1.5-1,2.6-2.7,2.9-4.6C22.5,17,20.6,16.5,18.5,16.8z"/>
</svg>
