<?xml version="1.0" encoding="utf-8"?>
<!-- Generator: Adobe Illustrator 18.1.1, SVG Export Plug-In . SVG Version: 6.00 Build 0)  -->
<!DOCTYPE svg PUBLIC "-//W3C//DTD SVG 1.1//EN" "http://www.w3.org/Graphics/SVG/1.1/DTD/svg11.dtd">
<svg version="1.1" id="Layer_1" xmlns="http://www.w3.org/2000/svg" xmlns:xlink="http://www.w3.org/1999/xlink" x="0px" y="0px"
	 width="32px" height="32px" viewBox="0 0 32 32" enable-background="new 0 0 32 32" xml:space="preserve">
<path fill="#444444" d="M19.5,18.9c-2.1-1.3-4.7-1.6-7.8-0.9c-0.2,0.1-0.4,0.3-0.4,0.6c0.1,0.2,0.3,0.4,0.6,0.4
	c2.8-0.6,5.2-0.4,7,0.8c0.2,0.2,0.5,0.1,0.7-0.2C19.8,19.3,19.8,19,19.5,18.9z"/>
<path fill="#444444" d="M20.5,16.6c-2.5-1.5-6.1-2-9-1.1c-0.3,0.1-0.5,0.4-0.4,0.8c0.1,0.3,0.4,0.5,0.8,0.4c2.5-0.8,5.8-0.4,8,0.9
	c0.3,0.2,0.6,0.1,0.8-0.2C20.8,17.1,20.7,16.7,20.5,16.6z"/>
<path fill="#444444" d="M0,0v32h32V0H0z M16,24c-4.4,0-8-3.6-8-8s3.6-8,8-8c4.4,0,8,3.6,8,8S20.4,24,16,24z"/>
<path fill="#444444" d="M11,12.8c-0.4,0.1-0.6,0.5-0.5,0.9c0.1,0.4,0.5,0.6,0.9,0.5c2.4-0.8,6.7-0.6,9.3,0.9c0.4,0.2,0.8,0.1,1-0.2
	c0.2-0.4,0.1-0.8-0.3-1C18.5,12.1,13.8,12,11,12.8z"/>
</svg>
