<?xml version="1.0" encoding="utf-8"?>
<!-- Generator: Adobe Illustrator 18.1.1, SVG Export Plug-In . SVG Version: 6.00 Build 0)  -->
<!DOCTYPE svg PUBLIC "-//W3C//DTD SVG 1.1//EN" "http://www.w3.org/Graphics/SVG/1.1/DTD/svg11.dtd">
<svg version="1.1" id="Layer_1" xmlns="http://www.w3.org/2000/svg" xmlns:xlink="http://www.w3.org/1999/xlink" x="0px" y="0px"
	 width="32px" height="32px" viewBox="0 0 32 32" enable-background="new 0 0 32 32" xml:space="preserve">
<path fill="#444444" d="M16,0C7.2,0,0,7.2,0,16c0,8.8,7.2,16,16,16s16-7.2,16-16C32,7.2,24.8,0,16,0z M13,24H8c-0.6,0-1-0.4-1-1V9
	c0-0.6,0.4-1,1-1h5c0.6,0,1,0.4,1,1v14C14,23.6,13.6,24,13,24z M24,18l-5,0c-0.6,0-1-0.4-1-1V9c0-0.6,0.4-1,1-1h5c0.6,0,1,0.4,1,1v8
	C25,17.6,24.5,18,24,18z"/>
</svg>
